<svg width="14" height="14" viewBox="0 0 14 14" fill="none" xmlns="http://www.w3.org/2000/svg">
<path d="M6.64217 13.3591L6.64094 13.3578C6.54773 13.2649 6.5 13.1571 6.5 13V8V7.5H6H1C0.842849 7.5 0.734337 7.45223 0.640553 7.35845C0.547796 7.26569 0.5 7.15768 0.5 7C0.5 6.84265 0.547622 6.73408 0.64055 6.64056C0.734071 6.54763 0.842644 6.5 1 6.5H6H6.5V6V1C6.5 0.842849 6.54777 0.734337 6.64155 0.640553C6.73431 0.547796 6.84232 0.5 7 0.5C7.15735 0.5 7.26592 0.547622 7.35944 0.64055C7.45237 0.734071 7.5 0.842644 7.5 1V6V6.5H8H13C13.1577 6.5 13.2657 6.5478 13.3584 6.64055C13.4522 6.73434 13.5 6.84285 13.5 7C13.5 7.15713 13.4523 7.26495 13.3591 7.35783L13.3578 7.35906C13.2649 7.45227 13.1571 7.5 13 7.5H8H7.5V8V13C7.5 13.1577 7.4522 13.2657 7.35945 13.3584C7.26566 13.4522 7.15715 13.5 7 13.5C6.84287 13.5 6.73505 13.4523 6.64217 13.3591Z" fill="#E69313" stroke="#E69313"/>
</svg>
