<svg width="1440" height="284" viewBox="0 0 1440 284" fill="none" xmlns="http://www.w3.org/2000/svg">
<mask id="mask0_137_419" style="mask-type:alpha" maskUnits="userSpaceOnUse" x="0" y="0" width="1440" height="284">
<rect width="1440" height="284" fill="white"/>
</mask>
<g mask="url(#mask0_137_419)">
<path d="M11.4043 24.4919L11.226 25.3023L11.048 26.112L10.8706 26.9204L10.6942 27.7268L10.519 28.5306L10.3453 29.3311L10.1734 30.1276L10.0037 30.9196L9.83644 31.7063L9.67191 32.4871L9.51041 33.2614L9.35224 34.0286L9.19768 34.788L9.04703 35.5391L8.90056 36.2811L8.75855 37.0136L8.62129 37.7358L8.48903 38.4474L8.36205 39.1475L8.24061 39.8358L8.12496 40.5117L8.01536 41.1745L7.91205 41.8239L7.81528 42.4592L7.72527 43.08L7.64226 43.6857L7.56647 44.276L7.49811 44.8503L7.43739 45.4082L7.38452 45.9492L7.33969 46.473L7.30308 46.9791L7.27488 47.4671L7.25526 47.9368L7.24439 48.3876L7.24242 48.8193L7.2495 49.2316L7.26578 49.6241L7.29138 49.9966L7.32643 50.3488L7.37104 50.6805L7.42533 50.9914L7.48939 51.2813L7.56331 51.5501L7.64717 51.7974L7.74105 52.0233L7.84501 52.2276L7.95909 52.41L8.08335 52.5707L8.21782 52.7094L8.36253 52.8261L8.5175 52.9208L8.68273 52.9934L8.85821 53.044L9.04395 53.0726L9.23992 53.0793L9.44609 53.064L9.66243 53.0269L9.88888 52.968L10.1254 52.8876L10.3719 52.7857L10.6283 52.6625L10.8946 52.5181L11.1706 52.3529L11.4563 52.1669L11.7515 51.9604L12.0561 51.7338L12.3699 51.4871L12.693 51.2209L13.0251 50.9352L13.366 50.6306L13.7156 50.3072L14.0737 49.9656L14.4402 49.6059L14.8149 49.2288L15.1976 48.8344L15.5881 48.4234L15.9861 47.9961L16.3915 47.5529L16.8041 47.0943L17.2236 46.6209L17.6498 46.1331L18.0825 45.6314L18.5214 45.1163L18.9662 44.5884L19.4168 44.0482L19.8729 43.4962L20.3342 42.9331L20.8004 42.3594L21.2712 41.7757L21.7465 41.1825L22.2258 40.5806L22.709 39.9704L23.1957 39.3526L23.6857 38.7279L24.1786 38.0968L24.6741 37.4601L25.1721 36.8183L25.672 36.172L26.1738 35.522L26.6769 34.8689L27.1812 34.2133L27.6864 33.556L28.1921 32.8975L28.698 32.2385L29.2038 31.5797L29.7092 30.9218L30.2139 30.2653L30.7176 29.6111L31.22 28.9596L31.7208 28.3116L32.2197 27.6678L32.7163 27.0287L33.2104 26.3951L33.7017 25.7675L34.1899 25.1466L34.6746 24.533L35.1557 23.9273L35.6328 23.3302L36.1056 22.7423L36.5739 22.1641L37.0374 21.5963L37.4958 21.0394L37.9488 20.4939L38.3962 19.9605L38.8378 19.4398L39.2732 18.9321L39.7023 18.4381L40.1248 17.9583L40.5404 17.4931L40.949 17.0432L41.3503 16.6088L41.7441 16.1905L42.1302 15.7888L42.5085 15.4041L42.8786 15.0367L43.2404 14.6871L43.5938 14.3556L43.9386 14.0427L44.2746 13.7487L44.6016 13.4739L44.9195 13.2186L45.2282 12.9831L45.5276 12.7677L45.8174 12.5727L46.0977 12.3983L46.3682 12.2447L46.629 12.1122L46.8799 12.0009L47.1208 11.911L47.3517 11.8427L47.5725 11.796L47.7831 11.7711L47.9836 11.7681L48.1738 11.7871L48.3538 11.828L48.5235 11.8909L48.683 11.976L48.8322 12.083L48.9712 12.212L49.0999 12.363L49.2185 12.5359L49.3269 12.7306L49.4252 12.947L49.5135 13.1849L49.5917 13.4443L49.6601 13.7249L49.7187 14.0266L49.7675 14.3492L49.8068 14.6924L49.8365 15.056L49.8569 15.4398L49.868 15.8434L49.87 16.2667L49.863 16.7091L49.8472 17.1705L49.8228 17.6505L49.7898 18.1487L49.7486 18.6648L49.6992 19.1983L49.6419 19.7488L49.5769 20.316L49.5043 20.8993L49.4245 21.4983L49.3375 22.1125L49.2437 22.7415L49.1432 23.3847L49.0364 24.0417L48.9233 24.7119L48.8044 25.3948L48.6798 26.0898L48.5499 26.7964L48.4148 27.5141L48.2748 28.2421L48.1303 28.98L47.9814 29.7272L47.8285 30.483L47.6719 31.2468L47.5119 32.0181L47.3486 32.7961L47.1825 33.5803L47.0138 34.37L46.8429 35.1646L46.67 35.9635L46.4954 36.7659L46.3195 37.5712L46.1424 38.3789L45.9647 39.1881L45.7865 39.9983L45.6082 40.8087L45.43 41.6188L45.2523 42.4279L45.0754 43.2353L44.8996 44.0403L44.7252 44.8423L44.5526 45.6407L44.3819 46.4347L44.2135 47.2238L44.0477 48.0073L43.8849 48.7845L43.7252 49.5549L43.569 50.3178L43.4166 51.0726L43.2683 51.8187L43.1242 52.5554L42.9849 53.2823L42.8504 53.9986L42.721 54.7038L42.5971 55.3974L42.4789 56.0788L42.3666 56.7474L42.2605 57.4028L42.1608 58.0443L42.0678 58.6715L41.9817 59.284L41.9027 59.8811L41.8311 60.4625L41.767 61.0276L41.7106 61.5761L41.6622 62.1075L41.622 62.6214L41.5901 63.1174L41.5667 63.5952L41.5519 64.0543L41.546 64.4945L41.5491 64.9154L41.5613 65.3166L41.5828 65.698L41.6137 66.0591L41.6541 66.3999L41.7041 66.7199L41.7639 67.0191L41.8335 67.2971L41.9129 67.5539L42.0024 67.7893L42.1019 68.003L42.2115 68.1951L42.3313 68.3653L42.4613 68.5137L42.6015 68.6401L42.752 68.7444L42.9127 68.8268L43.0837 68.8871L43.2649 68.9253L43.4564 68.9416L43.6581 68.936L43.87 68.9084L44.092 68.8591L44.3241 68.7882L44.5662 68.6957L44.8183 68.5818L45.0802 68.4467L45.352 68.2906L45.6334 68.1137L45.9244 67.9162L46.2249 67.6984L46.5347 67.4605L46.8537 67.2029L47.1819 66.9257L47.5189 66.6294L47.8647 66.3142L48.2191 65.9805L48.582 65.6287L48.9531 65.2592L49.3323 64.8724L49.7194 64.4686L50.1141 64.0484L50.5163 63.6121L50.9257 63.1603L51.3422 62.6934L51.7655 62.2118L52.1954 61.7161L52.6316 61.2069L53.0738 60.6845L53.522 60.1497L53.9757 59.6028L54.4347 59.0445L54.8987 58.4754L55.3676 57.896L55.8409 57.3069L56.3185 56.7088L56.8 56.1021L57.2852 55.4876L57.7738 54.8659L58.2655 54.2375L58.7599 53.6032L59.2568 52.9635L59.7559 52.3191L60.2569 51.6707L60.7595 51.0189L61.2633 50.3643L61.7681 49.7076L62.2736 49.0496L62.7795 48.3907L63.2854 47.7318L63.791 47.0734L64.2961 46.4162L64.8003 45.7609L65.3033 45.1081L65.8048 44.4585L66.3045 43.8128L66.8022 43.1715L67.2974 42.5354L67.79 41.9051L68.2796 41.2812L68.7659 40.6643L69.2486 40.0551L69.7275 39.4542L70.2022 38.8621L70.6725 38.2796L71.1381 37.7071L71.5988 37.1453L72.0542 36.5948L72.5041 36.056L72.9483 35.5296L73.3865 35.0161L73.8184 34.5161L74.2438 34.03L74.6624 33.5583L75.0742 33.1016L75.4787 32.6603L75.8758 32.2349L76.2654 31.8259L76.6471 31.4336L77.0208 31.0585L77.3863 30.7011L77.7434 30.3616L78.092 30.0405L78.4318 29.7381L78.7628 29.4548L79.0848 29.1909L79.3975 28.9467L79.701 28.7224L79.995 28.5185L80.2795 28.335L80.5544 28.1722L80.8195 28.0304L81.0747 27.9098L81.32 27.8105L81.5553 27.7326L81.7805 27.6764L81.9956 27.6419L82.2006 27.6293L82.3953 27.6386L82.5798 27.6698L82.7541 27.7231L82.918 27.7984L83.0718 27.8958L83.2152 28.0152L83.3485 28.1565L83.4715 28.3198L83.5844 28.5049L83.6871 28.7118L83.7797 28.9403L83.8624 29.1902L83.9351 29.4616L83.998 29.754L84.0511 30.0674L84.0946 30.4016L84.1285 30.7563L84.1529 31.1312L84.1681 31.5262L84.1741 31.9408L84.171 32.3749L84.1591 32.828L84.1384 33.2999L84.1092 33.7901L84.0716 34.2984L84.0258 34.8243L83.9719 35.3674L83.9103 35.9272L83.841 36.5035L83.7643 37.0957L83.6804 37.7033L83.5896 38.3258L83.492 38.9629L83.388 39.6139L83.2776 40.2783L83.1612 40.9557L83.0391 41.6455L82.9115 42.3471L82.7786 43.0599L82.6408 43.7834L82.4982 44.5171L82.3512 45.2603L82.2001 46.0123L82.0451 46.7727L81.8865 47.5408L81.7246 48.3159L81.5597 49.0975L81.3921 49.8849L81.2221 50.6774L81.0501 51.4745L80.8762 52.2754L80.7008 53.0795L80.5242 53.8862L80.3467 54.6948L80.1687 55.5047L79.9904 56.3151L79.8121 57.1254L79.6342 57.935L79.4569 58.7432L79.2806 59.5494L79.1056 60.3528L78.9321 61.1528L78.7605 61.9488L78.591 62.7402L78.4241 63.5262L78.2599 64.3063L78.0988 65.0798L77.941 65.8461L77.7869 66.6045L77.6368 67.3545L77.4908 68.0954L77.3494 68.8266L77.2127 69.5476L77.0811 70.2578L76.9548 70.9566L76.834 71.6434L76.7191 72.3177L76.6102 72.979L76.5077 73.6266L76.4117 74.2602L76.3226 74.8792L76.2404 75.4831L76.1655 76.0715L76.0981 76.6438L76.0383 77.1997L75.9864 77.7386L75.9425 78.2603L75.9069 78.7642L75.8798 79.2501L75.8612 79.7174L75.8514 80.166L75.8505 80.5954L75.8587 81.0053L75.8761 81.3954L75.9028 81.7655L75.939 82.1152L75.9848 82.4444L76.0403 82.7527L76.1055 83.0401L76.1806 83.3063L76.2657 83.5511L76.3608 83.7743L76.466 83.9759L76.5813 84.1558L76.7068 84.3138L76.8425 84.4498L76.9884 84.5638L77.1446 84.6559L77.3111 84.7258L77.4878 84.7738L77.6748 84.7997L77.872 84.8037L78.0794 84.7858L78.297 84.746L78.5247 84.6846L78.7624 84.6015L79.0101 84.497L79.2677 84.3713L79.5352 84.2244L79.8124 84.0566L80.0992 83.8681L80.3955 83.6592L80.7012 83.4301L81.0163 83.1811L81.3404 82.9125L81.6735 82.6245L82.0155 82.3176L82.3662 81.992L82.7253 81.6481L83.0928 81.2864L83.4685 80.9071L83.8521 80.5107L84.2435 80.0977L84.6425 79.6684L85.0488 79.2234L85.4622 78.763L85.8825 78.2878L86.3095 77.7983L86.7429 77.2949L87.1826 76.7782L87.6282 76.2488L88.0794 75.7072L88.5361 75.1538L88.998 74.5894L89.4648 74.0145L89.9362 73.4296L90.412 72.8353L90.8918 72.2323L91.3754 71.6212L91.8625 71.0026L92.3529 70.377L92.8461 69.7452L93.342 69.1078L93.8401 68.4654L94.3403 67.8187L94.8423 67.1683L95.3456 66.5148L95.85 65.859L96.3552 65.2015L96.861 64.5429L97.3669 63.8839L97.8727 63.2252L98.378 62.5674L98.8826 61.9112L99.3862 61.2572L99.8884 60.6061L100.389 59.9586L100.888 59.3153L101.384 58.6769L101.878 58.0439L102.369 57.4171L102.856 56.7971L103.341 56.1844L103.821 55.5798L104.298 54.9838L104.77 54.397L105.238 53.82L105.701 53.2534L106.159 52.6979L106.611 52.1539L107.058 51.622L107.498 51.1028L107.933 50.5967L108.361 50.1044L108.783 49.6264L109.198 49.163L109.606 48.7149L110.006 48.2825L110.399 47.8662L110.784 47.4665L111.161 47.0838L111.531 46.7186L111.891 46.3711L112.244 46.0419L112.587 45.7313L112.922 45.4395L113.248 45.1671L113.565 44.9141L113.873 44.6811L114.171 44.4682L114.46 44.2756L114.739 44.1038L115.008 43.9527L115.268 43.8228L115.517 43.7141L115.757 43.6268L115.987 43.561L116.206 43.517L116.416 43.4947L116.615 43.4944L116.804 43.516L116.983 43.5596L117.151 43.6252L117.309 43.7129L117.457 43.8226L117.595 43.9543L117.723 44.1079L117.84 44.2834L117.947 44.4808L118.044 44.6998L118.131 44.9403L118.208 45.2023L118.275 45.4854L118.333 45.7897L118.381 46.1148L118.419 46.4605L118.447 46.8265L118.466 47.2127L118.476 47.6187L118.477 48.0443L118.469 48.4891L118.452 48.9528L118.427 49.435L118.393 49.9354L118.351 50.4536L118.3 50.9891L118.242 51.5417L118.176 52.1108L118.103 52.696L118.022 53.2969L117.934 53.913L117.84 54.5437L117.738 55.1886L117.631 55.8472L117.517 56.519L117.397 57.2034L117.272 57.8999L117.141 58.6078L117.006 59.3267L116.865 60.056L116.72 60.7951L116.571 61.5433L116.417 62.3001L116.26 63.0649L116.1 63.837L115.936 64.6158L115.77 65.4007L115.601 66.1911L115.43 66.9862L115.257 67.7855L115.082 68.5883L114.906 69.394L114.729 70.2018L114.551 71.0112L114.373 71.8214" stroke="#F57724" stroke-width="3" stroke-linecap="round"/>
<path fill-rule="evenodd" clip-rule="evenodd" d="M350.365 105.08L351.065 107.688L351.354 108.769L351.573 109.598L351.757 110.298L351.916 110.915L352.058 111.473L352.187 111.986L352.305 112.464L352.414 112.913L352.515 113.338L352.609 113.742L352.697 114.129L352.779 114.5L352.856 114.857L352.928 115.201L352.996 115.534L353.06 115.858L353.12 116.172L353.176 116.477L353.228 116.774L353.277 117.065L353.323 117.348L353.366 117.625L353.406 117.896L353.443 118.162L353.477 118.422L353.508 118.677L353.536 118.928L353.562 119.174L353.586 119.415L353.606 119.653L353.625 119.887L353.641 120.117L353.654 120.344L353.665 120.567L353.674 120.787L353.681 121.004L353.685 121.217L353.687 121.428L353.687 121.636L353.684 121.842L353.679 122.044L353.673 122.244L353.664 122.442L353.653 122.637L353.64 122.83L353.624 123.021L353.607 123.209L353.587 123.395L353.566 123.58L353.542 123.762L353.517 123.942L353.489 124.12L353.46 124.296L353.428 124.471L353.394 124.644L353.358 124.814L353.32 124.984L353.281 125.151L353.239 125.317L353.195 125.481L353.149 125.643L353.101 125.804L353.052 125.964L353 126.122L352.946 126.278L352.89 126.433L352.832 126.586L352.772 126.739L352.71 126.889L352.646 127.039L352.58 127.187L352.512 127.333L352.442 127.478L352.37 127.623L352.295 127.765L352.219 127.907L352.141 128.047L352.06 128.186L351.978 128.324L351.893 128.461L351.806 128.596L351.717 128.731L351.626 128.864L351.533 128.996L351.438 129.127L351.34 129.257L351.24 129.386L351.138 129.514L351.034 129.641L350.927 129.767L350.819 129.891L350.708 130.015L350.594 130.138L350.478 130.26L350.36 130.381L350.24 130.501L350.117 130.62L349.991 130.738L349.863 130.855L349.733 130.971L349.6 131.087L349.465 131.202L349.326 131.315L349.186 131.429L349.042 131.541L348.896 131.652L348.747 131.763L348.595 131.873L348.44 131.982L348.282 132.091L348.121 132.199L347.957 132.306L347.79 132.412L347.62 132.518L347.446 132.624L347.27 132.728L347.089 132.833L346.905 132.936L346.718 133.04L346.526 133.143L346.331 133.245L346.132 133.347L345.929 133.449L345.721 133.55L345.509 133.651L345.292 133.752L345.071 133.853L344.845 133.954L344.613 134.054L344.376 134.155L344.133 134.256L343.885 134.357L343.63 134.458L343.368 134.559L343.099 134.661L342.823 134.764L342.539 134.867L342.246 134.971L341.945 135.077L341.633 135.183L341.31 135.291L340.975 135.401L340.628 135.513L340.266 135.627L339.887 135.744L339.49 135.865L339.072 135.99L338.63 136.12L338.158 136.257L337.651 136.401L337.099 136.557L336.489 136.726L335.797 136.916L334.979 137.138L333.925 137.421L331.945 137.951L328.695 138.818L327.579 139.114L326.733 139.337L326.022 139.522L325.398 139.682L324.834 139.825L324.316 139.954L323.834 140.073L323.381 140.182L322.953 140.283L322.546 140.377L322.156 140.465L321.783 140.548L321.424 140.625L321.077 140.697L320.742 140.765L320.416 140.829L320.101 140.889L319.794 140.945L319.495 140.998L319.203 141.047L318.918 141.093L318.639 141.136L318.367 141.176L318.1 141.213L317.839 141.247L317.582 141.278L317.33 141.307L317.083 141.333L316.84 141.356L316.601 141.377L316.366 141.395L316.135 141.412L315.907 141.425L315.683 141.436L315.462 141.445L315.244 141.452L315.03 141.456L314.818 141.459L314.609 141.458L314.403 141.456L314.199 141.452L313.998 141.445L313.799 141.436L313.603 141.426L313.41 141.413L313.218 141.398L313.029 141.381L312.842 141.361L312.657 141.34L312.474 141.317L312.293 141.291L312.114 141.264L311.937 141.235L311.762 141.203L311.588 141.17L311.417 141.134L311.247 141.097L311.079 141.057L310.912 141.016L310.747 140.972L310.584 140.927L310.422 140.879L310.262 140.83L310.104 140.778L309.947 140.725L309.791 140.669L309.637 140.611L309.484 140.552L309.333 140.49L309.183 140.427L309.034 140.361L308.887 140.293L308.741 140.224L308.597 140.152L308.453 140.078L308.311 140.002L308.17 139.924L308.031 139.844L307.892 139.762L307.755 139.678L307.619 139.592L307.484 139.503L307.35 139.413L307.217 139.32L307.086 139.225L306.955 139.128L306.826 139.029L306.697 138.927L306.57 138.823L306.444 138.717L306.318 138.609L306.194 138.499L306.071 138.386L305.948 138.271L305.827 138.153L305.707 138.033L305.587 137.911L305.468 137.786L305.351 137.659L305.234 137.529L305.118 137.397L305.003 137.262L304.888 137.124L304.775 136.984L304.662 136.841L304.55 136.696L304.439 136.548L304.329 136.396L304.219 136.242L304.11 136.085L304.002 135.925L303.894 135.762L303.787 135.596L303.681 135.427L303.575 135.254L303.47 135.078L303.365 134.898L303.261 134.715L303.157 134.529L303.054 134.338L302.951 134.144L302.849 133.946L302.747 133.744L302.645 133.537L302.544 133.326L302.442 133.111L302.341 132.89L302.24 132.665L302.139 132.435L302.038 132.199L301.937 131.958L301.836 131.711L301.734 131.457L301.632 131.197L301.53 130.93L301.427 130.655L301.324 130.373L301.219 130.082L301.114 129.781L301.007 129.472L300.899 129.151L300.789 128.818L300.676 128.473L300.562 128.113L300.445 127.738L300.324 127.344L300.199 126.929L300.068 126.49L299.932 126.022L299.788 125.52L299.633 124.974L299.464 124.371L299.276 123.69L299.056 122.888L298.779 121.864L298.303 120.097L297.38 116.665L297.074 115.517L296.846 114.659L296.658 113.943L296.496 113.315L296.351 112.749L296.22 112.229L296.101 111.746L295.99 111.293L295.888 110.865L295.793 110.457L295.705 110.068L295.622 109.695L295.544 109.336L295.471 108.989L295.402 108.654L295.338 108.329L295.277 108.014L295.221 107.707L295.168 107.409L295.118 107.117L295.071 106.833L295.028 106.555L294.988 106.283L294.951 106.016L294.916 105.755L294.885 105.499L294.856 105.248L294.829 105.001L294.805 104.759L294.784 104.521L294.766 104.286L294.749 104.055L294.735 103.828L294.724 103.605L294.715 103.384L294.708 103.167L294.703 102.953L294.701 102.741L294.701 102.533L294.703 102.327L294.707 102.124L294.714 101.924L294.722 101.725L294.733 101.53L294.746 101.337L294.761 101.146L294.778 100.957L294.797 100.77L294.818 100.586L294.841 100.403L294.867 100.223L294.894 100.044L294.923 99.8677L294.955 99.6929L294.988 99.52L295.024 99.3488L295.061 99.1794L295.1 99.0117L295.142 98.8457L295.185 98.6813L295.231 98.5185L295.278 98.3573L295.328 98.1977L295.38 98.0395L295.433 97.8829L295.489 97.7277L295.546 97.574L295.606 97.4217L295.668 97.2708L295.731 97.1213L295.797 96.9731L295.865 96.8262L295.934 96.6807L296.006 96.5364L296.08 96.3935L296.156 96.2517L296.234 96.1112L296.314 95.972L296.397 95.8339L296.481 95.697L296.567 95.5613L296.656 95.4267L296.747 95.2932L296.84 95.1609L296.935 95.0297L297.032 94.8995L297.131 94.7705L297.233 94.6424L297.337 94.5155L297.443 94.3895L297.552 94.2646L297.662 94.1406L297.775 94.0177L297.891 93.8957L298.008 93.7746L298.129 93.6545L298.251 93.5353L298.376 93.417L298.504 93.2997L298.634 93.1832L298.766 93.0675L298.901 92.9527L299.039 92.8387L299.18 92.7256L299.323 92.6132L299.468 92.5016L299.617 92.3908L299.769 92.2807L299.923 92.1714L300.08 92.0627L300.241 91.9547L300.404 91.8474L300.571 91.7408L300.74 91.6347L300.913 91.5293L301.09 91.4244L301.269 91.32L301.453 91.2162L301.64 91.1128L301.831 91.0099L302.025 90.9075L302.224 90.8054L302.426 90.7036L302.633 90.6022L302.845 90.501L303.061 90.4001L303.281 90.2993L303.507 90.1986L303.737 90.098L303.974 89.9973L304.215 89.8966L304.463 89.7957L304.717 89.6946L304.977 89.5931L305.245 89.4911L305.52 89.3886L305.803 89.2854L306.094 89.1814L306.394 89.0763L306.705 88.97L307.026 88.8623L307.358 88.7528L307.704 88.6413L308.063 88.5275L308.439 88.4107L308.833 88.2906L309.247 88.1663L309.686 88.037L310.152 87.9016L310.653 87.7583L311.197 87.6051L311.797 87.4383L312.474 87.2524L313.266 87.0369L314.269 86.7669L315.902 86.3296L319.465 85.3788L320.655 85.0627L321.531 84.8319L322.259 84.6422L322.895 84.4783L323.467 84.3328L323.992 84.2015L324.479 84.0815L324.936 83.971L325.368 83.8686L325.778 83.7734L326.17 83.6845L326.546 83.6013L326.908 83.5234L327.256 83.4503L327.593 83.3816L327.92 83.3172L328.237 83.2567L328.546 83.1999L328.846 83.1467L329.139 83.0969L329.425 83.0504L329.704 83.007L329.978 82.9667L330.245 82.9293L330.508 82.8947L330.765 82.8629L331.018 82.8339L331.265 82.8074L331.509 82.7836L331.749 82.7622L331.984 82.7434L332.216 82.727L332.444 82.713L332.669 82.7014L332.891 82.692L333.109 82.685L333.324 82.6803L333.536 82.6778L333.746 82.6775L333.952 82.6794L334.156 82.6835L334.358 82.6897L334.557 82.6981L334.753 82.7086L334.947 82.7212L335.139 82.736L335.329 82.7528L335.516 82.7716L335.701 82.7926L335.885 82.8155L336.066 82.8406L336.245 82.8676L336.423 82.8967L336.598 82.9279L336.772 82.961L336.944 82.9962L337.114 83.0333L337.282 83.0725L337.449 83.1137L337.614 83.1569L337.778 83.2021L337.939 83.2493L338.1 83.2985L338.259 83.3497L338.416 83.4029L338.572 83.4581L338.726 83.5154L338.879 83.5746L339.031 83.6359L339.181 83.6992L339.33 83.7645L339.477 83.8319L339.623 83.9012L339.768 83.9727L339.912 84.0462L340.054 84.1217L340.195 84.1993L340.335 84.279L340.474 84.3608L340.611 84.4447L340.747 84.5306L340.882 84.6188L341.016 84.709L341.149 84.8014L341.281 84.8959L341.412 84.9927L341.541 85.0916L341.67 85.1927L341.797 85.2961L341.924 85.4017L342.049 85.5096L342.174 85.6197L342.297 85.7322L342.42 85.847L342.541 85.9642L342.662 86.0837L342.782 86.2056L342.9 86.33L343.018 86.4569L343.135 86.5862L343.251 86.7181L343.367 86.8526L343.481 86.9897L343.595 87.1294L343.707 87.2718L343.82 87.4169L343.931 87.5648L344.041 87.7155L344.151 87.8691L344.26 88.0257L344.369 88.1852L344.476 88.3478L344.583 88.5135L344.69 88.6824L344.796 88.8545L344.901 89.03L345.006 89.2089L345.11 89.3914L345.214 89.5774L345.317 89.7672L345.42 89.9608L345.522 90.1584L345.625 90.36L345.726 90.5659L345.828 90.7761L345.929 90.9908L346.03 91.2103L346.131 91.4347L346.232 91.6642L346.333 91.899L346.434 92.1395L346.536 92.3858L346.637 92.6384L346.739 92.8974L346.841 93.1634L346.944 93.4368L347.048 93.718L347.152 94.0076L347.257 94.3062L347.364 94.6146L347.472 94.9335L347.581 95.264L347.693 95.6072L347.807 95.9645L347.924 96.3376L348.044 96.7284L348.169 97.1396L348.298 97.5744L348.433 98.0371L348.576 98.5335L348.729 99.0717L348.895 99.6643L349.08 100.331L349.293 101.11L349.558 102.086L349.969 103.608L350.365 105.08Z" fill="#00A9E0"/>
<path d="M1388.8 159.435L1388.83 159.485L1388.85 159.536L1388.87 159.588L1388.9 159.639L1388.92 159.692L1388.94 159.745L1388.96 159.798L1388.99 159.852L1389.01 159.906L1389.03 159.961L1389.05 160.016L1389.06 160.072L1389.08 160.128L1389.1 160.184L1389.12 160.241L1389.13 160.298L1389.15 160.356L1389.17 160.414L1389.18 160.473L1389.19 160.531L1389.21 160.591L1389.22 160.65L1389.23 160.71L1389.24 160.771L1389.25 160.831L1389.26 160.893L1389.27 160.954L1389.28 161.016L1389.29 161.078L1389.3 161.14L1389.3 161.203L1389.31 161.266L1389.32 161.329L1389.32 161.393L1389.32 161.457L1389.33 161.521L1389.33 161.585L1389.33 161.65L1389.33 161.715L1389.33 161.78L1389.33 161.845L1389.33 161.911L1389.33 161.976L1389.32 162.042L1389.32 162.109L1389.32 162.175L1389.31 162.241L1389.3 162.308L1389.3 162.375L1389.29 162.442L1389.28 162.509L1389.27 162.576L1389.26 162.644L1389.25 162.711L1389.24 162.779L1389.23 162.847L1389.21 162.914L1389.2 162.982L1389.18 163.05L1389.17 163.118L1389.15 163.186L1389.13 163.254L1389.12 163.322L1389.1 163.39L1389.08 163.459L1389.06 163.527L1389.03 163.595L1389.01 163.663L1388.99 163.731L1388.96 163.799L1388.94 163.867L1388.91 163.935L1388.89 164.003L1388.86 164.07L1388.83 164.138L1388.8 164.205L1388.77 164.273L1388.74 164.34L1388.71 164.407L1388.68 164.474L1388.64 164.541L1388.61 164.608L1388.57 164.674L1388.54 164.741L1388.5 164.807L1388.46 164.873L1388.42 164.939L1388.38 165.004L1388.34 165.069L1388.3 165.134L1388.26 165.199L1388.22 165.264L1388.17 165.328L1388.13 165.392L1388.08 165.455L1388.04 165.519L1387.99 165.582L1387.94 165.644L1387.89 165.707L1387.84 165.769L1387.79 165.83L1387.74 165.891L1387.69 165.952L1387.64 166.013L1387.58 166.073L1387.53 166.132L1387.47 166.192L1387.42 166.25L1387.36 166.309L1387.3 166.366L1387.24 166.424L1387.18 166.481L1387.12 166.537L1387.06 166.593L1387 166.649L1386.94 166.704L1386.87 166.758L1386.81 166.812L1386.75 166.865L1386.68 166.918L1386.61 166.97L1386.55 167.022L1386.48 167.073L1386.41 167.123L1386.34 167.173L1386.27 167.222L1386.2 167.271L1386.13 167.319L1386.05 167.366L1385.98 167.413L1385.91 167.459L1385.83 167.504L1385.76 167.549L1385.68 167.593L1385.61 167.636L1385.53 167.678L1385.45 167.72L1385.37 167.761L1385.29 167.802L1385.21 167.841L1385.13 167.88L1385.05 167.918L1384.97 167.955L1384.89 167.992L1384.8 168.028L1384.72 168.063L1384.63 168.097L1384.55 168.13L1384.46 168.163L1384.38 168.194L1384.29 168.225L1384.2 168.255L1384.12 168.284L1384.03 168.312L1383.94 168.34L1383.85 168.366L1383.76 168.392L1383.67 168.417L1383.58 168.44L1383.49 168.463L1383.4 168.485L1383.3 168.506L1383.21 168.526L1383.12 168.546L1383.03 168.564L1382.93 168.581L1382.84 168.597L1382.74 168.613L1382.65 168.627L1382.55 168.641L1382.45 168.653L1382.36 168.665L1382.26 168.675L1382.16 168.684L1382.07 168.693L1381.97 168.7L1381.87 168.707L1381.77 168.712L1381.67 168.716L1381.58 168.72L1381.48 168.722L1381.38 168.723L1381.28 168.723L1381.18 168.722L1381.08 168.72L1380.98 168.717L1380.88 168.713L1380.77 168.708L1380.67 168.702L1380.57 168.694L1380.47 168.686L1380.37 168.676L1380.27 168.666L1380.17 168.654L1380.06 168.641L1379.96 168.627L1379.86 168.612L1379.76 168.596L1379.66 168.579L1379.55 168.56L1379.45 168.541L1379.35 168.52L1379.25 168.499L1379.14 168.476L1379.04 168.452L1378.94 168.426L1378.84 168.4L1378.74 168.373L1378.63 168.344L1378.53 168.314L1378.43 168.284L1378.33 168.252L1378.23 168.219L1378.12 168.184L1378.02 168.149L1377.92 168.112L1377.82 168.075L1377.72 168.036L1377.62 167.996L1377.52 167.955L1377.42 167.912L1377.32 167.869L1377.22 167.824L1377.12 167.778L1377.02 167.732L1376.92 167.683L1376.82 167.634L1376.72 167.584L1376.62 167.533L1376.52 167.48L1376.43 167.426L1376.33 167.371L1376.23 167.315L1376.14 167.258L1376.04 167.2L1375.94 167.14L1375.85 167.08L1375.75 167.018L1375.66 166.955L1375.57 166.892L1375.47 166.827L1375.38 166.76L1375.29 166.693L1375.2 166.625L1375.11 166.555L1375.01 166.485L1374.92 166.413L1374.83 166.341L1374.75 166.267L1374.66 166.192L1374.57 166.116L1374.48 166.039L1374.4 165.961L1374.31 165.881L1374.22 165.801L1374.14 165.72L1374.06 165.638L1373.97 165.554L1373.89 165.47L1373.81 165.384L1373.73 165.298L1373.65 165.21L1373.57 165.122L1373.49 165.032L1373.41 164.942L1373.33 164.85L1373.26 164.758L1373.18 164.664L1373.11 164.57L1373.03 164.475L1372.96 164.378L1372.89 164.281L1372.82 164.183L1372.74 164.083L1372.68 163.983L1372.61 163.882L1372.54 163.78L1372.47 163.677L1372.41 163.574L1372.34 163.469L1372.28 163.364L1372.21 163.257L1372.15 163.15L1372.09 163.042L1372.03 162.933L1371.97 162.823L1371.92 162.713L1371.86 162.601L1371.8 162.489L1371.75 162.376L1371.7 162.262L1371.64 162.148L1371.59 162.033L1371.54 161.917L1371.49 161.8L1371.44 161.682L1371.4 161.564L1371.35 161.445L1371.31 161.325L1371.26 161.205L1371.22 161.084L1371.18 160.963L1371.14 160.84L1371.1 160.717L1371.06 160.594L1371.03 160.47L1370.99 160.345L1370.96 160.219L1370.93 160.093L1370.9 159.967L1370.87 159.84L1370.84 159.712L1370.81 159.584L1370.78 159.455L1370.76 159.326L1370.74 159.197L1370.71 159.066L1370.69 158.936L1370.67 158.805L1370.65 158.673L1370.64 158.541L1370.62 158.409L1370.61 158.276L1370.6 158.143L1370.58 158.01L1370.57 157.876L1370.57 157.742L1370.56 157.607L1370.55 157.472L1370.55 157.337L1370.54 157.202L1370.54 157.066L1370.54 156.93L1370.54 156.794L1370.55 156.658L1370.55 156.521L1370.56 156.384L1370.56 156.247L1370.57 156.11L1370.58 155.973L1370.59 155.835L1370.6 155.698L1370.62 155.56L1370.63 155.422L1370.65 155.284L1370.67 155.146L1370.69 155.008L1370.71 154.87L1370.73 154.732L1370.76 154.594L1370.78 154.456L1370.81 154.318L1370.84 154.18L1370.87 154.042L1370.9 153.905L1370.93 153.767L1370.97 153.629L1371.01 153.492L1371.04 153.354L1371.08 153.217L1371.12 153.08L1371.16 152.943L1371.21 152.807L1371.25 152.67L1371.3 152.534L1371.35 152.398L1371.4 152.263L1371.45 152.127L1371.5 151.992L1371.56 151.858L1371.61 151.723L1371.67 151.589L1371.73 151.455L1371.79 151.322L1371.85 151.189L1371.91 151.057L1371.98 150.925L1372.04 150.793L1372.11 150.662L1372.18 150.531L1372.25 150.401L1372.32 150.271L1372.39 150.142L1372.47 150.013L1372.54 149.885L1372.62 149.758L1372.7 149.631L1372.78 149.505L1372.86 149.379L1372.95 149.254L1373.03 149.129L1373.12 149.006L1373.21 148.883L1373.29 148.76L1373.38 148.639L1373.48 148.518L1373.57 148.398L1373.66 148.278L1373.76 148.16L1373.86 148.042L1373.96 147.925L1374.06 147.809L1374.16 147.694L1374.26 147.579L1374.37 147.466L1374.47 147.353L1374.58 147.241L1374.69 147.13L1374.8 147.02L1374.91 146.911L1375.02 146.803L1375.13 146.696L1375.25 146.59L1375.36 146.485L1375.48 146.381L1375.6 146.278L1375.72 146.176L1375.84 146.075L1375.96 145.976L1376.08 145.877L1376.21 145.779L1376.33 145.683L1376.46 145.588L1376.59 145.493L1376.72 145.4L1376.85 145.309L1376.98 145.218L1377.11 145.129L1377.25 145.04L1377.38 144.953L1377.52 144.868L1377.66 144.783L1377.79 144.7L1377.93 144.618L1378.07 144.538L1378.21 144.458L1378.36 144.38L1378.5 144.304L1378.65 144.228L1378.79 144.155L1378.94 144.082L1379.08 144.011L1379.23 143.941L1379.38 143.873L1379.53 143.806L1379.68 143.74L1379.84 143.676L1379.99 143.614L1380.14 143.553L1380.3 143.493L1380.45 143.435L1380.61 143.378L1380.77 143.323L1380.92 143.269L1381.08 143.217L1381.24 143.167L1381.4 143.118L1381.56 143.07L1381.72 143.024L1381.89 142.98L1382.05 142.937L1382.21 142.896L1382.38 142.857L1382.54 142.819L1382.71 142.783L1382.87 142.748L1383.04 142.715L1383.21 142.684L1383.38 142.654L1383.54 142.626L1383.71 142.6L1383.88 142.575L1384.05 142.552L1384.22 142.531L1384.39 142.511L1384.57 142.493L1384.74 142.477L1384.91 142.463L1385.08 142.45L1385.26 142.439L1385.43 142.43L1385.6 142.423L1385.78 142.417L1385.95 142.413L1386.12 142.411L1386.3 142.41L1386.47 142.412L1386.65 142.415L1386.83 142.42L1387 142.427L1387.18 142.435L1387.35 142.446L1387.53 142.458L1387.71 142.472L1387.88 142.487L1388.06 142.505L1388.23 142.524L1388.41 142.546L1388.59 142.569L1388.76 142.593L1388.94 142.62L1389.12 142.649L1389.29 142.679L1389.47 142.711L1389.65 142.745L1389.82 142.781L1390 142.819L1390.17 142.858L1390.35 142.899L1390.53 142.943L1390.7 142.988L1390.88 143.035L1391.05 143.083L1391.23 143.134L1391.4 143.186L1391.57 143.24L1391.75 143.296L1391.92 143.354L1392.09 143.414L1392.27 143.476L1392.44 143.539L1392.61 143.604L1392.78 143.671L1392.95 143.74L1393.12 143.811L1393.29 143.883L1393.46 143.958L1393.63 144.034L1393.8 144.112L1393.97 144.191L1394.13 144.273L1394.3 144.356L1394.46 144.441L1394.63 144.528L1394.79 144.617L1394.96 144.708L1395.12 144.8L1395.28 144.894L1395.44 144.99L1395.61 145.087L1395.77 145.187L1395.92 145.288L1396.08 145.391L1396.24 145.495L1396.4 145.601L1396.55 145.709L1396.71 145.819L1396.86 145.931L1397.01 146.044L1397.17 146.158L1397.32 146.275L1397.47 146.393L1397.62 146.513L1397.76 146.634L1397.91 146.758L1398.06 146.882L1398.2 147.009L1398.34 147.137L1398.49 147.266L1398.63 147.398L1398.77 147.531L1398.91 147.665L1399.04 147.801L1399.18 147.939L1399.32 148.078L1399.45 148.218L1399.58 148.36L1399.71 148.504L1399.84 148.649L1399.97 148.796L1400.1 148.944L1400.23 149.094L1400.35 149.245L1400.47 149.398L1400.6 149.552L1400.72 149.707L1400.83 149.864L1400.95 150.022L1401.07 150.182L1401.18 150.343L1401.3 150.505L1401.41 150.669L1401.52 150.833L1401.63 151L1401.73 151.167L1401.84 151.336L1401.94 151.506L1402.04 151.678L1402.14 151.85L1402.24 152.024L1402.34 152.199L1402.44 152.376L1402.53 152.553L1402.62 152.732L1402.71 152.911L1402.8 153.092L1402.89 153.274L1402.97 153.457L1403.06 153.641L1403.14 153.826L1403.22 154.013L1403.29 154.2L1403.37 154.388L1403.44 154.577L1403.52 154.768L1403.59 154.959L1403.66 155.151L1403.72 155.344L1403.79 155.538L1403.85 155.733L1403.91 155.928L1403.97 156.125L1404.03 156.322L1404.08 156.521L1404.14 156.719L1404.19 156.919L1404.24 157.12L1404.29 157.321L1404.33 157.523L1404.37 157.725L1404.42 157.929L1404.45 158.133L1404.49 158.337L1404.53 158.542L1404.56 158.748L1404.59 158.954L1404.62 159.161L1404.65 159.369L1404.67 159.577L1404.69 159.785L1404.72 159.994L1404.73 160.203L1404.75 160.413L1404.76 160.623L1404.78 160.834L1404.79 161.044L1404.79 161.256L1404.8 161.467L1404.8 161.679L1404.81 161.891L1404.8 162.104L1404.8 162.316L1404.8 162.529L1404.79 162.742L1404.78 162.955L1404.77 163.168L1404.75 163.382L1404.74 163.595L1404.72 163.809L1404.7 164.023L1404.68 164.236L1404.65 164.45L1404.63 164.664L1404.6 164.877L1404.57 165.091L1404.53 165.304L1404.5 165.518L1404.46 165.731L1404.42 165.944L1404.37 166.157L1404.33 166.37L1404.28 166.582L1404.23 166.795L1404.18 167.007L1404.13 167.218L1404.07 167.43L1404.01 167.641L1403.95 167.852L1403.89 168.062L1403.83 168.272L1403.76 168.481L1403.69 168.691L1403.62 168.899L1403.55 169.107L1403.47 169.315L1403.39 169.522L1403.31 169.728L1403.23 169.934L1403.15 170.14L1403.06 170.344L1402.97 170.548L1402.88 170.752L1402.79 170.954L1402.69 171.156L1402.59 171.357L1402.49 171.558L1402.39 171.757L1402.29 171.956L1402.18 172.154L1402.07 172.351L1401.96 172.548L1401.85 172.743L1401.74 172.937L1401.62 173.131L1401.5 173.323L1401.38 173.515L1401.26 173.705L1401.13 173.894L1401 174.083L1400.88 174.27L1400.74 174.456L1400.61 174.641L1400.48 174.825L1400.34 175.008L1400.2 175.189L1400.06 175.37L1399.91 175.549L1399.77 175.727L1399.62 175.903L1399.47 176.078L1399.32 176.252L1399.17 176.425L1399.01 176.596L1398.86 176.766L1398.7 176.934L1398.54 177.101L1398.38 177.267L1398.21 177.431L1398.04 177.594L1397.88 177.755L1397.71 177.914L1397.54 178.072L1397.36 178.229L1397.19 178.384L1397.01 178.537L1396.83 178.689L1396.65 178.839L1396.47 178.987L1396.28 179.133L1396.1 179.278L1395.91 179.422L1395.72 179.563L1395.53 179.703L1395.34 179.841L1395.15 179.977L1394.95 180.111L1394.76 180.244L1394.56 180.375L1394.36 180.503L1394.16 180.63L1393.95 180.755L1393.75 180.878L1393.54 181L1393.34 181.119L1393.13 181.236L1392.92 181.351L1392.71 181.465L1392.49 181.576L1392.28 181.685L1392.06 181.792L1391.85 181.897L1391.63 182L1391.41 182.101L1391.19 182.2L1390.97 182.297L1390.74 182.392L1390.52 182.484L1390.29 182.574L1390.07 182.662L1389.84 182.748L1389.61 182.832L1389.38 182.913L1389.15 182.993L1388.92 183.07L1388.69 183.144L1388.45 183.217L1388.22 183.287L1387.98 183.355L1387.75 183.421L1387.51 183.484L1387.27 183.545L1387.03 183.603L1386.79 183.66L1386.55 183.714L1386.31 183.765L1386.07 183.814L1385.82 183.861L1385.58 183.905L1385.33 183.947L1385.09 183.987L1384.84 184.024L1384.6 184.059L1384.35 184.091L1384.1 184.121L1383.85 184.148L1383.6 184.173L1383.35 184.195L1383.11 184.215L1382.86 184.232L1382.6 184.247L1382.35 184.26L1382.1 184.27L1381.85 184.277L1381.6 184.282L1381.35 184.284L1381.09 184.284L1380.84 184.281L1380.59 184.276L1380.34 184.268L1380.08 184.258L1379.83 184.245L1379.58 184.229L1379.32 184.211L1379.07 184.19L1378.81 184.167L1378.56 184.141L1378.31 184.113L1378.05 184.082L1377.8 184.049L1377.55 184.012L1377.29 183.974L1377.04 183.933L1376.79 183.889L1376.54 183.842L1376.28 183.793L1376.03 183.742L1375.78 183.688L1375.53 183.631L1375.28 183.571L1375.02 183.51L1374.77 183.445L1374.52 183.378L1374.27 183.308L1374.03 183.236L1373.78 183.161L1373.53 183.084L1373.28 183.004L1373.03 182.922L1372.79 182.837L1372.54 182.749L1372.3 182.659L1372.05 182.566L1371.81 182.471L1371.57 182.373L1371.32 182.273L1371.08 182.17L1370.84 182.065L1370.6 181.957L1370.36 181.847L1370.13 181.734L1369.89 181.619L1369.65 181.501L1369.42 181.381L1369.18 181.258L1368.95 181.133L1368.72 181.005L1368.49 180.875L1368.26 180.743L1368.03 180.608L1367.8 180.47L1367.58 180.331L1367.35 180.188L1367.13 180.044L1366.91 179.897L1366.69 179.748L1366.47 179.596L1366.25 179.442L1366.03 179.286L1365.81 179.127L1365.6 178.966L1365.39 178.803L1365.18 178.637L1364.97 178.47L1364.76 178.3L1364.55 178.127L1364.35 177.953L1364.14 177.776L1363.94 177.597L1363.74 177.416L1363.54 177.233L1363.34 177.047L1363.15 176.86L1362.95 176.67L1362.76 176.478L1362.57 176.285L1362.38 176.089L1362.2 175.891L1362.01 175.69L1361.83 175.488L1361.65 175.284L1361.47 175.078L1361.29 174.87L1361.12 174.66L1360.95 174.448L1360.77 174.234L1360.61 174.018L1360.44 173.801L1360.27 173.581L1360.11 173.36L1359.95 173.137L1359.79 172.912L1359.64 172.685L1359.48 172.456L1359.33 172.226L1359.18 171.994L1359.03 171.76L1358.89 171.525L1358.74 171.288L1358.6 171.049L1358.46 170.809L1358.33 170.567L1358.19 170.323L1358.06 170.078L1357.93 169.832L1357.81 169.584L1357.68 169.334L1357.56 169.083L1357.44 168.831L1357.32 168.577L1357.21 168.322L1357.1 168.065L1356.99 167.807L1356.88 167.548L1356.78 167.287L1356.67 167.025L1356.57 166.762L1356.48 166.498L1356.38 166.233L1356.29 165.966L1356.2 165.698L1356.12 165.429L1356.03 165.159L1355.95 164.888L1355.87 164.616L1355.8 164.343L1355.73 164.069L1355.66 163.794L1355.59 163.518L1355.52 163.241L1355.46 162.963L1355.4 162.685L1355.35 162.405L1355.29 162.125L1355.24 161.844L1355.19 161.562L1355.15 161.28L1355.11 160.997L1355.07 160.713L1355.03 160.428L1355 160.143L1354.97 159.858L1354.94 159.572L1354.91 159.285L1354.89 158.998L1354.87 158.71L1354.85 158.422L1354.84 158.134L1354.83 157.845L1354.82 157.556L1354.82 157.266L1354.82 156.977L1354.82 156.687L1354.82 156.397L1354.83 156.106L1354.84 155.816L1354.85 155.525L1354.87 155.234L1354.88 154.943L1354.91 154.652L1354.93 154.361L1354.96 154.07L1354.99 153.779L1355.02 153.489L1355.06 153.198L1355.1 152.907L1355.14 152.617L1355.19 152.327L1355.24 152.037L1355.29 151.747L1355.34 151.457L1355.4 151.168L1355.46 150.879L1355.52 150.591L1355.59 150.303L1355.66 150.015L1355.73 149.728L1355.81 149.441L1355.88 149.155L1355.97 148.87L1356.05 148.585L1356.14 148.301L1356.23 148.017L1356.32 147.734L1356.42 147.452L1356.52 147.17L1356.62 146.889L1356.72 146.609L1356.83 146.33L1356.94 146.052L1357.05 145.774L1357.17 145.498L1357.29 145.222L1357.41 144.948L1357.54 144.674L1357.66 144.402L1357.8 144.13L1357.93 143.86L1358.07 143.591L1358.2 143.322L1358.35 143.056L1358.49 142.79L1358.64 142.526L1358.79 142.262L1358.94 142.001L1359.1 141.74L1359.26 141.481L1359.42 141.223L1359.58 140.967L1359.75 140.712L1359.92 140.459L1360.09 140.207L1360.27 139.956L1360.45 139.708L1360.63 139.46L1360.81 139.215L1361 138.971L1361.18 138.728L1361.38 138.488L1361.57 138.249L1361.77 138.012L1361.96 137.777L1362.17 137.543L1362.37 137.312L1362.58 137.082L1362.78 136.854L1363 136.628L1363.21 136.404L1363.43 136.182L1363.64 135.962L1363.86 135.744L1364.09 135.528L1364.31 135.314L1364.54 135.102L1364.77 134.892L1365 134.685L1365.24 134.479L1365.48 134.276L1365.72 134.075L1365.96 133.877L1366.2 133.68L1366.45 133.486L1366.7 133.294L1366.95 133.105L1367.2 132.917L1367.45 132.733L1367.71 132.55L1367.97 132.371L1368.23 132.193L1368.49 132.018L1368.75 131.846L1369.02 131.676L1369.29 131.508L1369.56 131.343L1369.83 131.181L1370.11 131.022L1370.38 130.865L1370.66 130.71L1370.94 130.558L1371.22 130.409L1371.5 130.263L1371.79 130.119L1372.07 129.979L1372.36 129.84L1372.65 129.705L1372.94 129.573L1373.23 129.443L1373.53 129.316L1373.82 129.192L1374.12 129.071L1374.42 128.953L1374.72 128.837L1375.02 128.725L1375.32 128.615L1375.63 128.509L1375.93 128.405L1376.24 128.305L1376.55 128.207L1376.86 128.112L1377.17 128.021L1377.48 127.932L1377.79 127.847L1378.1 127.764L1378.42 127.685L1378.73 127.609L1379.05 127.536L1379.37 127.465L1379.69 127.399L1380.01 127.335L1380.33 127.274L1380.65 127.217L1380.97 127.162L1381.29 127.111L1381.62 127.064L1381.94 127.019L1382.27 126.977L1382.59 126.939L1382.92 126.904L1383.24 126.872L1383.57 126.844L1383.9 126.818L1384.23 126.796L1384.56 126.778L1384.89 126.762L1385.22 126.75L1385.55 126.741L1385.88 126.736L1386.21 126.733L1386.54 126.734L1386.87 126.739L1387.2 126.746L1387.53 126.757L1387.86 126.772L1388.19 126.789L1388.53 126.81L1388.86 126.834L1389.19 126.862L1389.52 126.893L1389.85 126.927L1390.18 126.965L1390.52 127.006L1390.85 127.05L1391.18 127.098L1391.51 127.149L1391.84 127.203L1392.17 127.261L1392.5 127.322L1392.83 127.387L1393.16 127.454L1393.49 127.525L1393.81 127.6L1394.14 127.678L1394.47 127.759L1394.79 127.843L1395.12 127.931L1395.44 128.022L1395.77 128.116L1396.09 128.214L1396.42 128.315L1396.74 128.419L1397.06 128.527L1397.38 128.638L1397.7 128.752L1398.02 128.869L1398.33 128.99L1398.65 129.114L1398.97 129.241L1399.28 129.372L1399.59 129.505L1399.91 129.642L1400.22 129.782L1400.53 129.926L1400.84 130.072L1401.14 130.222L1401.45 130.375L1401.75 130.531L1402.06 130.69L1402.36 130.852L1402.66 131.018L1402.96 131.187L1403.26 131.358L1403.55 131.533L1403.85 131.711L1404.14 131.892L1404.43 132.076L1404.72 132.263L1405.01 132.453L1405.29 132.646L1405.58 132.842L1405.86 133.041L1406.14 133.243L1406.42 133.448L1406.7 133.656L1406.97 133.867L1407.25 134.08L1407.52 134.297L1407.79 134.516L1408.05 134.739L1408.32 134.964L1408.58 135.192L1408.84 135.422L1409.1 135.656L1409.36 135.892L1409.61 136.131L1409.86 136.372L1410.11 136.617L1410.36 136.864L1410.6 137.113L1410.85 137.365L1411.09 137.62L1411.32 137.877L1411.56 138.137L1411.79 138.4L1412.02 138.665L1412.25 138.932L1412.48 139.202L1412.7 139.474L1412.92 139.749L1413.14 140.026L1413.35 140.306L1413.56 140.587L1413.77 140.871L1413.98 141.158L1414.18 141.446L1414.39 141.737L1414.58 142.03L1414.78 142.326L1414.97 142.623L1415.16 142.923L1415.35 143.224L1415.53 143.528L1415.71 143.834L1415.89 144.141L1416.07 144.451L1416.24 144.763L1416.41 145.076L1416.57 145.392L1416.74 145.709L1416.9 146.028L1417.05 146.349L1417.21 146.672L1417.36 146.997L1417.5 147.323L1417.65 147.651L1417.79 147.98L1417.93 148.311L1418.06 148.644L1418.19 148.979L1418.32 149.314L1418.44 149.652L1418.57 149.991L1418.68 150.331L1418.8 150.672L1418.91 151.015L1419.02 151.36L1419.12 151.705L1419.22 152.052L1419.32 152.4L1419.41 152.75L1419.5 153.1L1419.59 153.452L1419.67 153.804L1419.75 154.158L1419.83 154.513L1419.9 154.869L1419.97 155.225L1420.04 155.583L1420.1 155.942L1420.16 156.301L1420.21 156.661L1420.26 157.022L1420.31 157.384L1420.35 157.746L1420.39 158.109L1420.43 158.473L1420.46 158.837L1420.49 159.202L1420.52 159.567L1420.54 159.933L1420.56 160.3L1420.57 160.666L1420.58 161.034L1420.59 161.401L1420.6 161.769L1420.6 162.137L1420.59 162.505L1420.58 162.874L1420.57 163.242L1420.56 163.611L1420.54 163.98L1420.52 164.349L1420.49 164.718L1420.46 165.086L1420.43 165.455L1420.39 165.824L1420.35 166.192L1420.3 166.561L1420.25 166.929L1420.2 167.297L1420.14 167.664L1420.08 168.031L1420.02 168.398L1419.95 168.765L1419.88 169.131L1419.81 169.496L1419.73 169.861L1419.65 170.226L1419.56 170.59L1419.47 170.953L1419.38 171.315L1419.28 171.677L1419.18 172.038L1419.07 172.398L1418.96 172.758L1418.85 173.116L1418.74 173.474L1418.62 173.831L1418.49 174.187L1418.37 174.541L1418.24 174.895L1418.1 175.248L1417.96 175.599L1417.82 175.949L1417.68 176.299L1417.53 176.646L1417.37 176.993L1417.22 177.338L1417.06 177.682L1416.9 178.025L1416.73 178.366L1416.56 178.706L1416.39 179.044L1416.21 179.381L1416.03 179.716L1415.84 180.049L1415.65 180.381L1415.46 180.711L1415.27 181.04L1415.07 181.366L1414.87 181.691L1414.66 182.014L1414.45 182.336L1414.24 182.655L1414.03 182.972L1413.81 183.288L1413.59 183.601L1413.36 183.913L1413.13 184.222L1412.9 184.53L1412.67 184.835L1412.43 185.138L1412.19 185.439L1411.94 185.737L1411.7 186.034L1411.44 186.328L1411.19 186.619L1410.93 186.909L1410.67 187.196L1410.41 187.48L1410.14 187.762L1409.87 188.042L1409.6 188.319L1409.33 188.593L1409.05 188.865L1408.77 189.134L1408.48 189.401L1408.2 189.665L1407.91 189.926L1407.62 190.185L1407.32 190.44L1407.02 190.693L1406.72 190.943L1406.42 191.191L1406.11 191.435L1405.8 191.676L1405.49 191.915L1405.18 192.151L1404.86 192.383L1404.54 192.613L1404.22 192.839L1403.9 193.062L1403.57 193.283L1403.24 193.5L1402.91 193.714L1402.58 193.925L1402.24 194.132L1401.9 194.337L1401.56 194.538L1401.22 194.736L1400.87 194.93L1400.53 195.121L1400.18 195.309L1399.83 195.493L1399.47 195.674L1399.12 195.852L1398.76 196.026L1398.4 196.197L1398.04 196.364L1397.68 196.528L1397.31 196.688L1396.94 196.845L1396.57 196.998L1396.2 197.147L1395.83 197.293L1395.46 197.435L1395.08 197.574L1394.7 197.708L1394.33 197.84L1393.95 197.967L1393.56 198.091L1393.18 198.211L1392.8 198.327L1392.41 198.439L1392.02 198.548L1391.63 198.653L1391.24 198.754L1390.85 198.851L1390.46 198.945L1390.07 199.034L1389.67 199.12L1389.27 199.201L1388.88 199.279L1388.48 199.353L1388.08 199.423L1387.68 199.489L1387.28 199.551L1386.88 199.609L1386.48 199.663L1386.07 199.713L1385.67 199.759L1385.26 199.801L1384.86 199.839L1384.45 199.874L1384.05 199.904L1383.64 199.93L1383.23 199.951L1382.82 199.969L1382.41 199.983L1382.01 199.993L1381.6 199.998L1381.19 200L1380.78 199.997L1380.37 199.991L1379.96 199.98L1379.55 199.965L1379.14 199.946L1378.73 199.923L1378.32 199.896L1377.91 199.865L1377.5 199.83L1377.09 199.79L1376.68 199.747L1376.27 199.699L1375.86 199.647L1375.45 199.591L1375.04 199.531L1374.63 199.467L1374.22 199.398L1373.82 199.326L1373.41 199.25L1373 199.169L1372.6 199.084L1372.19 198.995L1371.79 198.902L1371.38 198.805L1370.98 198.704L1370.58 198.599L1370.18 198.49L1369.77 198.377L1369.38 198.259L1368.98 198.138L1368.58 198.012L1368.18 197.883L1367.79 197.749L1367.39 197.611L1367 197.47L1366.61 197.324L1366.22 197.175L1365.83 197.021L1365.44 196.863L1365.05 196.702L1364.67 196.536L1364.28 196.367L1363.9 196.194L1363.52 196.016L1363.14 195.835L1362.76 195.65L1362.39 195.461L1362.01 195.269L1361.64 195.072L1361.27 194.872L1360.9 194.667L1360.53 194.459L1360.17 194.247L1359.8 194.032L1359.44 193.812L1359.08 193.589L1358.73 193.363L1358.37 193.132L1358.02 192.898L1357.67 192.66L1357.32 192.419L1356.97 192.174L1356.63 191.925L1356.29 191.673L1355.95 191.417L1355.61 191.158L1355.28 190.895L1354.94 190.629L1354.61 190.359L1354.29 190.086L1353.96 189.81L1353.64 189.53L1353.32 189.246L1353.01 188.96L1352.69 188.67L1352.38 188.377L1352.07 188.08L1351.77 187.78L1351.47 187.477L1351.17 187.171L1350.87 186.862L1350.58 186.55L1350.28 186.234L1350 185.915L1349.71 185.594L1349.43 185.269L1349.15 184.942L1348.88 184.611L1348.61 184.278L1348.34 183.941L1348.07 183.602L1347.81 183.26L1347.55 182.915L1347.29 182.567L1347.04 182.217L1346.79 181.864L1346.55 181.508L1346.31 181.15L1346.07 180.789L1345.83 180.425L1345.6 180.059L1345.37 179.69L1345.15 179.319L1344.93 178.946L1344.71 178.57L1344.5 178.192L1344.29 177.811L1344.08 177.428L1343.88 177.043L1343.68 176.655L1343.49 176.266L1343.3 175.874L1343.11 175.48L1342.93 175.084L1342.75 174.687L1342.57 174.287L1342.4 173.885L1342.24 173.481L1342.07 173.075L1341.91 172.668L1341.76 172.258L1341.61 171.847L1341.46 171.435L1341.32 171.02L1341.18 170.604L1341.04 170.186L1340.91 169.767L1340.79 169.346L1340.66 168.924L1340.55 168.5L1340.43 168.075L1340.32 167.649L1340.22 167.221L1340.12 166.792L1340.02 166.361L1339.93 165.93L1339.84 165.497L1339.76 165.064L1339.68 164.629L1339.6 164.193L1339.53 163.756L1339.46 163.318L1339.4 162.88L1339.34 162.44L1339.29 162L1339.24 161.559L1339.2 161.117L1339.16 160.675L1339.12 160.232L1339.09 159.788L1339.07 159.344L1339.04 158.9L1339.03 158.455L1339.01 158.009L1339 157.563L1339 157.117L1339 156.671L1339.01 156.224L1339.01 155.777L1339.03 155.33L1339.05 154.883L1339.07 154.436L1339.1 153.989L1339.13 153.542L1339.17 153.095L1339.21 152.648L1339.25 152.202L1339.3 151.755L1339.36 151.309L1339.42 150.863L1339.48 150.418L1339.55 149.973L1339.62 149.528L1339.7 149.084L1339.78 148.641L1339.87 148.198L1339.96 147.755L1340.05 147.314L1340.15 146.873L1340.26 146.433L1340.37 145.993L1340.48 145.555L1340.6 145.117L1340.72 144.681L1340.85 144.245L1340.98 143.811L1341.11 143.377L1341.25 142.945L1341.4 142.514L1341.55 142.084L1341.7 141.655L1341.86 141.228L1342.02 140.802L1342.19 140.378L1342.36 139.955L1342.53 139.533L1342.71 139.113L1342.9 138.694L1343.08 138.278L1343.28 137.862L1343.47 137.449L1343.68 137.037L1343.88 136.627L1344.09 136.219L1344.3 135.813L1344.52 135.409L1344.74 135.007L1344.97 134.607L1345.2 134.208L1345.44 133.812L1345.67 133.418L1345.92 133.027L1346.16 132.637L1346.42 132.25L1346.67 131.865L1346.93 131.482L1347.19 131.102L1347.46 130.725L1347.73 130.349L1348.01 129.977L1348.28 129.606L1348.57 129.239L1348.85 128.874L1349.14 128.512L1349.44 128.152L1349.74 127.795L1350.04 127.441L1350.34 127.09L1350.65 126.742L1350.96 126.397L1351.28 126.054L1351.6 125.715L1351.92 125.378L1352.25 125.045L1352.58 124.715L1352.92 124.388L1353.25 124.064L1353.6 123.743L1353.94 123.426L1354.29 123.112L1354.64 122.801L1354.99 122.493L1355.35 122.189L1355.71 121.888L1356.08 121.591L1356.44 121.297L1356.81 121.007L1357.19 120.72L1357.56 120.437L1357.94 120.158L1358.33 119.882L1358.71 119.61L1359.1 119.342L1359.49 119.077L1359.89 118.816L1360.28 118.559L1360.68 118.306L1361.09 118.056L1361.49 117.811L1361.9 117.569L1362.31 117.332L1362.72 117.098L1363.14 116.869L1363.56 116.643L1363.98 116.422L1364.4 116.204L1364.83 115.991L1365.26 115.782L1365.69 115.577L1366.12 115.376L1366.55 115.18L1366.99 114.987L1367.43 114.799L1367.87 114.616L1368.32 114.436L1368.76 114.261L1369.21 114.09L1369.66 113.924L1370.11 113.762L1370.56 113.605L1371.02 113.451L1371.47 113.303L1371.93 113.159L1372.39 113.019L1372.85 112.884L1373.32 112.753L1373.78 112.627L1374.25 112.506L1374.72 112.389L1375.18 112.277L1375.65 112.169L1376.13 112.067L1376.6 111.968L1377.07 111.875L1377.55 111.786L1378.03 111.701L1378.5 111.622L1378.98 111.547L1379.46 111.477L1379.94 111.412L1380.42 111.351L1380.91 111.296L1381.39 111.245L1381.87 111.198L1382.36 111.157L1382.84 111.12L1383.33 111.089L1383.81 111.062L1384.3 111.04L1384.79 111.023L1385.28 111.01L1385.76 111.003L1386.25 111L1386.74 111.002L1387.23 111.009L1387.72 111.021L1388.21 111.038L1388.7 111.06L1389.19 111.086L1389.67 111.118L1390.16 111.154L1390.65 111.196L1391.14 111.242L1391.63 111.293L1392.12 111.349L1392.6 111.41L1393.09 111.476L1393.58 111.546L1394.07 111.622L1394.55 111.702L1395.04 111.788L1395.52 111.878L1396.01 111.973L1396.49 112.073L1396.97 112.178L1397.45 112.287L1397.93 112.402L1398.41 112.521L1398.89 112.645L1399.37 112.775L1399.85 112.908L1400.32 113.047L1400.8 113.191L1401.27 113.339L1401.74 113.492L1402.21 113.65L1402.68 113.812L1403.15 113.98L1403.62 114.152L1404.08 114.329L1404.54 114.51L1405 114.697L1405.46 114.888L1405.92 115.083L1406.38 115.283L1406.83 115.488L1407.29 115.698L1407.74 115.912L1408.19 116.131L1408.63 116.354L1409.08 116.582L1409.52 116.815L1409.96 117.051L1410.4 117.293L1410.84 117.539L1411.27 117.789L1411.7 118.044L1412.13 118.303L1412.56 118.567L1412.98 118.835L1413.4 119.107L1413.82 119.384L1414.24 119.665L1414.65 119.95L1415.06 120.24L1415.47 120.534L1415.88 120.832L1416.28 121.134L1416.68 121.44L1417.08 121.751L1417.47 122.065L1417.86 122.384L1418.25 122.706L1418.64 123.033L1419.02 123.364L1419.4 123.698L1419.77 124.037L1420.15 124.379L1420.51 124.726L1420.88 125.076L1421.24 125.43L1421.6 125.788L1421.96 126.149L1422.31 126.514L1422.66 126.883L1423 127.256L1423.34 127.632L1423.68 128.011L1424.01 128.394L1424.35 128.781L1424.67 129.171L1424.99 129.565L1425.31 129.962L1425.63 130.362L1425.94 130.766L1426.25 131.173L1426.55 131.583L1426.85 131.996L1427.14 132.413L1427.44 132.833L1427.72 133.255L1428.01 133.681L1428.28 134.11L1428.56 134.542L1428.83 134.976L1429.09 135.414L1429.36 135.854L1429.61 136.298L1429.87 136.744L1430.12 137.192L1430.36 137.644L1430.6 138.098L1430.83 138.554L1431.07 139.014L1431.29 139.475L1431.51 139.939L1431.73 140.406L1431.94 140.875L1432.15 141.346L1432.35 141.82L1432.55 142.295L1432.75 142.773L1432.94 143.253L1433.12 143.736L1433.3 144.22L1433.47 144.706L1433.64 145.194L1433.81 145.684L1433.97 146.176L1434.12 146.67L1434.27 147.166L1434.42 147.663L1434.56 148.162L1434.7 148.662L1434.83 149.164L1434.95 149.668L1435.07 150.173L1435.19 150.679L1435.3 151.187L1435.4 151.696L1435.5 152.207L1435.6 152.719L1435.69 153.231L1435.77 153.745L1435.85 154.26L1435.93 154.776L1436 155.293L1436.06 155.811L1436.12 156.33L1436.18 156.85L1436.22 157.37L1436.27 157.891L1436.31 158.413L1436.34 158.935" stroke="#353638" stroke-width="2"/>
<path d="M93.5107 212.932L93.5259 212.963L93.5408 212.994L93.5553 213.026L93.5696 213.058L93.5835 213.09L93.5971 213.123L93.6103 213.156L93.6233 213.189L93.6358 213.223L93.6481 213.257L93.6599 213.291L93.6715 213.325L93.6826 213.36L93.6934 213.395L93.7039 213.43L93.7139 213.465L93.7236 213.501L93.7329 213.537L93.7418 213.573L93.7503 213.609L93.7585 213.646L93.7662 213.683L93.7736 213.72L93.7805 213.757L93.787 213.795L93.7932 213.832L93.7989 213.87L93.8042 213.909L93.809 213.947L93.8135 213.985L93.8175 214.024L93.8211 214.063L93.8242 214.102L93.8269 214.142L93.8292 214.181L93.831 214.221L93.8324 214.26L93.8333 214.3L93.8338 214.34L93.8338 214.381L93.8334 214.421L93.8325 214.462L93.8311 214.502L93.8293 214.543L93.827 214.584L93.8242 214.625L93.821 214.666L93.8173 214.707L93.8131 214.749L93.8084 214.79L93.8032 214.831L93.7976 214.873L93.7914 214.915L93.7848 214.956L93.7777 214.998L93.77 215.04L93.7619 215.082L93.7533 215.124L93.7442 215.166L93.7346 215.208L93.7245 215.25L93.7138 215.292L93.7027 215.334L93.6911 215.376L93.6789 215.418L93.6663 215.46L93.6531 215.502L93.6395 215.544L93.6253 215.587L93.6106 215.629L93.5954 215.671L93.5796 215.712L93.5634 215.754L93.5466 215.796L93.5293 215.838L93.5115 215.88L93.4932 215.921L93.4744 215.963L93.455 216.005L93.4351 216.046L93.4148 216.087L93.3938 216.128L93.3724 216.17L93.3504 216.211L93.328 216.251L93.305 216.292L93.2815 216.333L93.2574 216.373L93.2329 216.414L93.2078 216.454L93.1822 216.494L93.1561 216.534L93.1295 216.573L93.1024 216.613L93.0747 216.652L93.0466 216.691L93.0179 216.73L92.9887 216.769L92.9591 216.807L92.9289 216.846L92.8981 216.884L92.8669 216.922L92.8352 216.959L92.803 216.997L92.7703 217.034L92.7371 217.071L92.7033 217.107L92.6691 217.143L92.6344 217.179L92.5992 217.215L92.5635 217.251L92.5274 217.286L92.4907 217.321L92.4536 217.355L92.416 217.39L92.3779 217.424L92.3393 217.457L92.3002 217.49L92.2607 217.523L92.2207 217.556L92.1803 217.588L92.1394 217.62L92.098 217.652L92.0562 217.683L92.0139 217.714L91.9712 217.744L91.928 217.774L91.8844 217.804L91.8404 217.833L91.7959 217.862L91.751 217.89L91.7057 217.918L91.6599 217.946L91.6137 217.973L91.5671 218L91.5201 218.026L91.4727 218.052L91.4249 218.077L91.3766 218.102L91.328 218.127L91.279 218.151L91.2296 218.174L91.1798 218.197L91.1297 218.22L91.0791 218.242L91.0282 218.263L90.977 218.285L90.9253 218.305L90.8734 218.325L90.821 218.345L90.7684 218.364L90.7154 218.382L90.662 218.4L90.6084 218.418L90.5544 218.435L90.5 218.451L90.4454 218.467L90.3905 218.482L90.3352 218.497L90.2797 218.511L90.2239 218.525L90.1678 218.538L90.1114 218.55L90.0547 218.562L89.9978 218.573L89.9406 218.584L89.8832 218.594L89.8255 218.603L89.7675 218.612L89.7094 218.621L89.651 218.628L89.5923 218.635L89.5335 218.642L89.4744 218.648L89.4151 218.653L89.3557 218.657L89.296 218.661L89.2362 218.665L89.1761 218.667L89.1159 218.669L89.0556 218.671L88.9951 218.672L88.9344 218.672L88.8735 218.671L88.8126 218.67L88.7515 218.668L88.6903 218.665L88.6289 218.662L88.5675 218.658L88.5059 218.654L88.4443 218.649L88.3825 218.643L88.3207 218.636L88.2588 218.629L88.1968 218.621L88.1348 218.612L88.0727 218.603L88.0106 218.593L87.9484 218.582L87.8862 218.571L87.824 218.559L87.7618 218.546L87.6995 218.533L87.6373 218.519L87.575 218.504L87.5128 218.488L87.4506 218.472L87.3884 218.455L87.3263 218.437L87.2642 218.419L87.2021 218.4L87.1402 218.38L87.0783 218.36L87.0164 218.339L86.9547 218.317L86.893 218.294L86.8314 218.271L86.77 218.247L86.7087 218.222L86.6474 218.197L86.5864 218.17L86.5254 218.144L86.4646 218.116L86.404 218.088L86.3435 218.059L86.2832 218.029L86.2231 217.999L86.1631 217.968L86.1034 217.936L86.0438 217.903L85.9845 217.87L85.9254 217.836L85.8665 217.802L85.8078 217.766L85.7494 217.73L85.6913 217.694L85.6334 217.656L85.5757 217.618L85.5184 217.579L85.4613 217.54L85.4045 217.5L85.348 217.459L85.2918 217.417L85.236 217.375L85.1804 217.332L85.1252 217.288L85.0703 217.244L85.0158 217.199L84.9616 217.154L84.9078 217.107L84.8544 217.06L84.8013 217.013L84.7486 216.964L84.6963 216.916L84.6444 216.866L84.593 216.816L84.5419 216.765L84.4913 216.713L84.4411 216.661L84.3913 216.608L84.342 216.555L84.2931 216.501L84.2447 216.446L84.1968 216.391L84.1493 216.335L84.1023 216.278L84.0558 216.221L84.0098 216.163L83.9644 216.105L83.9194 216.046L83.875 215.987L83.831 215.926L83.7877 215.866L83.7448 215.804L83.7025 215.742L83.6608 215.68L83.6196 215.617L83.579 215.553L83.539 215.489L83.4996 215.425L83.4607 215.36L83.4225 215.294L83.3849 215.228L83.3478 215.161L83.3114 215.093L83.2756 215.026L83.2405 214.957L83.206 214.888L83.1721 214.819L83.1389 214.749L83.1063 214.679L83.0744 214.608L83.0432 214.537L83.0126 214.465L82.9827 214.393L82.9535 214.32L82.925 214.247L82.8972 214.174L82.8702 214.1L82.8438 214.026L82.8181 213.951L82.7932 213.876L82.7689 213.8L82.7455 213.724L82.7227 213.648L82.7007 213.571L82.6795 213.494L82.659 213.416L82.6392 213.339L82.6203 213.26L82.6021 213.182L82.5846 213.103L82.568 213.024L82.5521 212.944L82.537 212.865L82.5227 212.784L82.5093 212.704L82.4966 212.623L82.4847 212.542L82.4736 212.461L82.4634 212.379L82.4539 212.298L82.4453 212.216L82.4375 212.133L82.4306 212.051L82.4244 211.968L82.4192 211.885L82.4147 211.802L82.4111 211.719L82.4084 211.635L82.4065 211.552L82.4054 211.468L82.4052 211.384L82.4059 211.3L82.4075 211.215L82.4099 211.131L82.4131 211.046L82.4173 210.962L82.4223 210.877L82.4282 210.792L82.435 210.707L82.4427 210.622L82.4512 210.537L82.4606 210.452L82.471 210.367L82.4822 210.281L82.4943 210.196L82.5073 210.111L82.5212 210.026L82.536 209.94L82.5517 209.855L82.5682 209.77L82.5857 209.684L82.6041 209.599L82.6234 209.514L82.6436 209.429L82.6647 209.344L82.6867 209.259L82.7096 209.174L82.7334 209.089L82.7582 209.005L82.7838 208.92L82.8103 208.836L82.8378 208.751L82.8661 208.667L82.8954 208.583L82.9256 208.499L82.9566 208.416L82.9886 208.332L83.0215 208.249L83.0553 208.166L83.09 208.083L83.1256 208.001L83.1621 207.918L83.1995 207.836L83.2378 207.754L83.2769 207.672L83.317 207.591L83.358 207.51L83.3999 207.429L83.4427 207.349L83.4863 207.269L83.5309 207.189L83.5763 207.109L83.6227 207.03L83.6699 206.951L83.7179 206.873L83.7669 206.795L83.8167 206.717L83.8674 206.64L83.919 206.563L83.9714 206.487L84.0247 206.411L84.0789 206.335L84.1339 206.26L84.1898 206.185L84.2465 206.111L84.3041 206.037L84.3625 205.964L84.4217 205.891L84.4818 205.819L84.5427 205.747L84.6044 205.676L84.667 205.605L84.7304 205.535L84.7946 205.465L84.8595 205.396L84.9253 205.328L84.9919 205.26L85.0593 205.192L85.1275 205.126L85.1965 205.059L85.2662 204.994L85.3367 204.929L85.408 204.865L85.4801 204.801L85.5529 204.738L85.6264 204.676L85.7008 204.614L85.7758 204.553L85.8516 204.493L85.9281 204.433L86.0053 204.374L86.0833 204.316L86.1619 204.259L86.2413 204.202L86.3213 204.146L86.4021 204.091L86.4835 204.036L86.5656 203.982L86.6484 203.929L86.7318 203.877L86.8159 203.826L86.9006 203.775L86.986 203.725L87.072 203.676L87.1586 203.628L87.2459 203.581L87.3337 203.534L87.4222 203.489L87.5112 203.444L87.6009 203.4L87.6911 203.357L87.7819 203.315L87.8732 203.273L87.9651 203.233L88.0576 203.193L88.1506 203.155L88.2441 203.117L88.3381 203.08L88.4326 203.044L88.5277 203.009L88.6232 202.975L88.7192 202.942L88.8157 202.91L88.9127 202.878L89.0101 202.848L89.1079 202.819L89.2062 202.79L89.305 202.763L89.4041 202.737L89.5037 202.711L89.6036 202.687L89.704 202.663L89.8047 202.641L89.9058 202.62L90.0072 202.599L90.109 202.58L90.2112 202.561L90.3137 202.544L90.4165 202.528L90.5196 202.513L90.623 202.498L90.7266 202.485L90.8306 202.473L90.9349 202.462L91.0393 202.452L91.1441 202.443L91.2491 202.435L91.3543 202.429L91.4597 202.423L91.5653 202.418L91.6711 202.415L91.7771 202.413L91.8833 202.411L91.9896 202.411L92.0961 202.412L92.2027 202.414L92.3094 202.417L92.4163 202.421L92.5232 202.426L92.6303 202.433L92.7374 202.44L92.8446 202.449L92.9519 202.458L93.0592 202.469L93.1665 202.481L93.2739 202.494L93.3813 202.509L93.4886 202.524L93.596 202.54L93.7034 202.558L93.8107 202.577L93.9179 202.597L94.0252 202.618L94.1323 202.64L94.2394 202.663L94.3463 202.688L94.4532 202.713L94.56 202.74L94.6666 202.768L94.7731 202.797L94.8794 202.827L94.9856 202.858L95.0916 202.89L95.1974 202.924L95.303 202.958L95.4084 202.994L95.5135 203.031L95.6185 203.069L95.7232 203.108L95.8276 203.149L95.9318 203.19L96.0357 203.233L96.1392 203.276L96.2425 203.321L96.3455 203.367L96.4481 203.414L96.5504 203.462L96.6524 203.512L96.7539 203.562L96.8551 203.613L96.9559 203.666L97.0563 203.72L97.1563 203.775L97.2559 203.831L97.355 203.888L97.4537 203.946L97.5519 204.005L97.6497 204.065L97.7469 204.127L97.8437 204.189L97.94 204.253L98.0357 204.317L98.1309 204.383L98.2256 204.45L98.3197 204.517L98.4133 204.586L98.5063 204.656L98.5986 204.727L98.6904 204.799L98.7816 204.872L98.8722 204.946L98.9621 205.021L99.0514 205.097L99.14 205.174L99.228 205.253L99.3152 205.332L99.4018 205.412L99.4877 205.493L99.5729 205.575L99.6574 205.658L99.7411 205.742L99.8241 205.827L99.9063 205.913L99.9878 206L100.068 206.088L100.148 206.177L100.227 206.266L100.306 206.357L100.383 206.449L100.46 206.541L100.536 206.635L100.611 206.729L100.685 206.824L100.758 206.92L100.83 207.017L100.902 207.115L100.972 207.213L101.042 207.313L101.111 207.413L101.179 207.514L101.246 207.616L101.312 207.719L101.377 207.823L101.441 207.927L101.504 208.032L101.566 208.138L101.627 208.245L101.687 208.352L101.746 208.46L101.804 208.569L101.861 208.679L101.917 208.789L101.972 208.9L102.026 209.012L102.079 209.124L102.13 209.238L102.181 209.351L102.231 209.466L102.279 209.581L102.326 209.697L102.373 209.813L102.418 209.93L102.462 210.047L102.505 210.166L102.547 210.284L102.587 210.404L102.627 210.523L102.665 210.644L102.702 210.765L102.738 210.886L102.773 211.008L102.807 211.131L102.839 211.254L102.87 211.377L102.9 211.501L102.929 211.625L102.957 211.75L102.983 211.875L103.008 212.001L103.032 212.127L103.055 212.253L103.076 212.38L103.096 212.507L103.115 212.635L103.133 212.763L103.149 212.891L103.164 213.019L103.178 213.148L103.191 213.277L103.202 213.406L103.212 213.536L103.221 213.666L103.228 213.796L103.234 213.926L103.239 214.057L103.243 214.188L103.245 214.319L103.246 214.45L103.245 214.581L103.243 214.712L103.24 214.844L103.236 214.975L103.23 215.107L103.223 215.239L103.215 215.371L103.205 215.503L103.194 215.635L103.182 215.767L103.168 215.899L103.153 216.031L103.136 216.163L103.119 216.295L103.099 216.427L103.079 216.559L103.057 216.691L103.034 216.822L103.009 216.954L102.984 217.086L102.956 217.217L102.928 217.349L102.898 217.48L102.867 217.611L102.834 217.742L102.8 217.872L102.765 218.003L102.728 218.133L102.69 218.263L102.651 218.393L102.61 218.522L102.568 218.651L102.525 218.78L102.48 218.909L102.434 219.037L102.386 219.165L102.338 219.293L102.288 219.42L102.236 219.547L102.183 219.673L102.129 219.8L102.074 219.925L102.017 220.05L101.959 220.175L101.9 220.3L101.839 220.423L101.777 220.547L101.714 220.67L101.65 220.792L101.584 220.914L101.517 221.035L101.448 221.156L101.378 221.276L101.307 221.395L101.235 221.514L101.162 221.633L101.087 221.75L101.011 221.867L100.934 221.984L100.855 222.099L100.775 222.215L100.694 222.329L100.612 222.443L100.528 222.555L100.444 222.668L100.358 222.779L100.271 222.89L100.182 223L100.093 223.109L100.002 223.217L99.9101 223.324L99.817 223.431L99.7228 223.537L99.6274 223.642L99.5309 223.746L99.4332 223.849L99.3344 223.951L99.2344 224.053L99.1333 224.153L99.0312 224.253L98.9279 224.352L98.8235 224.449L98.7181 224.546L98.6115 224.642L98.5039 224.736L98.3952 224.83L98.2855 224.923L98.1748 225.014L98.063 225.105L97.9502 225.195L97.8364 225.283L97.7215 225.37L97.6057 225.457L97.4889 225.542L97.3712 225.626L97.2524 225.709L97.1327 225.791L97.0121 225.872L96.8906 225.952L96.7681 226.03L96.6447 226.107L96.5204 226.183L96.3953 226.258L96.2692 226.332L96.1423 226.404L96.0146 226.476L95.886 226.546L95.7566 226.614L95.6263 226.682L95.4953 226.748L95.3634 226.813L95.2308 226.877L95.0974 226.939L94.9633 227L94.8284 227.06L94.6927 227.118L94.5564 227.176L94.4193 227.231L94.2816 227.286L94.1432 227.339L94.0041 227.391L93.8643 227.441L93.724 227.49L93.5829 227.537L93.4413 227.584L93.2991 227.628L93.1563 227.672L93.0129 227.714L92.8689 227.754L92.7244 227.793L92.5794 227.831L92.4339 227.867L92.2878 227.902L92.1413 227.935L91.9943 227.967L91.8468 227.998L91.6989 228.027L91.5505 228.054L91.4018 228.08L91.2526 228.104L91.1031 228.127L90.9531 228.149L90.8028 228.169L90.6522 228.187L90.5012 228.204L90.35 228.219L90.1984 228.233L90.0466 228.245L89.8944 228.256L89.7421 228.265L89.5895 228.273L89.4366 228.279L89.2836 228.284L89.1304 228.287L88.977 228.288L88.8234 228.288L88.6697 228.286L88.5159 228.283L88.3619 228.278L88.2079 228.272L88.0538 228.264L87.8996 228.254L87.7454 228.243L87.5911 228.23L87.4368 228.216L87.2825 228.2L87.1283 228.182L86.974 228.163L86.8198 228.142L86.6657 228.12L86.5117 228.096L86.3577 228.071L86.2039 228.044L86.0502 228.015L85.8966 227.985L85.7432 227.953L85.59 227.919L85.437 227.884L85.2841 227.848L85.1315 227.809L84.9792 227.769L84.8271 227.728L84.6753 227.685L84.5237 227.64L84.3725 227.594L84.2216 227.546L84.0711 227.497L83.9209 227.446L83.771 227.393L83.6216 227.339L83.4725 227.284L83.3239 227.226L83.1758 227.168L83.028 227.107L82.8808 227.045L82.734 226.982L82.5877 226.917L82.442 226.85L82.2968 226.782L82.1521 226.712L82.008 226.641L81.8645 226.568L81.7216 226.494L81.5793 226.418L81.4376 226.341L81.2966 226.262L81.1562 226.181L81.0166 226.099L80.8776 226.016L80.7393 225.931L80.6017 225.845L80.4649 225.757L80.3289 225.668L80.1936 225.577L80.0591 225.485L79.9254 225.391L79.7925 225.296L79.6605 225.199L79.5293 225.101L79.3989 225.002L79.2695 224.901L79.1409 224.798L79.0133 224.695L78.8865 224.59L78.7607 224.483L78.6359 224.375L78.512 224.266L78.3891 224.156L78.2673 224.044L78.1464 223.93L78.0265 223.816L77.9077 223.7L77.79 223.583L77.6733 223.464L77.5577 223.344L77.4432 223.223L77.3298 223.101L77.2175 222.977L77.1063 222.852L76.9964 222.726L76.8875 222.599L76.7799 222.47L76.6734 222.34L76.5682 222.21L76.4642 222.077L76.3614 221.944L76.2598 221.809L76.1595 221.674L76.0605 221.537L75.9628 221.399L75.8663 221.26L75.7712 221.12L75.6773 220.979L75.5848 220.836L75.4937 220.693L75.4039 220.548L75.3154 220.403L75.2284 220.256L75.1427 220.109L75.0585 219.96L74.9756 219.811L74.8942 219.661L74.8142 219.509L74.7356 219.357L74.6585 219.203L74.5829 219.049L74.5087 218.894L74.4361 218.738L74.3649 218.581L74.2952 218.423L74.2271 218.265L74.1605 218.105L74.0954 217.945L74.0318 217.784L73.9698 217.622L73.9094 217.46L73.8506 217.297L73.7933 217.132L73.7376 216.968L73.6835 216.802L73.6311 216.636L73.5802 216.469L73.531 216.302L73.4834 216.134L73.4374 215.965L73.3931 215.795L73.3504 215.625L73.3094 215.455L73.2701 215.284L73.2325 215.112L73.1965 214.94L73.1622 214.767L73.1296 214.594L73.0987 214.42L73.0696 214.246L73.0421 214.072L73.0164 213.897L72.9923 213.721L72.9701 213.546L72.9495 213.37L72.9307 213.193L72.9136 213.016L72.8983 212.839L72.8848 212.662L72.873 212.484L72.863 212.306L72.8547 212.128L72.8482 211.949L72.8435 211.771L72.8406 211.592L72.8394 211.413L72.8401 211.233L72.8425 211.054L72.8467 210.875L72.8527 210.695L72.8605 210.515L72.8701 210.336L72.8816 210.156L72.8948 209.976L72.9098 209.796L72.9266 209.616L72.9453 209.437L72.9657 209.257L72.988 209.077L73.012 208.898L73.0379 208.718L73.0656 208.539L73.0951 208.36L73.1264 208.181L73.1595 208.002L73.1945 207.823L73.2312 207.645L73.2698 207.466L73.3101 207.288L73.3523 207.111L73.3963 206.933L73.4421 206.756L73.4897 206.579L73.5391 206.403L73.5903 206.227L73.6432 206.051L73.698 205.876L73.7546 205.701L73.813 205.526L73.8731 205.352L73.9351 205.179L73.9988 205.006L74.0643 204.833L74.1315 204.661L74.2006 204.49L74.2714 204.319L74.3439 204.149L74.4183 203.979L74.4943 203.81L74.5721 203.641L74.6517 203.474L74.733 203.307L74.816 203.14L74.9007 202.975L74.9872 202.81L75.0754 202.645L75.1653 202.482L75.2568 202.319L75.3501 202.158L75.4451 201.997L75.5417 201.837L75.64 201.677L75.74 201.519L75.8416 201.361L75.9449 201.205L76.0498 201.049L76.1564 200.894L76.2646 200.741L76.3744 200.588L76.4858 200.436L76.5988 200.285L76.7134 200.136L76.8295 199.987L76.9473 199.839L77.0666 199.693L77.1875 199.547L77.3099 199.403L77.4338 199.26L77.5593 199.118L77.6862 198.977L77.8147 198.837L77.9447 198.699L78.0761 198.562L78.209 198.426L78.3434 198.291L78.4792 198.158L78.6164 198.025L78.7551 197.894L78.8952 197.765L79.0366 197.637L79.1795 197.51L79.3237 197.384L79.4693 197.26L79.6163 197.137L79.7646 197.016L79.9142 196.896L80.0651 196.777L80.2173 196.66L80.3707 196.545L80.5255 196.43L80.6815 196.318L80.8387 196.206L80.9972 196.097L81.1569 195.989L81.3178 195.882L81.4798 195.777L81.6431 195.674L81.8075 195.572L81.973 195.472L82.1396 195.373L82.3074 195.276L82.4762 195.18L82.6461 195.087L82.8171 194.995L82.9891 194.904L83.1622 194.815L83.3362 194.728L83.5113 194.643L83.6873 194.559L83.8643 194.477L84.0423 194.397L84.2212 194.319L84.4009 194.242L84.5816 194.167L84.7632 194.094L84.9456 194.023L85.1289 193.954L85.313 193.886L85.4979 193.82L85.6836 193.756L85.8701 193.694L86.0573 193.633L86.2452 193.575L86.4339 193.518L86.6233 193.464L86.8134 193.411L87.0041 193.36L87.1955 193.311L87.3875 193.264L87.5801 193.219L87.7733 193.175L87.9671 193.134L88.1614 193.095L88.3563 193.057L88.5516 193.022L88.7475 192.988L88.9439 192.956L89.1407 192.927L89.3379 192.899L89.5355 192.874L89.7336 192.85L89.932 192.828L90.1308 192.809L90.3299 192.791L90.5294 192.775L90.7291 192.762L90.9291 192.75L91.1294 192.741L91.3299 192.733L91.5306 192.728L91.7316 192.724L91.9327 192.723L92.1339 192.723L92.3353 192.726L92.5368 192.731L92.7384 192.738L92.9401 192.746L93.1419 192.757L93.3436 192.77L93.5454 192.785L93.7472 192.802L93.949 192.822L94.1507 192.843L94.3523 192.866L94.5538 192.891L94.7553 192.919L94.9566 192.948L95.1577 192.98L95.3587 193.013L95.5595 193.049L95.7601 193.087L95.9604 193.127L96.1605 193.168L96.3603 193.212L96.5598 193.258L96.759 193.306L96.9578 193.356L97.1563 193.409L97.3544 193.463L97.5521 193.519L97.7494 193.577L97.9462 193.638L98.1426 193.7L98.3384 193.765L98.5338 193.831L98.7287 193.9L98.923 193.97L99.1167 194.043L99.3098 194.117L99.5024 194.194L99.6943 194.273L99.8855 194.353L100.076 194.436L100.266 194.52L100.455 194.607L100.644 194.696L100.831 194.786L101.018 194.879L101.204 194.973L101.39 195.07L101.574 195.168L101.758 195.268L101.94 195.371L102.122 195.475L102.303 195.581L102.483 195.689L102.662 195.799L102.84 195.911L103.017 196.024L103.194 196.14L103.369 196.257L103.543 196.377L103.716 196.498L103.887 196.621L104.058 196.746L104.228 196.872L104.396 197.001L104.563 197.131L104.729 197.263L104.894 197.397L105.058 197.533L105.22 197.67L105.382 197.809L105.542 197.95L105.7 198.092L105.857 198.237L106.013 198.383L106.168 198.53L106.321 198.68L106.473 198.831L106.624 198.983L106.773 199.137L106.92 199.293L107.066 199.451L107.211 199.61L107.354 199.77L107.496 199.932L107.636 200.096L107.775 200.261L107.912 200.428L108.047 200.596L108.181 200.766L108.314 200.937L108.444 201.11L108.573 201.284L108.701 201.46L108.826 201.637L108.951 201.815L109.073 201.995L109.194 202.176L109.313 202.359L109.43 202.542L109.545 202.727L109.659 202.914L109.771 203.101L109.881 203.29L109.989 203.481L110.096 203.672L110.2 203.865L110.303 204.058L110.404 204.253L110.503 204.449L110.6 204.647L110.696 204.845L110.789 205.045L110.88 205.245L110.97 205.447L111.058 205.649L111.143 205.853L111.227 206.058L111.308 206.263L111.388 206.47L111.466 206.677L111.541 206.886L111.615 207.095L111.686 207.306L111.756 207.517L111.823 207.729L111.889 207.941L111.952 208.155L112.013 208.369L112.072 208.584L112.13 208.8L112.184 209.017L112.237 209.234L112.288 209.452L112.336 209.671L112.383 209.89L112.427 210.11L112.469 210.33L112.509 210.551L112.547 210.773L112.582 210.995L112.616 211.218L112.647 211.441L112.676 211.664L112.703 211.888L112.727 212.112L112.75 212.337L112.77 212.562L112.788 212.788L112.803 213.014L112.817 213.24L112.828 213.466L112.837 213.693L112.843 213.92L112.848 214.147L112.85 214.374L112.85 214.601L112.848 214.829L112.843 215.057L112.836 215.285L112.827 215.512L112.815 215.74L112.802 215.968L112.786 216.196L112.767 216.424L112.747 216.652L112.724 216.88L112.699 217.108L112.672 217.335L112.642 217.563L112.61 217.79L112.576 218.017L112.539 218.244L112.5 218.471L112.459 218.697L112.416 218.923L112.37 219.149L112.322 219.375L112.272 219.6L112.22 219.825L112.165 220.049L112.108 220.273L112.049 220.497L111.987 220.72L111.924 220.943L111.858 221.165L111.789 221.387L111.719 221.608L111.646 221.828L111.571 222.048L111.494 222.267L111.414 222.486L111.333 222.704L111.249 222.921L111.162 223.137L111.074 223.353L110.984 223.568L110.891 223.782L110.796 223.996L110.699 224.208L110.6 224.42L110.498 224.631L110.395 224.841L110.289 225.05L110.181 225.258L110.071 225.465L109.959 225.671L109.845 225.876L109.728 226.08L109.61 226.283L109.489 226.485L109.366 226.686L109.242 226.885L109.115 227.084L108.986 227.281L108.855 227.477L108.722 227.672L108.587 227.866L108.45 228.059L108.311 228.25L108.171 228.44L108.028 228.628L107.883 228.815L107.736 229.001L107.587 229.186L107.437 229.369L107.284 229.551L107.13 229.731L106.973 229.91L106.815 230.087L106.655 230.263L106.493 230.437L106.329 230.61L106.164 230.781L105.996 230.951L105.827 231.119L105.656 231.285L105.483 231.45L105.309 231.613L105.133 231.775L104.955 231.934L104.775 232.092L104.594 232.249L104.411 232.403L104.227 232.556L104.04 232.707L103.853 232.856L103.663 233.004L103.472 233.149L103.28 233.293L103.086 233.435L102.89 233.575L102.693 233.713L102.494 233.849L102.294 233.983L102.093 234.115L101.89 234.246L101.685 234.374L101.48 234.5L101.272 234.624L101.064 234.747L100.854 234.867L100.643 234.985L100.431 235.101L100.217 235.215L100.002 235.327L99.7856 235.437L99.5681 235.544L99.3495 235.65L99.1297 235.753L98.9087 235.854L98.6866 235.953L98.4634 236.05L98.239 236.145L98.0137 236.237L97.7872 236.327L97.5598 236.415L97.3313 236.501L97.1019 236.584L96.8714 236.665L96.6401 236.744L96.4078 236.82L96.1747 236.894L95.9406 236.966L95.7058 237.036L95.4701 237.103L95.2335 237.168L94.9963 237.23L94.7582 237.29L94.5194 237.348L94.2799 237.403L94.0398 237.456L93.7989 237.506L93.5574 237.555L93.3153 237.6L93.0727 237.643L92.8294 237.684L92.5856 237.723L92.3413 237.758L92.0965 237.792L91.8512 237.823L91.6054 237.851L91.3593 237.877L91.1127 237.901L90.8658 237.922L90.6185 237.94L90.3709 237.956L90.123 237.97L89.8748 237.981L89.6264 237.99L89.3777 237.996L89.1288 237.999L88.8798 238L88.6306 237.998L88.3813 237.994L88.1319 237.988L87.8824 237.979L87.6329 237.967L87.3833 237.953L87.1338 237.936L86.8842 237.917L86.6348 237.895L86.3854 237.87L86.1361 237.843L85.8869 237.814L85.6379 237.782L85.389 237.747L85.1404 237.71L84.892 237.67L84.6438 237.628L84.396 237.584L84.1484 237.536L83.9012 237.486L83.6543 237.434L83.4078 237.379L83.1618 237.322L82.9161 237.262L82.6709 237.199L82.4262 237.134L82.182 237.067L81.9384 236.997L81.6953 236.924L81.4528 236.849L81.2109 236.772L80.9696 236.692L80.729 236.609L80.4891 236.524L80.2499 236.436L80.0115 236.346L79.7738 236.254L79.5369 236.159L79.3008 236.062L79.0655 235.962L78.8311 235.86L78.5976 235.755L78.365 235.648L78.1334 235.538L77.9027 235.426L77.673 235.312L77.4443 235.195L77.2166 235.076L76.99 234.955L76.7645 234.831L76.5401 234.704L76.3168 234.576L76.0947 234.445L75.8738 234.312L75.654 234.176L75.4355 234.038L75.2183 233.898L75.0023 233.756L74.7876 233.611L74.5742 233.464L74.3622 233.315L74.1516 233.164L73.9423 233.01L73.7345 232.854L73.5281 232.696L73.3231 232.536L73.1196 232.373L72.9177 232.209L72.7172 232.042L72.5183 231.873L72.321 231.703L72.1253 231.53L71.9312 231.355L71.7387 231.177L71.5479 230.998L71.3587 230.817L71.1713 230.634L70.9856 230.449L70.8016 230.261L70.6194 230.072L70.4389 229.881L70.2603 229.688L70.0835 229.493L69.9085 229.296L69.7354 229.097L69.5642 228.897L69.3949 228.694L69.2275 228.49L69.062 228.284L68.8985 228.076L68.737 227.866L68.5775 227.655L68.42 227.442L68.2645 227.227L68.1111 227.01L67.9597 226.792L67.8105 226.572L67.6633 226.351L67.5183 226.128L67.3754 225.903L67.2347 225.677L67.0961 225.449L66.9597 225.22L66.8256 224.989L66.6936 224.757L66.5639 224.523L66.4365 224.288L66.3113 224.051L66.1884 223.813L66.0679 223.574L65.9496 223.333L65.8336 223.091L65.72 222.847L65.6088 222.603L65.4999 222.357L65.3935 222.11L65.2894 221.861L65.1877 221.612L65.0885 221.361L64.9917 221.109L64.8973 220.856L64.8054 220.602L64.716 220.347L64.6291 220.091L64.5447 219.834L64.4628 219.576L64.3834 219.317L64.3065 219.057L64.2322 218.796L64.1605 218.534L64.0913 218.271L64.0247 218.008L63.9607 217.743L63.8992 217.478L63.8404 217.212L63.7842 216.945L63.7306 216.678L63.6796 216.41L63.6312 216.141L63.5856 215.872L63.5425 215.602L63.5021 215.332L63.4644 215.061L63.4294 214.789L63.397 214.517L63.3674 214.244L63.3404 213.971L63.3161 213.698L63.2945 213.424L63.2757 213.15L63.2595 212.876L63.2461 212.601L63.2354 212.326L63.2274 212.051L63.2221 211.775L63.2196 211.499L63.2198 211.223L63.2228 210.947L63.2285 210.671L63.2369 210.395L63.2481 210.119L63.2621 209.843L63.2788 209.566L63.2983 209.29L63.3205 209.014L63.3454 208.738L63.3732 208.462L63.4036 208.186L63.4369 207.91L63.4729 207.635L63.5116 207.359L63.5531 207.084L63.5974 206.81L63.6444 206.535L63.6941 206.261L63.7466 205.987L63.8019 205.714L63.8599 205.441L63.9206 205.169L63.9841 204.897L64.0503 204.625L64.1192 204.354L64.1909 204.084L64.2653 203.814L64.3424 203.545L64.4222 203.276L64.5047 203.008L64.5899 202.741L64.6779 202.475L64.7685 202.209L64.8618 201.944L64.9577 201.68L65.0564 201.417L65.1577 201.155L65.2617 200.893L65.3683 200.633L65.4775 200.373L65.5894 200.115L65.704 199.857L65.8211 199.6L65.9408 199.345L66.0632 199.09L66.1881 198.837L66.3156 198.585L66.4457 198.334L66.5783 198.084L66.7135 197.836L66.8512 197.588L66.9914 197.342L67.1342 197.097L67.2794 196.854L67.4272 196.612L67.5774 196.371L67.7301 196.132L67.8852 195.894L68.0428 195.658L68.2028 195.423L68.3652 195.189L68.53 194.957L68.6972 194.727L68.8668 194.498L69.0387 194.271L69.213 194.046L69.3896 193.822L69.5685 193.6L69.7497 193.379L69.9332 193.16L70.1189 192.943L70.3069 192.728L70.4971 192.515L70.6895 192.303L70.8842 192.093L71.081 191.886L71.2799 191.68L71.481 191.475L71.6843 191.273L71.8896 191.073L72.097 190.875L72.3065 190.679L72.5181 190.485L72.7317 190.293L72.9472 190.103L73.1648 189.915L73.3844 189.729L73.6059 189.545L73.8293 189.364L74.0547 189.184L74.2819 189.007L74.511 188.832L74.742 188.659L74.9748 188.489L75.2093 188.321L75.4457 188.155L75.6838 187.991L75.9237 187.83L76.1653 187.671L76.4086 187.515L76.6535 187.361L76.9002 187.209L77.1484 187.06L77.3982 186.913L77.6496 186.769L77.9026 186.627L78.1571 186.487L78.4131 186.35L78.6706 186.216L78.9295 186.084L79.1899 185.955L79.4516 185.828L79.7148 185.704L79.9793 185.583L80.2452 185.464L80.5123 185.348L80.7808 185.234L81.0505 185.123L81.3214 185.015L81.5935 184.91L81.8668 184.807L82.1413 184.707L82.4169 184.61L82.6936 184.515L82.9713 184.423L83.2501 184.334L83.5299 184.248L83.8107 184.164L84.0925 184.084L84.3752 184.006L84.6588 183.931L84.9432 183.859L85.2286 183.789L85.5147 183.723L85.8017 183.659L86.0894 183.598L86.3779 183.54L86.667 183.486L86.9569 183.433L87.2474 183.384L87.5385 183.338L87.8302 183.295L88.1225 183.255L88.4154 183.217L88.7087 183.183L89.0025 183.151L89.2968 183.123L89.5915 183.097L89.8865 183.074L90.182 183.055L90.4778 183.038L90.7738 183.025L91.0702 183.014L91.3668 183.006L91.6636 183.002L91.9606 183L92.2577 183.001L92.555 183.006L92.8524 183.013L93.1498 183.024L93.4473 183.037L93.7448 183.053L94.0422 183.073L94.3396 183.095L94.6369 183.121L94.9341 183.15L95.2311 183.181L95.528 183.216L95.8247 183.253L96.1211 183.294L96.4173 183.338L96.7131 183.384L97.0087 183.434L97.3038 183.487L97.5986 183.542L97.893 183.601L98.1869 183.663L98.4804 183.728L98.7733 183.796L99.0657 183.866L99.3575 183.94L99.6488 184.017L99.9394 184.097L100.229 184.179L100.519 184.265L100.807 184.354L101.095 184.445L101.382 184.54L101.668 184.638L101.954 184.738L102.238 184.841L102.522 184.948L102.804 185.057L103.086 185.169L103.367 185.284L103.646 185.402L103.925 185.523L104.203 185.647L104.479 185.774L104.755 185.903L105.029 186.036L105.302 186.171L105.574 186.309L105.844 186.45L106.113 186.593L106.381 186.74L106.648 186.889L106.913 187.041L107.177 187.196L107.44 187.353L107.701 187.513L107.96 187.676L108.218 187.842L108.475 188.01L108.73 188.181L108.983 188.355L109.235 188.531L109.485 188.71L109.734 188.892L109.98 189.076L110.225 189.263L110.469 189.452L110.71 189.644L110.95 189.838L111.188 190.035L111.424 190.234L111.658 190.436L111.891 190.641L112.121 190.847L112.349 191.057L112.576 191.268L112.8 191.482L113.023 191.699L113.243 191.917L113.462 192.138L113.678 192.362L113.892 192.587L114.104 192.815L114.314 193.046L114.521 193.278L114.727 193.513L114.93 193.749L115.131 193.988L115.329 194.229L115.525 194.473L115.719 194.718L115.911 194.965L116.1 195.215L116.287 195.466L116.472 195.72L116.654 195.975L116.833 196.233L117.01 196.492L117.185 196.753L117.357 197.016L117.526 197.281L117.693 197.548L117.858 197.817L118.019 198.087L118.179 198.359L118.335 198.633L118.489 198.909L118.64 199.186L118.789 199.465L118.935 199.746L119.078 200.028L119.218 200.312L119.356 200.597L119.491 200.884L119.623 201.172L119.752 201.462L119.878 201.753L120.002 202.046L120.123 202.34L120.241 202.635L120.356 202.932L120.468 203.23L120.577 203.529L120.683 203.83L120.787 204.131L120.887 204.434L120.984 204.738L121.079 205.043L121.17 205.349L121.259 205.657L121.344 205.965L121.427 206.274L121.506 206.585L121.582 206.896L121.656 207.208L121.726 207.521L121.793 207.835L121.857 208.149L121.918 208.465L121.976 208.781L122.031 209.098L122.082 209.416L122.131 209.734L122.176 210.053L122.218 210.372L122.257 210.692L122.293 211.013L122.326 211.334L122.356 211.656L122.382 211.978L122.405 212.3L122.425 212.623" stroke="#ED1E24" stroke-width="2"/>
<path fill-rule="evenodd" clip-rule="evenodd" d="M1210 255L1197.4 272L1177 265.507V244.493L1197.4 238L1210 255V255Z" stroke="#F57724" stroke-width="2"/>
<path fill-rule="evenodd" clip-rule="evenodd" d="M1114 110L1113.99 110L1113.98 110L1113.95 110.001L1113.91 110.002L1113.86 110.004L1113.8 110.008L1113.73 110.013L1113.65 110.019L1113.55 110.027L1113.45 110.037L1113.33 110.049L1113.21 110.063L1113.07 110.08L1112.92 110.1L1112.77 110.123L1112.6 110.149L1112.42 110.179L1112.24 110.212L1112.04 110.249L1111.83 110.29L1111.61 110.335L1111.39 110.384L1111.15 110.438L1110.91 110.497L1110.66 110.56L1110.39 110.629L1110.12 110.702L1109.84 110.781L1109.56 110.865L1109.26 110.955L1108.96 111.05L1108.65 111.152L1108.33 111.259L1108 111.372L1107.67 111.492L1107.33 111.617L1106.99 111.749L1106.63 111.888L1106.28 112.033L1105.91 112.185L1105.54 112.343L1105.17 112.508L1104.79 112.68L1104.4 112.859L1104.01 113.045L1103.62 113.237L1103.22 113.437L1102.82 113.643L1102.42 113.857L1102.01 114.077L1101.6 114.304L1101.18 114.539L1100.77 114.78L1100.35 115.028L1099.93 115.283L1099.5 115.545L1099.08 115.814L1098.65 116.09L1098.23 116.372L1097.8 116.661L1097.37 116.956L1096.95 117.258L1096.52 117.566L1096.09 117.88L1095.67 118.201L1095.24 118.528L1094.82 118.86L1094.39 119.199L1093.97 119.543L1093.55 119.892L1093.14 120.247L1092.72 120.608L1092.31 120.973L1091.9 121.343L1091.49 121.718L1091.09 122.098L1090.69 122.482L1090.29 122.87L1089.9 123.262L1089.51 123.659L1089.13 124.058L1088.75 124.461L1088.37 124.868L1088 125.277L1087.64 125.689L1087.28 126.104L1086.92 126.521L1086.57 126.94L1086.23 127.361L1085.89 127.784L1085.55 128.208L1085.23 128.633L1084.91 129.059L1084.59 129.486L1084.28 129.913L1083.98 130.34L1083.68 130.767L1083.39 131.194L1083.11 131.62L1082.84 132.045L1082.57 132.469L1082.3 132.892L1082.05 133.313L1081.8 133.732L1081.56 134.149L1081.32 134.563L1081.1 134.975L1080.87 135.383L1080.66 135.788L1080.45 136.19L1080.25 136.588L1080.06 136.982L1079.87 137.372L1079.69 137.757L1079.52 138.137L1079.36 138.512L1079.2 138.882L1079.05 139.246L1078.9 139.605L1078.76 139.957L1078.63 140.304L1078.5 140.643L1078.38 140.976L1078.27 141.302L1078.16 141.621L1078.06 141.933L1077.96 142.237L1077.87 142.533L1077.79 142.821L1077.71 143.101L1077.63 143.372L1077.57 143.635L1077.5 143.889L1077.44 144.134L1077.39 144.37L1077.34 144.597L1077.29 144.814L1077.25 145.022L1077.22 145.22L1077.18 145.408L1077.15 145.587L1077.13 145.755L1077.1 145.912L1077.08 146.06L1077.06 146.197L1077.05 146.324L1077.04 146.439L1077.03 146.545L1077.02 146.639L1077.01 146.723L1077.01 146.795L1077 146.857L1077 146.908L1077 146.947L1077 146.976L1077 146.994L1077 147L1077 146.995L1077 146.98L1077 146.953L1077 146.915L1077 146.866L1076.99 146.806L1076.99 146.735L1076.98 146.653L1076.97 146.56L1076.96 146.457L1076.95 146.343L1076.94 146.218L1076.92 146.083L1076.9 145.937L1076.88 145.78L1076.85 145.614L1076.82 145.437L1076.79 145.251L1076.75 145.054L1076.71 144.848L1076.67 144.632L1076.62 144.407L1076.57 144.172L1076.51 143.929L1076.44 143.676L1076.38 143.414L1076.3 143.144L1076.23 142.866L1076.14 142.579L1076.05 142.284L1075.96 141.982L1075.86 141.671L1075.75 141.354L1075.64 141.029L1075.52 140.697L1075.39 140.358L1075.26 140.013L1075.12 139.661L1074.98 139.304L1074.83 138.94L1074.67 138.571L1074.5 138.197L1074.33 137.818L1074.16 137.433L1073.97 137.044L1073.78 136.651L1073.58 136.254L1073.37 135.853L1073.16 135.448L1072.94 135.04L1072.71 134.629L1072.48 134.215L1072.24 133.799L1071.99 133.38L1071.74 132.959L1071.48 132.537L1071.21 132.113L1070.93 131.688L1070.65 131.262L1070.36 130.835L1070.07 130.408L1069.77 129.981L1069.46 129.554L1069.14 129.127L1068.82 128.701L1068.5 128.276L1068.17 127.851L1067.83 127.429L1067.48 127.007L1067.14 126.588L1066.78 126.17L1066.42 125.755L1066.06 125.343L1065.69 124.933L1065.31 124.526L1064.93 124.122L1064.55 123.722L1064.16 123.325L1063.77 122.932L1063.37 122.543L1062.97 122.159L1062.57 121.778L1062.16 121.403L1061.76 121.032L1061.34 120.665L1060.93 120.304L1060.51 119.948L1060.09 119.598L1059.67 119.253L1059.25 118.914L1058.83 118.58L1058.4 118.253L1057.97 117.931L1057.55 117.616L1057.12 117.306L1056.69 117.004L1056.27 116.707L1055.84 116.417L1055.41 116.134L1054.99 115.858L1054.56 115.588L1054.14 115.325L1053.72 115.069L1053.3 114.819L1052.88 114.577L1052.47 114.341L1052.06 114.113L1051.65 113.891L1051.24 113.677L1050.84 113.469L1050.44 113.269L1050.05 113.075L1049.66 112.888L1049.27 112.708L1048.89 112.535L1048.52 112.369L1048.15 112.21L1047.78 112.057L1047.42 111.911L1047.07 111.771L1046.72 111.638L1046.38 111.511L1046.05 111.391L1045.72 111.276L1045.4 111.168L1045.09 111.066L1044.79 110.97L1044.49 110.879L1044.2 110.794L1043.92 110.714L1043.65 110.64L1043.39 110.571L1043.13 110.507L1042.88 110.447L1042.65 110.393L1042.42 110.343L1042.2 110.297L1041.99 110.255L1041.8 110.218L1041.61 110.184L1041.43 110.154L1041.26 110.127L1041.1 110.104L1040.95 110.083L1040.81 110.066L1040.69 110.051L1040.57 110.038L1040.46 110.028L1040.37 110.02L1040.28 110.013L1040.21 110.008L1040.15 110.005L1040.1 110.003L1040.06 110.001L1040.03 110L1040.01 110L1040 110L1040 110L1040.02 110L1040.04 109.999L1040.08 109.998L1040.13 109.996L1040.19 109.993L1040.26 109.988L1040.34 109.982L1040.43 109.974L1040.53 109.965L1040.65 109.953L1040.77 109.939L1040.91 109.922L1041.05 109.903L1041.21 109.88L1041.37 109.855L1041.55 109.826L1041.73 109.793L1041.93 109.757L1042.14 109.717L1042.35 109.672L1042.57 109.623L1042.81 109.57L1043.05 109.513L1043.3 109.45L1043.56 109.382L1043.83 109.31L1044.11 109.232L1044.4 109.149L1044.69 109.06L1044.99 108.965L1045.3 108.865L1045.62 108.758L1045.94 108.646L1046.28 108.528L1046.61 108.403L1046.96 108.272L1047.31 108.134L1047.67 107.99L1048.03 107.839L1048.4 107.682L1048.77 107.518L1049.15 107.347L1049.54 107.17L1049.92 106.985L1050.32 106.794L1050.71 106.595L1051.12 106.39L1051.52 106.177L1051.93 105.958L1052.34 105.732L1052.75 105.499L1053.17 105.258L1053.59 105.011L1054.01 104.757L1054.43 104.496L1054.85 104.229L1055.28 103.954L1055.7 103.673L1056.13 103.386L1056.56 103.091L1056.98 102.79L1057.41 102.483L1057.84 102.17L1058.26 101.85L1058.69 101.525L1059.11 101.193L1059.54 100.855L1059.96 100.512L1060.38 100.164L1060.8 99.8093L1061.21 99.4499L1061.62 99.0854L1062.03 98.7158L1062.44 98.3415L1062.85 97.9626L1063.25 97.5793L1063.64 97.1917L1064.04 96.8001L1064.43 96.4045L1064.81 96.0054L1065.19 95.6027L1065.57 95.1968L1065.94 94.7879L1066.31 94.3762L1066.67 93.9618L1067.02 93.5451L1067.37 93.1263L1067.72 92.7055L1068.06 92.2831L1068.39 91.8593L1068.72 91.4343L1069.04 91.0084L1069.36 90.5817L1069.67 90.1547L1069.97 89.7275L1070.27 89.3003L1070.56 88.8735L1070.84 88.4473L1071.12 88.0219L1071.39 87.5977L1071.65 87.1748L1071.91 86.7536L1072.16 86.3343L1072.4 85.9172L1072.64 85.5025L1072.87 85.0905L1073.09 84.6815L1073.31 84.2757L1073.51 83.8733L1073.72 83.4747L1073.91 83.0802L1074.1 82.6898L1074.28 82.304L1074.45 81.923L1074.62 81.547L1074.78 81.1762L1074.93 80.811L1075.08 80.4515L1075.22 80.098L1075.35 79.7508L1075.48 79.41L1075.6 79.0759L1075.71 78.7488L1075.82 78.4287L1075.93 78.1161L1076.02 77.811L1076.11 77.5136L1076.2 77.2243L1076.28 76.9431L1076.35 76.6703L1076.42 76.4061L1076.49 76.1506L1076.55 75.904L1076.6 75.6665L1076.65 75.4382L1076.7 75.2194L1076.74 75.0101L1076.78 74.8105L1076.81 74.6207L1076.84 74.4409L1076.87 74.2712L1076.89 74.1117L1076.91 73.9625L1076.93 73.8238L1076.95 73.6956L1076.96 73.578L1076.97 73.4711L1076.98 73.3749L1076.99 73.2896L1076.99 73.2152L1076.99 73.1518L1077 73.0993L1077 73.0579L1077 73.0275L1077 73.0082L1077 73L1077 73.0029L1077 73.0169L1077 73.042L1077 73.0781L1077 73.1253L1077.01 73.1835L1077.01 73.2527L1077.02 73.3328L1077.02 73.4238L1077.03 73.5256L1077.05 73.6381L1077.06 73.7612L1077.08 73.8949L1077.1 74.0391L1077.12 74.1937L1077.14 74.3585L1077.17 74.5335L1077.2 74.7186L1077.24 74.9135L1077.28 75.1182L1077.32 75.3325L1077.37 75.5563L1077.43 75.7894L1077.48 76.0317L1077.54 76.2829L1077.61 76.543L1077.68 76.8117L1077.76 77.0889L1077.84 77.3744L1077.93 77.6679L1078.03 77.9693L1078.13 78.2784L1078.23 78.595L1078.34 78.9187L1078.46 79.2495L1078.59 79.5872L1078.72 79.9313L1078.85 80.2819L1079 80.6385L1079.15 81.001L1079.3 81.3692L1079.47 81.7427L1079.64 82.1214L1079.82 82.5049L1080 82.8931L1080.19 83.2857L1080.39 83.6824L1080.59 84.083L1080.81 84.4872L1081.02 84.8947L1081.25 85.3053L1081.48 85.7187L1081.72 86.1347L1081.97 86.553L1082.22 86.9734L1082.48 87.3955L1082.75 87.8191L1083.02 88.2439L1083.3 88.6698L1083.59 89.0963L1083.88 89.5234L1084.19 89.9506L1084.49 90.3777L1084.8 90.8046L1085.12 91.2309L1085.45 91.6564L1085.78 92.0808L1086.12 92.5039L1086.46 92.9255L1086.81 93.3452L1087.16 93.763L1087.52 94.1785L1087.89 94.5915L1088.25 95.0018L1088.63 95.4092L1089.01 95.8134L1089.39 96.2143L1089.78 96.6115L1090.17 97.0051L1090.56 97.3946L1090.96 97.78L1091.36 98.1611L1091.77 98.5376L1092.18 98.9094L1092.59 99.2764L1093 99.6383L1093.42 99.995L1093.84 100.346L1094.26 100.692L1094.68 101.032L1095.11 101.367L1095.53 101.695L1095.96 102.018L1096.38 102.334L1096.81 102.644L1097.24 102.948L1097.67 103.246L1098.09 103.537L1098.52 103.821L1098.94 104.099L1099.37 104.369L1099.79 104.634L1100.21 104.891L1100.63 105.141L1101.05 105.385L1101.46 105.621L1101.88 105.851L1102.29 106.074L1102.69 106.289L1103.09 106.498L1103.49 106.7L1103.89 106.894L1104.28 107.082L1104.67 107.263L1105.05 107.437L1105.42 107.605L1105.79 107.765L1106.16 107.919L1106.52 108.066L1106.87 108.207L1107.22 108.341L1107.56 108.469L1107.9 108.59L1108.23 108.705L1108.55 108.815L1108.86 108.918L1109.16 109.015L1109.46 109.107L1109.75 109.193L1110.03 109.273L1110.31 109.348L1110.57 109.418L1110.83 109.483L1111.08 109.543L1111.31 109.599L1111.54 109.649L1111.76 109.696L1111.97 109.738L1112.17 109.776L1112.36 109.811L1112.54 109.841L1112.72 109.868L1112.88 109.892L1113.03 109.913L1113.17 109.931L1113.29 109.947L1113.41 109.959L1113.52 109.97L1113.62 109.979L1113.7 109.985L1113.78 109.991L1113.84 109.994L1113.9 109.997L1113.94 109.999L1113.97 109.999L1113.99 110L1114 110Z" fill="#FECE63"/>
</g>
</svg>
