<svg width="40" height="41" viewBox="0 0 40 41" fill="none" xmlns="http://www.w3.org/2000/svg">
<g filter="url(#filter0_d_76_266)">
<rect x="2" y="2.5" width="36" height="36" rx="18" fill="white"/>
<path d="M29 27C29 28.381 27.881 29.5 26.5 29.5H13.5C12.1195 29.5 11 28.381 11 27V14C11 12.619 12.1195 11.5 13.5 11.5H26.5C27.881 11.5 29 12.619 29 14V27Z" fill="#0078D4"/>
<path opacity="0.05" d="M23 27V21.9505C23 21.106 22.5905 20.6015 21.904 20.6015C21.4965 20.6015 21.197 20.831 21.0145 21.2835C21.006 21.3155 20.994 21.446 20.999 21.8405L21 27H17.5V17.5H21V18.0305C21.511 17.678 22.1375 17.5 22.869 17.5C25.1425 17.5 26.4995 19.0465 26.4995 21.637L26.5 27H23ZM13.5 27V17.5H15.2285C14.227 17.5 13.5 16.764 13.5 15.7495C13.5 14.736 14.239 14 15.257 14C16.263 14 16.9795 14.7155 17 15.7395C17 16.7615 16.2605 17.5 15.2425 17.5H17V27H13.5Z" fill="black"/>
<path opacity="0.07" d="M23.25 26.75V21.9505C23.25 20.964 22.7345 20.3515 21.904 20.3515C21.2565 20.3515 20.9365 20.8075 20.7825 21.19C20.7415 21.2895 20.747 21.6845 20.749 21.853L20.75 26.75H17.75V17.75H20.75V18.569C21.1475 18.1575 21.7875 17.75 22.869 17.75C24.9855 17.75 26.2495 19.203 26.2495 21.637L26.25 26.75H23.25ZM13.75 26.75V17.75H16.75V26.75H13.75ZM15.2285 17.25C14.372 17.25 13.75 16.619 13.75 15.7495C13.75 14.8805 14.384 14.25 15.257 14.25C16.119 14.25 16.7325 14.8645 16.75 15.7445C16.75 16.619 16.116 17.25 15.2425 17.25H15.2285Z" fill="black"/>
<path d="M14 18H16.5V26.5H14V18ZM15.2425 17H15.2285C14.4825 17 14 16.444 14 15.7495C14 15.04 14.4975 14.5 15.257 14.5C16.0175 14.5 16.486 15.04 16.5 15.7495C16.5 16.4435 16.0175 17 15.2425 17ZM26 26.5H23.5V21.9505C23.5 20.8515 22.8875 20.1015 21.904 20.1015C21.1535 20.1015 20.7475 20.6075 20.5505 21.0965C20.4785 21.2715 20.5 21.7555 20.5 22V26.5H18V18H20.5V19.308C20.8605 18.75 21.425 18 22.869 18C24.658 18 25.9995 19.125 25.9995 21.637L26 26.5Z" fill="white"/>
</g>
<defs>
<filter id="filter0_d_76_266" x="0" y="0.5" width="40" height="40" filterUnits="userSpaceOnUse" color-interpolation-filters="sRGB">
<feFlood flood-opacity="0" result="BackgroundImageFix"/>
<feColorMatrix in="SourceAlpha" type="matrix" values="0 0 0 0 0 0 0 0 0 0 0 0 0 0 0 0 0 0 127 0" result="hardAlpha"/>
<feOffset/>
<feGaussianBlur stdDeviation="1"/>
<feComposite in2="hardAlpha" operator="out"/>
<feColorMatrix type="matrix" values="0 0 0 0 0 0 0 0 0 0 0 0 0 0 0 0 0 0 0.13 0"/>
<feBlend mode="normal" in2="BackgroundImageFix" result="effect1_dropShadow_76_266"/>
<feBlend mode="normal" in="SourceGraphic" in2="effect1_dropShadow_76_266" result="shape"/>
</filter>
</defs>
</svg>
