<svg width="99" height="48" viewBox="0 0 99 48" fill="none" xmlns="http://www.w3.org/2000/svg">
<g clip-path="url(#clip0_27_35)">
<path d="M2.41176 1.93239C2.29372 1.93255 2.18056 1.98801 2.0971 2.08665C2.01364 2.18529 1.96669 2.31908 1.96655 2.45858V29.1978C1.96669 29.3373 2.01364 29.471 2.0971 29.5697C2.18056 29.6683 2.29372 29.7239 2.41176 29.724H12.5814C13.1325 29.7248 13.6608 29.9838 14.0504 30.4443C14.4401 30.9049 14.6592 31.5292 14.6598 32.1805V39.4444C14.6598 39.5469 14.6852 39.6473 14.7328 39.733C14.7805 39.8188 14.8482 39.8862 14.9279 39.927C15.0075 39.9678 15.0954 39.9802 15.1809 39.9627C15.2664 39.9452 15.3458 39.8986 15.4092 39.8286L23.9523 30.3862C24.337 29.96 24.8447 29.7232 25.372 29.724H90.3492C90.4673 29.7239 90.5803 29.6683 90.6638 29.5697C90.7474 29.471 90.7943 29.3373 90.7944 29.1978V2.45776C90.7943 2.31825 90.7474 2.18454 90.6638 2.0859C90.5803 1.98726 90.4673 1.9318 90.3492 1.93164L2.41176 1.93239Z" fill="white"/>
<path d="M13.6742 7.83181V15.1662C13.6742 15.8734 13.4365 16.5517 13.0134 17.0518C12.5903 17.5519 12.0164 17.8328 11.418 17.8328H8.59742V26.0336C8.59742 26.1572 8.55585 26.276 8.48183 26.3634C8.40782 26.4509 8.30744 26.5 8.20276 26.5H5.04309C4.93842 26.5 4.83804 26.4509 4.76402 26.3634C4.69001 26.276 4.64844 26.1572 4.64844 26.0336V5.63157C4.64844 5.57031 4.65862 5.5096 4.67846 5.453C4.69829 5.39641 4.72738 5.34505 4.76402 5.30173C4.80067 5.25842 4.84416 5.224 4.89204 5.20056C4.93993 5.17712 4.99126 5.16504 5.04309 5.16504H11.4179C11.7143 5.16498 12.0077 5.23399 12.2815 5.36798C12.5553 5.50198 12.8041 5.69842 13.0137 5.94607C13.2233 6.19372 13.3895 6.48769 13.5029 6.81129C13.6164 7.13488 13.6747 7.4817 13.6747 7.83196L13.6742 7.83181ZM8.59704 14.4993H9.16106C9.31071 14.4993 9.45422 14.429 9.56005 14.304C9.66587 14.1789 9.72533 14.0092 9.72533 13.8324V9.16535C9.72533 9.07777 9.71073 8.99105 9.68237 8.91014C9.65401 8.82924 9.61245 8.75574 9.56005 8.69382C9.50765 8.6319 9.44545 8.58278 9.37698 8.54928C9.30852 8.51578 9.23515 8.49856 9.16106 8.49858H8.59742L8.59704 14.4993Z" fill="black"/>
<path d="M21.3458 5.16406C21.6422 5.16404 21.9356 5.23299 22.2094 5.367C22.4832 5.50102 22.732 5.69744 22.9415 5.94509C23.1511 6.19273 23.3173 6.48681 23.4307 6.81038C23.5441 7.13396 23.6025 7.48074 23.6025 7.83098V23.8324C23.6025 24.5398 23.3647 25.2181 22.9415 25.7183C22.5183 26.2184 21.9443 26.4994 21.3458 26.4994H16.8332C16.2348 26.4994 15.6608 26.2184 15.2377 25.7183C14.8145 25.2181 14.5767 24.5397 14.5767 23.8324V7.83098C14.5767 7.1237 14.8145 6.44538 15.2376 5.94524C15.6607 5.4451 16.2346 5.1641 16.8331 5.16406H21.3458ZM19.6537 9.16482C19.6537 8.98802 19.5942 8.81845 19.4885 8.69344C19.3827 8.56842 19.2392 8.4982 19.0896 8.4982C18.9401 8.4982 18.7966 8.56842 18.6908 8.69344C18.585 8.81845 18.5256 8.98802 18.5256 9.16482V22.4994C18.5256 22.6762 18.585 22.8457 18.6908 22.9707C18.7966 23.0957 18.9401 23.166 19.0896 23.166C19.2392 23.166 19.3827 23.0957 19.4885 22.9707C19.5942 22.8457 19.6537 22.6762 19.6537 22.4994V9.16482Z" fill="black"/>
<path d="M33.5049 23.8324C33.5049 24.5398 33.2671 25.2182 32.8439 25.7184C32.4206 26.2186 31.8467 26.4995 31.2482 26.4995H24.8734C24.7687 26.4994 24.6684 26.4503 24.5944 26.3628C24.5204 26.2754 24.4789 26.1567 24.4788 26.0331V5.63066C24.4788 5.50697 24.5203 5.38833 24.5943 5.30083C24.6683 5.21332 24.7686 5.16415 24.8732 5.16406H31.248C31.8465 5.16406 32.4205 5.44511 32.8438 5.94531C33.267 6.44551 33.5047 7.12389 33.5047 7.83128L33.5049 23.8324ZM28.4275 23.1662H28.9917C29.1414 23.1662 29.2848 23.0959 29.3906 22.9708C29.4964 22.8457 29.5559 22.6761 29.5559 22.4993V9.16482C29.5559 9.07724 29.5413 8.99053 29.513 8.90961C29.4846 8.82869 29.4431 8.75515 29.3907 8.69321C29.3383 8.63128 29.2761 8.58211 29.2077 8.5486C29.1392 8.51509 29.0658 8.49788 28.9917 8.4979H28.4275V23.1662Z" fill="black"/>
<path d="M34.3818 23.833V7.83083C34.3817 7.12369 34.6194 6.44549 35.0424 5.94539C35.4654 5.44529 36.0392 5.16423 36.6375 5.16406H41.1504C41.7489 5.16406 42.3229 5.44508 42.7462 5.94531C43.1694 6.44554 43.4072 7.124 43.4072 7.83143V12.0316C43.4072 12.0929 43.397 12.1535 43.3772 12.2101C43.3573 12.2667 43.3283 12.3181 43.2916 12.3615C43.255 12.4048 43.2115 12.4391 43.1636 12.4625C43.1157 12.486 43.0644 12.4981 43.0125 12.4981H39.8527C39.8009 12.4981 39.7496 12.486 39.7017 12.4625C39.6538 12.4391 39.6103 12.4048 39.5737 12.3615C39.537 12.3181 39.5079 12.2667 39.4881 12.2101C39.4683 12.1535 39.458 12.0929 39.458 12.0316V9.19271C39.4603 9.016 39.4047 8.84512 39.3028 8.71572C39.201 8.58632 39.0608 8.50837 38.9116 8.4982C38.836 8.49543 38.7608 8.51066 38.6903 8.54292C38.6198 8.57517 38.5555 8.62379 38.5012 8.68596C38.447 8.74813 38.4038 8.82257 38.3743 8.90483C38.3449 8.98708 38.3296 9.07549 38.3296 9.16482V22.4714C38.3274 22.6482 38.3831 22.8192 38.4851 22.9486C38.5871 23.078 38.7274 23.1557 38.8768 23.1657C38.9523 23.1684 39.0275 23.1532 39.098 23.1209C39.1684 23.0886 39.2327 23.04 39.2869 22.9778C39.3411 22.9156 39.3842 22.8411 39.4136 22.7589C39.443 22.6766 39.4581 22.5882 39.458 22.4989V19.632C39.458 19.5083 39.4997 19.3897 39.5737 19.3022C39.6477 19.2147 39.7481 19.1656 39.8527 19.1656H43.0127C43.0645 19.1656 43.1158 19.1776 43.1637 19.201C43.2116 19.2245 43.2551 19.2588 43.2918 19.3021C43.3284 19.3454 43.3575 19.3969 43.3773 19.4535C43.3972 19.5101 43.4074 19.5708 43.4074 19.632V23.833C43.4074 24.1832 43.349 24.53 43.2356 24.8536C43.1221 25.1771 42.956 25.4711 42.7464 25.7188C42.5369 25.9664 42.2881 26.1629 42.0143 26.2969C41.7405 26.4309 41.4471 26.4999 41.1508 26.4999H36.6379C36.3415 26.4999 36.0481 26.4309 35.7743 26.2969C35.5005 26.1629 35.2517 25.9665 35.0422 25.7189C34.8326 25.4712 34.6664 25.1772 34.553 24.8536C34.4396 24.53 34.3812 24.1832 34.3813 23.833H34.3818Z" fill="black"/>
<path d="M49.682 23.1664H47.9764L47.7302 26.0798C47.7205 26.195 47.6749 26.3017 47.6023 26.3794C47.5298 26.457 47.4354 26.5 47.3375 26.5H44.757C44.701 26.5 44.6457 26.4859 44.5946 26.4587C44.5436 26.4315 44.4981 26.3918 44.4611 26.3422C44.424 26.2926 44.3963 26.2343 44.3798 26.1711C44.3633 26.1078 44.3584 26.0412 44.3653 25.9755L46.5233 5.57346C46.5352 5.46069 46.5816 5.35696 46.6537 5.28176C46.7258 5.20656 46.8187 5.16505 46.9148 5.16504H50.7308C50.8269 5.16505 50.9198 5.20655 50.9918 5.28176C51.0639 5.35697 51.1103 5.4607 51.1222 5.57346L53.2803 25.9755C53.2873 26.0412 53.2823 26.1078 53.2658 26.1711C53.2493 26.2343 53.2217 26.2926 53.1846 26.3422C53.1476 26.3918 53.102 26.4316 53.051 26.4588C52.9999 26.486 52.9446 26.5 52.8886 26.5H50.3102C50.212 26.5 50.1174 26.4568 50.0447 26.3787C49.9721 26.3006 49.9266 26.1933 49.9173 26.0778L49.682 23.1664ZM49.3597 19.1659L48.8222 12.4983L48.285 19.1659H49.3597Z" fill="black"/>
<path d="M58.1615 11.499C58.1555 12.1208 58.3583 12.7199 58.7252 13.1655L62.6743 17.833C62.8582 18.0518 63.0029 18.3121 63.0998 18.5984C63.1968 18.8848 63.2439 19.1912 63.2385 19.4996V23.8335C63.2385 24.5408 63.0008 25.2192 62.5776 25.7193C62.1544 26.2195 61.5804 26.5005 60.9819 26.5005H56.4689C56.1726 26.5005 55.8791 26.4316 55.6054 26.2976C55.3316 26.1635 55.0828 25.967 54.8733 25.7193C54.6638 25.4717 54.4976 25.1777 54.3842 24.854C54.2708 24.5304 54.2124 24.1838 54.2125 23.8335V19.633C54.2125 19.5092 54.254 19.3906 54.328 19.3031C54.4021 19.2156 54.5024 19.1665 54.6071 19.1665H57.7668C57.8715 19.1665 57.9719 19.2156 58.0459 19.3031C58.1199 19.3906 58.1615 19.5092 58.1615 19.633V22.4776C58.1595 22.6424 58.2081 22.8025 58.2983 22.9282C58.3885 23.0539 58.5141 23.1367 58.652 23.1614C58.7316 23.1737 58.8125 23.1657 58.8893 23.1381C58.966 23.1105 59.037 23.0639 59.0973 23.0014C59.1576 22.9389 59.206 22.8618 59.2391 22.7754C59.2722 22.689 59.2894 22.5952 59.2894 22.5003V20.1667C59.2954 19.5447 59.0925 18.9452 58.7252 18.4996L54.7767 13.8322C54.4107 13.3858 54.2081 12.7872 54.2125 12.1656V7.83181C54.2124 7.48162 54.2708 7.13483 54.3842 6.81129C54.4975 6.48774 54.6637 6.19378 54.8732 5.94614C55.0828 5.69851 55.3315 5.50208 55.6052 5.36806C55.8789 5.23404 56.1724 5.16504 56.4687 5.16504H60.9815C61.5801 5.16504 62.1541 5.44606 62.5774 5.94629C63.0006 6.44652 63.2384 7.12498 63.2384 7.83241V12.0319C63.2384 12.1557 63.1968 12.2743 63.1228 12.3618C63.0488 12.4493 62.9484 12.4984 62.8437 12.4984H59.684C59.5794 12.4984 59.479 12.4493 59.405 12.3618C59.331 12.2743 59.2894 12.1557 59.2894 12.0319V9.19354C59.2916 9.0168 59.236 8.84589 59.1341 8.71648C59.0323 8.58706 58.892 8.50912 58.7427 8.49903C58.6672 8.49622 58.5919 8.51138 58.5215 8.5436C58.451 8.57582 58.3867 8.62449 58.3324 8.68664C58.2781 8.74879 58.235 8.82319 58.2055 8.90543C58.176 8.98767 58.1608 9.07603 58.1608 9.16535L58.1615 11.499Z" fill="black"/>
<path d="M73.1665 5.63186V8.03243C73.1664 8.15616 73.1248 8.27479 73.0508 8.36226C72.9768 8.44973 72.8764 8.49887 72.7717 8.49887H70.6277V26.034C70.6277 26.0952 70.6175 26.1559 70.5976 26.2125C70.5778 26.2691 70.5487 26.3205 70.5121 26.3638C70.4754 26.4071 70.4319 26.4414 70.384 26.4648C70.3362 26.4883 70.2849 26.5004 70.233 26.5004H67.0736C67.0218 26.5004 66.9704 26.4883 66.9226 26.4649C66.8747 26.4415 66.8312 26.4071 66.7945 26.3638C66.7578 26.3205 66.7288 26.2691 66.7089 26.2126C66.6891 26.156 66.6788 26.0953 66.6788 26.034V8.49872H64.5352C64.4305 8.49872 64.3302 8.44959 64.2561 8.36211C64.1821 8.27463 64.1406 8.15599 64.1406 8.03228V5.63163C64.1405 5.57036 64.1507 5.50976 64.1705 5.45314C64.1904 5.39653 64.2195 5.34506 64.2561 5.30173C64.2928 5.25839 64.3363 5.22401 64.3842 5.20055C64.432 5.1771 64.4834 5.16504 64.5352 5.16504H72.7717C72.8235 5.16502 72.8749 5.1771 72.9228 5.20055C72.9707 5.22401 73.0142 5.25838 73.0509 5.30173C73.0876 5.34507 73.1167 5.39658 73.1365 5.45322C73.1563 5.50986 73.1665 5.57056 73.1665 5.63186Z" fill="black"/>
<path d="M80.1354 26.4781H74.4377C74.333 26.4781 74.2326 26.4289 74.1586 26.3414C74.0846 26.2539 74.043 26.1353 74.043 26.0116V5.60917C74.043 5.54791 74.0532 5.4873 74.073 5.43069C74.0928 5.37408 74.1219 5.3226 74.1586 5.27927C74.1952 5.23594 74.2387 5.20155 74.2866 5.1781C74.3345 5.15465 74.3858 5.14258 74.4377 5.14258H77.5968C77.7015 5.14262 77.8019 5.19184 77.8759 5.27934C77.9499 5.36685 77.9915 5.48545 77.9915 5.60917V23.1446H80.1355C80.1873 23.1446 80.2386 23.1566 80.2865 23.1801C80.3344 23.2035 80.3779 23.2379 80.4146 23.2812C80.4512 23.3245 80.4803 23.3759 80.5001 23.4325C80.5199 23.4891 80.5301 23.5497 80.5301 23.611V26.0116C80.5301 26.0728 80.5199 26.1335 80.5001 26.1901C80.4802 26.2467 80.4511 26.2982 80.4145 26.3415C80.3778 26.3848 80.3343 26.4191 80.2864 26.4426C80.2385 26.466 80.1872 26.4781 80.1354 26.4781Z" fill="black"/>
<path d="M81.8126 5.16406H87.7924C87.8971 5.16406 87.9974 5.21315 88.0715 5.30059C88.1455 5.38804 88.1871 5.50666 88.1871 5.63035V8.03145C88.1871 8.0927 88.1769 8.15334 88.1571 8.20993C88.1373 8.26653 88.1082 8.31797 88.0716 8.36128C88.0349 8.40458 87.9914 8.43888 87.9435 8.4623C87.8956 8.48572 87.8443 8.49778 87.7924 8.49774H85.3665V13.8317H87.7926C87.8972 13.8317 87.9976 13.8809 88.0716 13.9684C88.1457 14.0558 88.1872 14.1745 88.1872 14.2982V17.3661C88.1872 17.4898 88.1457 17.6084 88.0716 17.6959C87.9976 17.7834 87.8972 17.8325 87.7926 17.8325H85.3665V23.1662H87.7922C87.8968 23.1662 87.9972 23.2153 88.0712 23.3028C88.1452 23.3903 88.1867 23.509 88.1867 23.6326V26.0332C88.1867 26.0945 88.1766 26.1552 88.1567 26.2118C88.1369 26.2684 88.1078 26.3198 88.0712 26.3631C88.0345 26.4064 87.991 26.4408 87.9431 26.4642C87.8952 26.4876 87.8439 26.4997 87.7921 26.4997H81.8116C81.707 26.4997 81.6066 26.4505 81.5326 26.363C81.4586 26.2756 81.417 26.1569 81.417 26.0332V5.63095C81.4169 5.56956 81.4272 5.5088 81.447 5.45209C81.4669 5.39537 81.496 5.34382 81.5328 5.30044C81.5695 5.25707 81.6132 5.22268 81.6612 5.19927C81.7092 5.17587 81.7606 5.16391 81.8126 5.16406Z" fill="black"/>
<path d="M96.9425 6.77887L91.826 0.7319L91.8092 0.711786L91.7975 0.698027V0.699224C91.4105 0.251574 90.8906 0.000962591 90.3491 0.000976563H2.41167C1.86061 0.00170623 1.33231 0.260724 0.942664 0.721282C0.553015 1.18184 0.333835 1.80632 0.333252 2.45763V29.1969C0.333364 29.5652 0.403672 29.9287 0.538931 30.2604C0.674189 30.5922 0.870928 30.8836 1.11456 31.1132L5.9436 36.8206C6.13788 37.1101 6.385 37.344 6.66652 37.5048C6.94803 37.6656 7.25666 37.7492 7.56932 37.7492H13.0264V39.4434C13.0242 39.7849 13.083 40.1232 13.1991 40.4359C13.3152 40.7487 13.486 41.0288 13.7002 41.2581L18.6963 47.1628C18.8947 47.425 19.1375 47.635 19.4089 47.7794C19.6803 47.9238 19.9743 47.9994 20.2719 48.0013C20.7967 47.9996 21.3011 47.7606 21.6817 47.3335L30.2249 37.891C30.3074 37.7997 30.4162 37.749 30.5292 37.7492H95.5068C96.0579 37.7484 96.5861 37.4894 96.9758 37.0289C97.3654 36.5684 97.5846 35.944 97.5853 35.2927V8.55283C97.5854 8.2211 97.5284 7.8928 97.418 7.58786C97.3075 7.28292 97.1457 7.00769 96.9425 6.77887ZM12.5812 29.7223H2.41155C2.29354 29.7221 2.18041 29.6667 2.09695 29.5681C2.0135 29.4695 1.96651 29.3358 1.96634 29.1963V2.45696C1.96644 2.31744 2.01339 2.18368 2.09686 2.08503C2.18033 1.98638 2.2935 1.93089 2.41155 1.93077H90.3491C90.4671 1.93089 90.5803 1.98637 90.6637 2.08503C90.7472 2.18368 90.7941 2.31746 90.7941 2.45696V29.1963C90.794 29.3358 90.7471 29.4695 90.6636 29.5681C90.5802 29.6667 90.4671 29.7221 90.3491 29.7223H25.3719C24.8446 29.7214 24.3369 29.9583 23.9522 30.3846L15.4089 39.827C15.3456 39.8971 15.2662 39.9437 15.1807 39.9612C15.0952 39.9787 15.0072 39.9662 14.9276 39.9254C14.848 39.8845 14.7802 39.8171 14.7326 39.7313C14.685 39.6456 14.6596 39.5452 14.6597 39.4426V32.1788C14.659 31.5275 14.4399 30.9031 14.0502 30.4426C13.6606 29.982 13.1323 29.723 12.5812 29.7223Z" fill="black"/>
</g>
<defs>
<clipPath id="clip0_27_35">
<rect width="98" height="48" fill="white" transform="translate(0.333252)"/>
</clipPath>
</defs>
</svg>
