<svg width="30" height="30" viewBox="0 0 30 30" fill="none" xmlns="http://www.w3.org/2000/svg">
<path fill-rule="evenodd" clip-rule="evenodd" d="M30 14.9999L29.9978 15L29.991 15.0001L29.9798 15.0003L29.964 15.0009L29.9438 15.0018L29.9192 15.0032L29.8901 15.0051L29.8565 15.0076L29.8186 15.0108L29.7763 15.0149L29.7297 15.0198L29.6787 15.0257L29.6235 15.0326L29.564 15.0407L29.5004 15.05L29.4325 15.0606L29.3606 15.0726L29.2846 15.086L29.2047 15.101L29.1208 15.1176L29.0329 15.1358L28.9413 15.1558L28.8459 15.1777L28.7468 15.2014L28.6441 15.2271L28.5378 15.2548L28.428 15.2846L28.3149 15.3165L28.1983 15.3507L28.0786 15.3871L27.9556 15.4258L27.8296 15.4669L27.7006 15.5103L27.5686 15.5563L27.4338 15.6047L27.2963 15.6557L27.1562 15.7092L27.0135 15.7654L26.8683 15.8243L26.7208 15.8858L26.571 15.95L26.4191 16.0169L26.2651 16.0866L26.1091 16.1591L25.9513 16.2343L25.7917 16.3124L25.6305 16.3933L25.4678 16.477L25.3036 16.5635L25.1381 16.6529L24.9713 16.7451L24.8034 16.8401L24.6346 16.9379L24.4648 17.0385L24.2942 17.1419L24.1229 17.2481L23.951 17.3571L23.7787 17.4688L23.606 17.5832L23.433 17.7003L23.2599 17.82L23.0867 17.9423L22.9135 18.0673L22.7405 18.1947L22.5678 18.3247L22.3954 18.4571L22.2234 18.592L22.052 18.7291L21.8813 18.8686L21.7113 19.0104L21.5421 19.1543L21.3739 19.3004L21.2067 19.4485L21.0407 19.5986L20.8758 19.7506L20.7123 19.9045L20.5501 20.0602L20.3894 20.2176L20.2302 20.3766L20.0727 20.5372L19.9169 20.6993L19.7628 20.8627L19.6106 21.0275L19.4604 21.1935L19.3121 21.3606L19.1659 21.5287L19.0218 21.6978L18.8799 21.8677L18.7402 22.0384L18.6028 22.2097L18.4678 22.3816L18.3352 22.554L18.205 22.7267L18.0773 22.8997L17.9522 23.0729L17.8297 23.2461L17.7097 23.4192L17.5924 23.5922L17.4778 23.765L17.3659 23.9373L17.2567 24.1092L17.1503 24.2806L17.0467 24.4512L16.9458 24.6211L16.8478 24.79L16.7526 24.958L16.6601 25.1248L16.5706 25.2904L16.4838 25.4547L16.3999 25.6176L16.3188 25.779L16.2405 25.9387L16.165 26.0966L16.0923 26.2527L16.0224 26.4069L15.9552 26.559L15.8908 26.7089L15.8291 26.8566L15.77 27.002L15.7137 27.1449L15.6599 27.2853L15.6087 27.423L15.5601 27.558L15.5139 27.6902L15.4703 27.8194L15.429 27.9457L15.3901 28.0689L15.3535 28.1889L15.3192 28.3057L15.2871 28.4192L15.2571 28.5292L15.2293 28.6358L15.2034 28.7388L15.1795 28.8382L15.1575 28.9339L15.1374 29.0258L15.119 29.1139L15.1023 29.1981L15.0872 29.2784L15.0736 29.3547L15.0615 29.427L15.0508 29.4951L15.0414 29.5591L15.0332 29.6189L15.0262 29.6745L15.0202 29.7258L15.0153 29.7728L15.0112 29.8154L15.0079 29.8537L15.0053 29.8876L15.0033 29.917L15.0019 29.942L15.001 29.9626L15.0004 29.9787L15.0001 29.9903L15 29.9974L15 30L15 29.9981L14.9999 29.9917L14.9996 29.9808L14.9991 29.9655L14.9982 29.9456L14.9969 29.9213L14.995 29.8926L14.9925 29.8594L14.9894 29.8218L14.9854 29.7798L14.9806 29.7335L14.9747 29.6829L14.9679 29.628L14.9599 29.5689L14.9507 29.5056L14.9402 29.4381L14.9283 29.3665L14.915 29.2909L14.9002 29.2112L14.8837 29.1276L14.8656 29.0401L14.8457 28.9488L14.824 28.8537L14.8005 28.7549L14.7749 28.6524L14.7474 28.5464L14.7178 28.4369L14.686 28.324L14.652 28.2077L14.6158 28.0882L14.5773 27.9655L14.5364 27.8397L14.4931 27.7109L14.4474 27.5792L14.3992 27.4447L14.3484 27.3074L14.295 27.1674L14.2391 27.0249L14.1804 26.8799L14.1192 26.7326L14.0552 26.583L13.9884 26.4312L13.919 26.2774L13.8467 26.1216L13.7717 25.9639L13.6938 25.8045L13.6132 25.6434L13.5297 25.4808L13.4434 25.3167L13.3543 25.1513L13.2623 24.9846L13.1675 24.8168L13.0699 24.648L12.9695 24.4783L12.8663 24.3078L12.7603 24.1366L12.6516 23.9647L12.5401 23.7924L12.426 23.6197L12.3091 23.4468L12.1896 23.2736L12.0674 23.1004L11.9427 22.9273L11.8154 22.7543L11.6857 22.5815L11.5534 22.4091L11.4188 22.2371L11.2818 22.0656L11.1425 21.8948L11.0009 21.7248L10.8572 21.5556L10.7113 21.3873L10.5633 21.22L10.4134 21.0539L10.2615 20.8889L10.1077 20.7252L9.95217 20.563L9.79491 20.4021L9.636 20.2428L9.47554 20.0852L9.31359 19.9292L9.15025 19.775L8.9856 19.6227L8.81972 19.4722L8.65271 19.3238L8.48466 19.1774L8.31566 19.0332L8.14579 18.8911L7.97516 18.7512L7.80387 18.6137L7.63201 18.4784L7.45968 18.3456L7.28697 18.2153L7.114 18.0874L6.94087 17.9621L6.76767 17.8393L6.59451 17.7191L6.42149 17.6016L6.24873 17.4868L6.07632 17.3747L5.90437 17.2653L5.73299 17.1587L5.56229 17.0548L5.39237 16.9537L5.22333 16.8555L5.0553 16.76L4.88836 16.6674L4.72264 16.5776L4.55823 16.4906L4.39524 16.4064L4.23377 16.3251L4.07394 16.2466L3.91585 16.1709L3.75959 16.098L3.60528 16.0278L3.45301 15.9604L3.30288 15.8958L3.15499 15.8339L3.00945 15.7746L2.86635 15.718L2.72578 15.664L2.58783 15.6127L2.45261 15.5638L2.32021 15.5175L2.1907 15.4736L2.06418 15.4322L1.94074 15.3931L1.82046 15.3563L1.70342 15.3218L1.5897 15.2895L1.47938 15.2594L1.37254 15.2314L1.26924 15.2054L1.16956 15.1813L1.07357 15.1592L0.981333 15.1389L0.892913 15.1204L0.808371 15.1035L0.727766 15.0883L0.651153 15.0746L0.578587 15.0624L0.510116 15.0516L0.44579 15.0421L0.385652 15.0338L0.329744 15.0267L0.278106 15.0207L0.230773 15.0156L0.187779 15.0114L0.149153 15.0081L0.114923 15.0054L0.0851116 15.0034L0.0597407 15.002L0.0388276 15.001L0.0223871 15.0004L0.0104306 15.0001L0.00296646 15L0 14.9999L0.00153324 14.9999L0.00756512 14.9998L0.0180914 14.9996L0.0331047 14.9991L0.0525946 14.9982L0.0765474 14.997L0.104946 14.9952L0.137772 14.9927L0.175 14.9896L0.216606 14.9857L0.26256 14.9809L0.312831 14.9752L0.367382 14.9684L0.426177 14.9606L0.489174 14.9515L0.55633 14.9411L0.627597 14.9293L0.702926 14.9161L0.782266 14.9014L0.86556 14.8851L0.952751 14.8671L1.04378 14.8474L1.13858 14.8258L1.23709 14.8024L1.33925 14.777L1.44497 14.7496L1.55419 14.7202L1.66684 14.6886L1.78283 14.6548L1.90208 14.6188L2.02453 14.5804L2.15007 14.5397L2.27864 14.4966L2.41013 14.4511L2.54446 14.4031L2.68155 14.3525L2.82129 14.2993L2.9636 14.2436L3.10837 14.1852L3.25552 14.1241L3.40495 14.0603L3.55655 13.9938L3.71022 13.9246L3.86587 13.8525L4.02339 13.7777L4.18268 13.7001L4.34364 13.6197L4.50615 13.5364L4.67012 13.4503L4.83544 13.3614L5.002 13.2697L5.1697 13.1751L5.33842 13.0778L5.50807 12.9776L5.67854 12.8746L5.84971 12.7688L6.02149 12.6603L6.19376 12.5491L6.36643 12.4351L6.53937 12.3185L6.7125 12.1991L6.8857 12.0772L7.05887 11.9527L7.2319 11.8256L7.4047 11.696L7.57716 11.564L7.74919 11.4296L7.92067 11.2927L8.09152 11.1536L8.26164 11.0122L8.43093 10.8687L8.59929 10.7229L8.76665 10.5751L8.93289 10.4253L9.09794 10.2736L9.26171 10.12L9.42411 9.96458L9.58505 9.80745L9.74446 9.64867L9.90226 9.48832L10.0584 9.32649L10.2127 9.16326L10.3652 8.99871L10.5158 8.83293L10.6644 8.66601L10.8109 8.49803L10.9554 8.3291L11.0976 8.1593L11.2377 7.98873L11.3754 7.81748L11.5108 7.64566L11.6438 7.47336L11.7744 7.30069L11.9024 7.12773L12.028 6.95461L12.1509 6.78141L12.2713 6.60824L12.389 6.43521L12.5041 6.26242L12.6164 6.08998L12.726 5.91799L12.8329 5.74656L12.9369 5.5758L13.0382 5.40581L13.1367 5.2367L13.2324 5.06858L13.3253 4.90156L13.4153 4.73573L13.5025 4.57121L13.5869 4.4081L13.6684 4.24651L13.7472 4.08655L13.8231 3.92831L13.8962 3.7719L13.9666 3.61743L14.0342 3.46499L14.0991 3.31469L14.1612 3.16662L14.2207 3.02089L14.2775 2.87759L14.3317 2.73681L14.3833 2.59866L14.4323 2.46322L14.4788 2.33058L14.5229 2.20084L14.5645 2.07408L14.6038 1.95039L14.6408 1.82986L14.6754 1.71256L14.7079 1.59857L14.7382 1.48798L14.7664 1.38085L14.7926 1.27727L14.8167 1.1773L14.839 1.08101L14.8595 0.988471L14.8781 0.899744L14.8951 0.814891L14.9105 0.73397L14.9243 0.657037L14.9366 0.584146L14.9475 0.515348L14.9571 0.450689L14.9655 0.390216L14.9727 0.33397L14.9788 0.28199L14.984 0.234313L14.9882 0.190972L14.9916 0.151997L14.9943 0.117416L14.9963 0.087252L14.9978 0.0615267L14.9988 0.040258L14.9995 0.0234608L14.9998 0.0111468L14.9999 0.00332475L15 0L15 0.00117492L15.0001 0.00684869L15.0003 0.0170173L15.0008 0.0316737L15.0016 0.0508076L15.0028 0.0744057L15.0046 0.102451L15.007 0.134925L15.01 0.171804L15.0139 0.213062L15.0186 0.258672L15.0242 0.3086L15.0309 0.362812L15.0387 0.421271L15.0477 0.483935L15.058 0.550761L15.0696 0.621703L15.0827 0.696711L15.0973 0.775733L15.1135 0.858714L15.1313 0.945598L15.1509 1.03632L15.1723 1.13083L15.1956 1.22905L15.2208 1.33091L15.248 1.43635L15.2773 1.5453L15.3087 1.65768L15.3423 1.7734L15.3782 1.8924L15.4163 2.0146L15.4568 2.1399L15.4998 2.26822L15.5451 2.39949L15.5929 2.5336L15.6433 2.67047L15.6962 2.81L15.7518 2.95211L15.81 3.09669L15.8708 3.24366L15.9344 3.39291L16.0007 3.54434L16.0697 3.69785L16.1415 3.85335L16.2161 4.01072L16.2935 4.16987L16.3737 4.3307L16.4568 4.49309L16.5426 4.65695L16.6313 4.82217L16.7228 4.98863L16.8171 5.15625L16.9143 5.32489L17.0142 5.49448L17.117 5.66488L17.2225 5.836L17.3308 6.00774L17.4419 6.17998L17.5556 6.35261L17.6721 6.52554L17.7912 6.69866L17.9129 6.87185L18.0372 7.04503L18.1641 7.21808L18.2935 7.3909L18.4253 7.56339L18.5596 7.73545L18.6962 7.90699L18.8351 8.07789L18.9763 8.24807L19.1197 8.41743L19.2653 8.58587L19.4129 8.75331L19.5626 8.91965L19.7141 9.0848L19.8676 9.24867L20.0229 9.41118L20.1799 9.57225L20.3385 9.73178L20.4988 9.88971L20.6605 10.046L20.8236 10.2004L20.988 10.3531L21.1537 10.5038L21.3206 10.6526L21.4885 10.7993L21.6573 10.9439L21.827 11.0863L21.9976 11.2266L22.1688 11.3645L22.3405 11.5001L22.5128 11.6333L22.6854 11.764L22.8584 11.8923L23.0315 12.018L23.2047 12.1412L23.3779 12.2618L23.5509 12.3797L23.7237 12.495L23.8962 12.6075L24.0682 12.7173L24.2397 12.8244L24.4105 12.9287L24.5806 13.0302L24.7498 13.129L24.918 13.2249L25.0851 13.3179L25.251 13.4082L25.4156 13.4956L25.5788 13.5802L25.7406 13.662L25.9007 13.741L26.059 13.8171L26.2156 13.8905L26.3702 13.9611L26.5228 14.0289L26.6733 14.094L26.8216 14.1563L26.9675 14.216L27.111 14.273L27.252 14.3274L27.3903 14.3792L27.526 14.4285L27.6588 14.4752L27.7888 14.5194L27.9158 14.5613L28.0397 14.6007L28.1605 14.6379L28.2781 14.6727L28.3924 14.7054L28.5032 14.7358L28.6106 14.7642L28.7145 14.7905L28.8148 14.8149L28.9113 14.8373L29.0042 14.8579L29.0932 14.8767L29.1784 14.8938L29.2596 14.9093L29.3369 14.9232L29.4101 14.9356L29.4792 14.9467L29.5442 14.9564L29.605 14.9648L29.6616 14.9721L29.7139 14.9783L29.7619 14.9836L29.8056 14.9879L29.8449 14.9913L29.8799 14.9941L29.9104 14.9962L29.9365 14.9977L29.9581 14.9987L29.9752 14.9994L29.9879 14.9998L29.9961 14.9999L29.9998 14.9999L30 14.9999Z" fill="#FECE63"/>
</svg>
