<svg width="28" height="28" viewBox="0 0 28 28" fill="none" xmlns="http://www.w3.org/2000/svg">
<path fill-rule="evenodd" clip-rule="evenodd" d="M26.0676 10.8529L26.3888 12.0529L26.5211 12.5501L26.6217 12.9318L26.7057 13.2537L26.7789 13.5375L26.8441 13.7941L26.9032 14.0303L26.9573 14.2502L27.0072 14.4568L27.0535 14.6523L27.0966 14.8384L27.1368 15.0162L27.1745 15.1869L27.2098 15.3511L27.2429 15.5097L27.2741 15.663L27.3033 15.8117L27.3307 15.9562L27.3564 16.0967L27.3805 16.2335L27.403 16.3671L27.4241 16.4974L27.4437 16.6249L27.4619 16.7496L27.4788 16.8718L27.4944 16.9915L27.5088 17.1089L27.5218 17.2242L27.5337 17.3374L27.5444 17.4486L27.5539 17.558L27.5623 17.6656L27.5696 17.7715L27.5758 17.8758L27.5809 17.9785L27.5849 18.0797L27.5879 18.1794L27.5899 18.2778L27.5908 18.3748L27.5907 18.4705L27.5895 18.565L27.5874 18.6582L27.5843 18.7503L27.5802 18.8412L27.5752 18.931L27.5691 19.0198L27.5621 19.1075L27.5542 19.1942L27.5452 19.2799L27.5354 19.3646L27.5246 19.4484L27.5129 19.5313L27.5002 19.6133L27.4866 19.6944L27.472 19.7747L27.4566 19.8542L27.4402 19.9328L27.4228 20.0106L27.4046 20.0876L27.3854 20.1639L27.3653 20.2394L27.3443 20.3142L27.3224 20.3882L27.2995 20.4616L27.2757 20.5342L27.251 20.6062L27.2254 20.6775L27.1988 20.7481L27.1713 20.8181L27.1429 20.8874L27.1136 20.9561L27.0833 21.0242L27.0521 21.0917L27.02 21.1585L26.9869 21.2248L26.9528 21.2905L26.9178 21.3556L26.8819 21.4202L26.845 21.4842L26.8072 21.5476L26.7683 21.6105L26.7285 21.6729L26.6878 21.7347L26.646 21.796L26.6033 21.8568L26.5595 21.9171L26.5148 21.9769L26.469 22.0362L26.4222 22.0951L26.3744 22.1534L26.3256 22.2113L26.2757 22.2687L26.2248 22.3257L26.1728 22.3822L26.1197 22.4382L26.0655 22.4939L26.0103 22.549L25.9539 22.6038L25.8964 22.6582L25.8377 22.7121L25.778 22.7657L25.717 22.8188L25.6548 22.8716L25.5915 22.9239L25.5269 22.976L25.4611 23.0276L25.394 23.0789L25.3257 23.1298L25.256 23.1804L25.185 23.2307L25.1127 23.2806L25.0389 23.3302L24.9638 23.3796L24.8872 23.4286L24.8091 23.4773L24.7296 23.5258L24.6484 23.574L24.5657 23.622L24.4814 23.6698L24.3954 23.7173L24.3077 23.7646L24.2181 23.8117L24.1268 23.8586L24.0336 23.9054L23.9384 23.9521L23.8412 23.9986L23.7418 24.0451L23.6403 24.0914L23.5365 24.1377L23.4304 24.184L23.3217 24.2304L23.2104 24.2767L23.0964 24.3231L22.9795 24.3697L22.8596 24.4164L22.7364 24.4634L22.6098 24.5106L22.4795 24.5581L22.3453 24.6061L22.2069 24.6545L22.0639 24.7035L21.9159 24.7532L21.7625 24.8037L21.6031 24.8551L21.437 24.9077L21.2635 24.9617L21.0816 25.0172L20.8899 25.0747L20.687 25.1346L20.4707 25.1975L20.2381 25.264L19.9851 25.3354L19.7053 25.4133L19.3882 25.5006L19.0133 25.6027L18.53 25.7332L17.6219 25.9769L16.1321 26.3759L15.6202 26.5121L15.2322 26.6145L14.9065 26.6996L14.6202 26.7735L14.3616 26.8392L14.1241 26.8988L13.903 26.9532L13.6954 27.0034L13.4991 27.05L13.3123 27.0933L13.1338 27.1338L12.9627 27.1717L12.7979 27.2072L12.639 27.2405L12.4852 27.2717L12.3361 27.3011L12.1914 27.3286L12.0506 27.3545L11.9134 27.3787L11.7796 27.4014L11.649 27.4226L11.5213 27.4423L11.3964 27.4606L11.274 27.4776L11.1541 27.4933L11.0365 27.5077L10.9211 27.5209L10.8077 27.5329L10.6963 27.5437L10.5868 27.5533L10.4791 27.5618L10.373 27.5692L10.2686 27.5754L10.1658 27.5806L10.0645 27.5847L9.96466 27.5878L9.86619 27.5898L9.76908 27.5908L9.67326 27.5908L9.57871 27.5897L9.48537 27.5877L9.3932 27.5847L9.30218 27.5807L9.21227 27.5757L9.12343 27.5697L9.03564 27.5628L8.94887 27.5549L8.86308 27.5461L8.77826 27.5363L8.69438 27.5256L8.61142 27.5139L8.52935 27.5013L8.44816 27.4878L8.36783 27.4733L8.28832 27.4579L8.20964 27.4416L8.13176 27.4243L8.05466 27.4062L7.97833 27.3871L7.90275 27.367L7.82792 27.3461L7.7538 27.3242L7.6804 27.3014L7.6077 27.2777L7.53569 27.2531L7.46435 27.2275L7.39367 27.2011L7.32365 27.1737L7.25426 27.1453L7.18551 27.116L7.11738 27.0858L7.04987 27.0547L6.98295 27.0226L6.91663 26.9896L6.85089 26.9557L6.78572 26.9207L6.72113 26.8849L6.65709 26.8481L6.59361 26.8103L6.53066 26.7715L6.46826 26.7318L6.40638 26.6911L6.34502 26.6495L6.28417 26.6068L6.22383 26.5631L6.16399 26.5185L6.10464 26.4728L6.04578 26.4261L5.98739 26.3784L5.92948 26.3296L5.87203 26.2798L5.81504 26.229L5.7585 26.177L5.7024 26.124L5.64674 26.07L5.59152 26.0148L5.53671 25.9585L5.48232 25.9011L5.42835 25.8425L5.37477 25.7828L5.32159 25.722L5.2688 25.6599L5.21639 25.5967L5.16436 25.5322L5.11269 25.4665L5.06138 25.3995L5.01041 25.3312L4.95979 25.2617L4.9095 25.1908L4.85953 25.1185L4.80988 25.0449L4.76053 24.9699L4.71148 24.8934L4.66271 24.8155L4.61421 24.736L4.56597 24.655L4.51798 24.5725L4.47022 24.4883L4.42269 24.4024L4.37536 24.3148L4.32823 24.2254L4.28127 24.1342L4.23447 24.0412L4.18781 23.9461L4.14126 23.8491L4.09482 23.7499L4.04845 23.6486L4.00213 23.545L3.95583 23.439L3.90952 23.3305L3.86317 23.2195L3.81674 23.1057L3.77019 22.989L3.72348 22.8693L3.67657 22.7464L3.62938 22.6201L3.58187 22.4901L3.53396 22.3562L3.48558 22.2182L3.43662 22.0755L3.38699 21.928L3.33656 21.775L3.28519 21.6161L3.23269 21.4506L3.17886 21.2777L3.12344 21.0965L3.0661 20.9057L3.00641 20.7037L2.94384 20.4886L2.87761 20.2574L2.80666 20.0062L2.72935 19.7289L2.64296 19.4152L2.54237 19.0462L2.41511 18.5752L2.19685 17.7623L1.77392 16.1831L1.63333 15.6551L1.52907 15.2604L1.44291 14.9308L1.36828 14.6419L1.30193 14.3815L1.24195 14.1424L1.18712 13.9201L1.13659 13.7116L1.08977 13.5144L1.0462 13.3269L1.00552 13.1479L0.967447 12.9761L0.931767 12.8109L0.898291 12.6515L0.866865 12.4973L0.83736 12.3479L0.809664 12.2028L0.783683 12.0617L0.759335 11.9243L0.736548 11.7902L0.715259 11.6594L0.695412 11.5315L0.676958 11.4063L0.659853 11.2838L0.644058 11.1637L0.629535 11.0459L0.616255 10.9303L0.604187 10.8168L0.593306 10.7052L0.583586 10.5955L0.575007 10.4877L0.567549 10.3815L0.561193 10.277L0.555923 10.174L0.551722 10.0726L0.548578 9.97263L0.546476 9.87406L0.545405 9.77684L0.545354 9.68092L0.546313 9.58627L0.548273 9.49283L0.551224 9.40057L0.55516 9.30946L0.560072 9.21946L0.565954 9.13054L0.5728 9.04267L0.580604 8.95581L0.589362 8.86995L0.599068 8.78506L0.609719 8.7011L0.62131 8.61807L0.633838 8.53593L0.647301 8.45467L0.661695 8.37427L0.677018 8.2947L0.693269 8.21595L0.710446 8.138L0.728547 8.06084L0.747571 7.98445L0.767517 7.90882L0.788386 7.83392L0.810177 7.75975L0.83289 7.6863L0.856525 7.61354L0.881084 7.54147L0.906567 7.47008L0.932975 7.39935L0.96031 7.32927L0.988573 7.25984L1.01777 7.19104L1.04789 7.12286L1.07895 7.05529L1.11095 6.98833L1.1439 6.92196L1.17778 6.85617L1.21262 6.79096L1.2484 6.72632L1.28514 6.66224L1.32285 6.59871L1.36152 6.53573L1.40116 6.47328L1.44177 6.41136L1.48337 6.34996L1.52596 6.28907L1.56955 6.22869L1.61413 6.16881L1.65973 6.10942L1.70634 6.05052L1.75398 5.9921L1.80265 5.93415L1.85237 5.87666L1.90313 5.81963L1.95497 5.76306L2.00787 5.70693L2.06187 5.65123L2.11695 5.59597L2.17315 5.54113L2.23047 5.48671L2.28893 5.4327L2.34854 5.3791L2.40932 5.32589L2.47128 5.27307L2.53444 5.22063L2.59882 5.16856L2.66443 5.11686L2.73131 5.06552L2.79946 5.01453L2.86891 4.96388L2.93969 4.91357L3.01183 4.86357L3.08534 4.8139L3.16026 4.76452L3.23661 4.71545L3.31444 4.66665L3.39376 4.61813L3.47463 4.56987L3.55708 4.52186L3.64116 4.47409L3.7269 4.42654L3.81435 4.3792L3.90357 4.33205L3.99462 4.28507L4.08754 4.23826L4.18242 4.19159L4.2793 4.14504L4.37829 4.09859L4.47944 4.05221L4.58287 4.00589L4.68865 3.95959L4.79691 3.91328L4.90775 3.86693L5.02131 3.82051L5.13773 3.77398L5.25718 3.72728L5.37983 3.68038L5.50588 3.63322L5.63556 3.58574L5.76912 3.53787L5.90686 3.48952L6.04912 3.44062L6.19627 3.39104L6.34879 3.34068L6.5072 3.28939L6.67214 3.23699L6.8444 3.18327L7.02493 3.12799L7.21492 3.07081L7.41591 3.01134L7.62991 2.94902L7.85967 2.88312L8.10909 2.81259L8.38407 2.73587L8.69427 2.65034L9.05778 2.55118L9.51731 2.42693L10.2663 2.22577L11.8997 1.78827L12.4454 1.64285L12.8472 1.53665L13.1808 1.44936L13.4724 1.37396L13.7348 1.30703L13.9754 1.24659L14.1989 1.19139L14.4084 1.14055L14.6065 1.09345L14.7946 1.04963L14.9743 1.00873L15.1466 0.970462L15.3123 0.934599L15.4722 0.900954L15.6268 0.86937L15.7765 0.839715L15.922 0.811879L16.0634 0.785765L16.2011 0.761289L16.3354 0.738381L16.4665 0.716974L16.5946 0.697015L16.72 0.678451L16.8427 0.661241L16.963 0.645342L17.081 0.630719L17.1968 0.617341L17.3105 0.605178L17.4222 0.594203L17.532 0.584392L17.64 0.575723L17.7463 0.568177L17.8509 0.561734L17.954 0.556377L18.0555 0.552092L18.1556 0.548864L18.2543 0.54668L18.3516 0.545527L18.4477 0.545396L18.5424 0.546275L18.6359 0.548155L18.7283 0.551028L18.8195 0.554885L18.9096 0.55972L18.9986 0.565525L19.0865 0.572294L19.1735 0.580023L19.2594 0.588704L19.3444 0.598335L19.4284 0.60891L19.5115 0.620427L19.5937 0.632881L19.6751 0.646269L19.7555 0.660589L19.8352 0.675839L19.914 0.692016L19.992 0.709119L20.0692 0.727146L20.1457 0.746097L20.2214 0.76597L20.2963 0.786766L20.3705 0.808483L20.444 0.831123L20.5169 0.854685L20.589 0.87917L20.6604 0.904578L20.7312 0.930913L20.8013 0.958174L20.8708 0.986363L20.9397 1.01548L21.0079 1.04554L21.0755 1.07652L21.1425 1.10845L21.2089 1.14131L21.2748 1.17512L21.34 1.20988L21.4047 1.24559L21.4688 1.28226L21.5324 1.31989L21.5954 1.35848L21.6579 1.39804L21.7199 1.43858L21.7813 1.4801L21.8423 1.52261L21.9027 1.56611L21.9626 1.61062L22.022 1.65613L22.081 1.70266L22.1394 1.75022L22.1974 1.79881L22.2549 1.84844L22.312 1.89913L22.3686 1.95088L22.4248 2.0037L22.4805 2.0576L22.5358 2.1126L22.5907 2.16871L22.6451 2.22594L22.6992 2.28431L22.7528 2.34383L22.8061 2.40451L22.8589 2.46638L22.9114 2.52944L22.9635 2.59372L23.0152 2.65924L23.0666 2.72601L23.1176 2.79406L23.1683 2.86341L23.2186 2.93409L23.2686 3.00611L23.3183 3.07951L23.3677 3.15431L23.4168 3.23055L23.4656 3.30826L23.5142 3.38747L23.5625 3.46821L23.6105 3.55054L23.6583 3.63448L23.7059 3.72008L23.7532 3.8074L23.8004 3.89648L23.8474 3.98738L23.8942 4.08015L23.9409 4.17487L23.9874 4.27159L24.0339 4.3704L24.0803 4.47139L24.1266 4.57462L24.1729 4.68022L24.2192 4.78827L24.2655 4.8989L24.312 5.01224L24.3585 5.12843L24.4052 5.24763L24.452 5.37002L24.4992 5.49579L24.5466 5.62517L24.5945 5.75842L24.6428 5.89581L24.6916 6.03769L24.7411 6.18444L24.7914 6.33651L24.8427 6.49443L24.895 6.65883L24.9486 6.83047L25.0037 7.0103L25.0607 7.19949L25.12 7.39954L25.1821 7.61241L25.2477 7.84079L25.3178 8.08847L25.3939 8.36112L25.4786 8.66801L25.5764 9.02624L25.6979 9.47515L25.8861 10.1756L26.0676 10.8529Z" fill="#00A9E0"/>
</svg>
