<svg width="176" height="58" viewBox="0 0 176 58" fill="none" xmlns="http://www.w3.org/2000/svg">
<path d="M12.7928 40.7524C11.3324 40.7524 9.90522 40.5193 8.51123 40.0529C7.11725 39.5866 5.9224 38.9204 4.9267 38.0543L6.5862 35.2563C7.64829 36.0113 8.68272 36.5831 9.68948 36.9717C10.6963 37.3603 11.6975 37.5547 12.6932 37.5547C13.5783 37.5547 14.2753 37.3881 14.7842 37.055C15.2931 36.7219 15.5475 36.2445 15.5475 35.6227C15.5475 35.0009 15.2488 34.5456 14.6514 34.257C14.054 33.9683 13.0804 33.6352 11.7307 33.2576C10.6022 32.9467 9.6397 32.647 8.84314 32.3583C8.04657 32.0696 7.40489 31.742 6.91811 31.3756C6.43132 31.0092 6.07729 30.5873 5.85602 30.1098C5.63475 29.6324 5.52412 29.0606 5.52412 28.3944C5.52412 27.5061 5.6956 26.7067 6.03857 25.996C6.38153 25.2854 6.86279 24.6803 7.48234 24.1806C8.10189 23.681 8.82654 23.2979 9.65629 23.0314C10.486 22.765 11.3877 22.6317 12.3613 22.6317C13.6668 22.6317 14.8893 22.8205 16.0288 23.198C17.1683 23.5755 18.2138 24.1862 19.1653 25.03L17.373 27.7282C16.4879 27.062 15.6305 26.5734 14.8008 26.2625C13.971 25.9516 13.1468 25.7962 12.3281 25.7962C11.5758 25.7962 10.9452 25.9516 10.4363 26.2625C9.92735 26.5734 9.67289 27.0731 9.67289 27.7615C9.67289 28.0724 9.73374 28.3277 9.85544 28.5276C9.97713 28.7275 10.1707 28.9051 10.4363 29.0606C10.7018 29.216 11.0503 29.3659 11.4818 29.5103C11.9132 29.6546 12.4498 29.8045 13.0915 29.9599C14.2863 30.2708 15.3097 30.5817 16.1616 30.8926C17.0134 31.2035 17.7104 31.5588 18.2525 31.9586C18.7946 32.3583 19.1929 32.8191 19.4474 33.3409C19.7018 33.8628 19.8291 34.4901 19.8291 35.2229C19.8291 36.9329 19.1985 38.2819 17.9372 39.2701C16.676 40.2583 14.9612 40.7524 12.7928 40.7524Z" fill="white"/>
<path d="M27.4627 40.7525C26.6219 40.7525 25.8364 40.6137 25.1062 40.3361C24.376 40.0585 23.7454 39.6699 23.2144 39.1702C22.6833 38.6706 22.2684 38.0876 21.9697 37.4214C21.671 36.7552 21.5217 36.0224 21.5217 35.223C21.5217 34.4013 21.7042 33.6407 22.0693 32.9412C22.4344 32.2417 22.9433 31.6477 23.5961 31.1591C24.2488 30.6706 25.0288 30.2875 25.936 30.0099C26.8432 29.7323 27.8389 29.5935 28.9231 29.5935C29.6975 29.5935 30.4554 29.6602 31.1966 29.7934C31.9378 29.9267 32.5961 30.1154 33.1714 30.3597V29.3604C33.1714 28.2056 32.845 27.3173 32.1923 26.6956C31.5396 26.0738 30.5715 25.7629 29.2882 25.7629C28.3588 25.7629 27.4516 25.9294 26.5666 26.2625C25.6815 26.5956 24.7743 27.0842 23.845 27.7282L22.4842 24.8968C24.719 23.409 27.1308 22.665 29.7196 22.665C32.22 22.665 34.1616 23.2813 35.5445 24.5137C36.9274 25.7462 37.6189 27.5283 37.6189 29.86V35.2896C37.6189 35.7559 37.7019 36.089 37.8678 36.2889C38.0338 36.4887 38.3048 36.5998 38.681 36.622V40.4193C37.9287 40.5748 37.2759 40.6525 36.7228 40.6525C35.8819 40.6525 35.2347 40.4638 34.7811 40.0863C34.3275 39.7087 34.0454 39.2091 33.9348 38.5873L33.8352 37.6213C33.0608 38.6428 32.1204 39.42 31.0141 39.953C29.9077 40.486 28.7239 40.7525 27.4627 40.7525ZM28.7239 37.4881C29.4762 37.4881 30.1898 37.3548 30.8647 37.0883C31.5396 36.8218 32.0651 36.4666 32.4412 36.0224C32.928 35.6449 33.1714 35.223 33.1714 34.7566V32.758C32.6404 32.5582 32.0651 32.3972 31.4455 32.275C30.826 32.1529 30.2286 32.0918 29.6533 32.0918C28.5027 32.0918 27.5623 32.3527 26.8321 32.8746C26.1019 33.3965 25.7368 34.0571 25.7368 34.8566C25.7368 35.6116 26.0245 36.2389 26.5998 36.7386C27.1751 37.2382 27.8831 37.4881 28.7239 37.4881Z" fill="white"/>
<path d="M41.7014 43.8176C42.0776 43.9287 42.4427 44.0119 42.7967 44.0674C43.1507 44.123 43.4494 44.1507 43.6928 44.1507C43.9805 44.1507 44.246 44.0952 44.4894 43.9842C44.7328 43.8731 44.954 43.6788 45.1532 43.4013C45.3523 43.1237 45.5515 42.7406 45.7506 42.252C45.9498 41.7635 46.16 41.1528 46.3812 40.42L39.5109 22.9655H44.0911L48.8041 36.556L52.9861 22.9655H57.168L49.8662 43.8842C49.4458 45.1056 48.7267 46.1049 47.7088 46.8822C46.691 47.6594 45.4298 48.048 43.9252 48.048C43.5711 48.048 43.2116 48.0203 42.8465 47.9647C42.4814 47.9092 42.0997 47.8148 41.7014 47.6816V43.8176Z" fill="white"/>
<path d="M75.7543 40.4193H71.3068V30.6262C71.3068 29.2271 71.0634 28.2056 70.5766 27.5616C70.0899 26.9176 69.415 26.5956 68.552 26.5956C68.1095 26.5956 67.6559 26.6845 67.1912 26.8621C66.7266 27.0398 66.2896 27.2896 65.8802 27.6116C65.4709 27.9336 65.1003 28.3167 64.7684 28.7608C64.4365 29.2049 64.1931 29.6935 64.0382 30.2264V40.4193H59.5907V22.9648H63.6067V26.1959C64.2484 25.0856 65.1777 24.2195 66.3947 23.5977C67.6116 22.9759 68.9835 22.665 70.5103 22.665C71.5945 22.665 72.4795 22.8649 73.1655 23.2646C73.8514 23.6643 74.3824 24.1862 74.7586 24.8302C75.1348 25.4742 75.3947 26.207 75.5386 27.0287C75.6824 27.8503 75.7543 28.6831 75.7543 29.5269V40.4193Z" fill="white"/>
<path d="M79.6348 20.5341V16.1039H84.0823V20.5341H79.6348ZM79.6348 40.4203V22.9658H84.0823V40.4203H79.6348Z" fill="white"/>
<path d="M104.262 40.4193H99.8148V30.6262C99.8148 29.2271 99.5714 28.2056 99.0846 27.5616C98.5978 26.9176 97.9229 26.5956 97.06 26.5956C96.6174 26.5956 96.1638 26.6845 95.6992 26.8621C95.2345 27.0398 94.7975 27.2896 94.3882 27.6116C93.9788 27.9336 93.6082 28.3167 93.2763 28.7608C92.9444 29.2049 92.701 29.6935 92.5461 30.2264V40.4193H88.0986V22.9648H92.1146V26.1959C92.7563 25.0856 93.6856 24.2195 94.9026 23.5977C96.1196 22.9759 97.4914 22.665 99.0182 22.665C100.102 22.665 100.987 22.8649 101.673 23.2646C102.359 23.6643 102.89 24.1862 103.267 24.8302C103.643 25.4742 103.903 26.207 104.046 27.0287C104.19 27.8503 104.262 28.6831 104.262 29.5269V40.4193Z" fill="white"/>
<path d="M116.21 40.7525C114.816 40.7525 113.555 40.5137 112.427 40.0363C111.298 39.5588 110.336 38.9093 109.539 38.0876C108.743 37.266 108.129 36.3111 107.697 35.223C107.266 34.1348 107.05 32.9912 107.05 31.792C107.05 30.5484 107.26 29.377 107.681 28.2778C108.101 27.1786 108.709 26.2126 109.506 25.3798C110.303 24.5471 111.271 23.8864 112.41 23.3979C113.55 22.9093 114.828 22.665 116.244 22.665C117.66 22.665 118.927 22.9093 120.044 23.3979C121.161 23.8864 122.113 24.5415 122.898 25.3632C123.684 26.1848 124.281 27.1397 124.691 28.2278C125.1 29.316 125.305 30.4485 125.305 31.6255C125.305 31.9142 125.299 32.1917 125.288 32.4582C125.277 32.7247 125.249 32.9468 125.205 33.1244H111.763C111.829 33.8128 111.995 34.4235 112.261 34.9565C112.526 35.4894 112.869 35.9447 113.29 36.3222C113.71 36.6997 114.186 36.9884 114.717 37.1883C115.248 37.3881 115.801 37.4881 116.376 37.4881C117.262 37.4881 118.097 37.2715 118.882 36.8385C119.668 36.4055 120.204 35.8337 120.492 35.123L124.309 36.189C123.667 37.5214 122.644 38.6151 121.239 39.47C119.834 40.325 118.158 40.7525 116.21 40.7525ZM120.724 30.2264C120.614 28.9162 120.132 27.867 119.281 27.0786C118.429 26.2903 117.394 25.8961 116.177 25.8961C115.58 25.8961 115.021 26.0016 114.501 26.2126C113.981 26.4235 113.522 26.7178 113.124 27.0953C112.726 27.4728 112.399 27.928 112.145 28.461C111.89 28.994 111.741 29.5824 111.697 30.2264H120.724Z" fill="white"/>
<path d="M171.732 19.3655C171.732 9.38359 163.669 1.29199 153.723 1.29199C148.75 1.29199 144.25 3.31559 140.989 6.58553C137.731 9.85826 135.715 14.3746 135.715 19.3655C135.715 29.3475 143.777 37.4391 153.723 37.4391H162.729C157.756 37.4391 153.726 41.4835 153.726 46.4744C153.726 51.4654 157.756 55.5098 162.729 55.5098C167.702 55.5098 171.732 51.4654 171.732 46.4744V37.4391V19.3655ZM164.792 27.9318C166.3 27.9318 167.519 29.1587 167.519 30.6688C167.519 32.1788 166.3 33.4058 164.792 33.4058C163.285 33.4058 162.065 32.1788 162.065 30.6688C162.065 29.1587 163.285 27.9318 164.792 27.9318Z" fill="white"/>
</svg>
