<svg width="131" height="44" viewBox="0 0 131 44" fill="none" xmlns="http://www.w3.org/2000/svg">
<path d="M9.52087 30.9157C8.43389 30.9157 7.37162 30.7388 6.33405 30.385C5.29648 30.0313 4.40714 29.5259 3.66602 28.8688L4.90122 26.7462C5.69175 27.319 6.46169 27.7528 7.21104 28.0476C7.9604 28.3424 8.70564 28.4898 9.44676 28.4898C10.1055 28.4898 10.6243 28.3634 11.0031 28.1107C11.3819 27.8581 11.5713 27.4959 11.5713 27.0242C11.5713 26.5525 11.349 26.2071 10.9043 25.9881C10.4596 25.7691 9.73497 25.5164 8.73034 25.23C7.89041 24.9941 7.17399 24.7667 6.58109 24.5477C5.9882 24.3287 5.51058 24.0802 5.14826 23.8023C4.78593 23.5243 4.52242 23.2042 4.35773 22.842C4.19304 22.4798 4.11069 22.046 4.11069 21.5406C4.11069 20.8668 4.23833 20.2603 4.4936 19.7212C4.74888 19.1821 5.10709 18.723 5.56823 18.344C6.02937 17.9649 6.56874 17.6743 7.18634 17.4722C7.80394 17.27 8.47507 17.1689 9.19972 17.1689C10.1714 17.1689 11.0813 17.3121 11.9295 17.5985C12.7777 17.8849 13.5559 18.3482 14.264 18.9884L12.93 21.0352C12.2713 20.5298 11.6331 20.1592 11.0155 19.9233C10.3979 19.6875 9.78438 19.5696 9.17502 19.5696C8.61506 19.5696 8.14568 19.6875 7.76689 19.9233C7.38809 20.1592 7.19869 20.5382 7.19869 21.0605C7.19869 21.2963 7.24398 21.4901 7.33457 21.6417C7.42515 21.7933 7.56926 21.9281 7.76689 22.046C7.96452 22.1639 8.22391 22.2776 8.54506 22.3871C8.86622 22.4966 9.26559 22.6104 9.74321 22.7283C10.6326 22.9641 11.3943 23.2 12.0283 23.4359C12.6624 23.6717 13.1812 23.9412 13.5847 24.2445C13.9882 24.5477 14.2846 24.8973 14.474 25.2932C14.6634 25.6891 14.7581 26.165 14.7581 26.7209C14.7581 28.0181 14.2888 29.0415 13.35 29.7912C12.4112 30.5409 11.1349 30.9157 9.52087 30.9157Z" fill="white"/>
<path d="M20.4396 30.9148C19.8138 30.9148 19.2291 30.8096 18.6856 30.599C18.1421 30.3884 17.6727 30.0936 17.2775 29.7145C16.8822 29.3355 16.5734 28.8933 16.3511 28.3879C16.1287 27.8825 16.0176 27.3265 16.0176 26.7201C16.0176 26.0967 16.1535 25.5197 16.4252 24.9891C16.6969 24.4584 17.0757 24.0078 17.5616 23.6371C18.0474 23.2665 18.628 22.9759 19.3032 22.7653C19.9785 22.5548 20.7196 22.4495 21.5266 22.4495C22.103 22.4495 22.6671 22.5 23.2188 22.6011C23.7705 22.7022 24.2605 22.8454 24.6887 23.0307V22.2726C24.6887 21.3966 24.4458 20.7227 23.9599 20.251C23.4741 19.7793 22.7535 19.5434 21.7983 19.5434C21.1066 19.5434 20.4314 19.6698 19.7726 19.9225C19.1138 20.1752 18.4386 20.5458 17.7469 21.0344L16.734 18.8864C18.3974 17.7577 20.1926 17.1934 22.1195 17.1934C23.9805 17.1934 25.4257 17.6608 26.455 18.5958C27.4844 19.5308 27.999 20.8827 27.999 22.6516V26.7706C27.999 27.1244 28.0608 27.3771 28.1843 27.5287C28.3078 27.6803 28.5096 27.7645 28.7896 27.7814V30.6621C28.2296 30.7801 27.7438 30.839 27.332 30.839C26.7062 30.839 26.2245 30.6958 25.8868 30.4095C25.5492 30.1231 25.3392 29.744 25.2569 29.2723L25.1828 28.5395C24.6063 29.3144 23.9064 29.9041 23.0829 30.3084C22.2595 30.7127 21.3784 30.9148 20.4396 30.9148ZM21.3784 28.4384C21.9383 28.4384 22.4694 28.3373 22.9718 28.1352C23.4741 27.933 23.8652 27.6635 24.1452 27.3265C24.5075 27.0401 24.6887 26.7201 24.6887 26.3663V24.8501C24.2934 24.6985 23.8652 24.5763 23.4041 24.4837C22.9429 24.391 22.4983 24.3447 22.0701 24.3447C21.2137 24.3447 20.5137 24.5426 19.9702 24.9385C19.4267 25.3344 19.155 25.8356 19.155 26.4421C19.155 27.0149 19.3691 27.4908 19.7973 27.8698C20.2255 28.2489 20.7525 28.4384 21.3784 28.4384Z" fill="white"/>
<path d="M31.0387 33.2408C31.3186 33.325 31.5904 33.3882 31.8539 33.4303C32.1174 33.4724 32.3397 33.4935 32.5209 33.4935C32.735 33.4935 32.9326 33.4513 33.1138 33.3671C33.295 33.2829 33.4597 33.1355 33.6079 32.9249C33.7561 32.7143 33.9043 32.4237 34.0526 32.0531C34.2008 31.6825 34.3572 31.2192 34.5219 30.6632L29.4082 17.4219H32.8174L36.3253 27.7319L39.438 17.4219H42.5507L37.1159 33.2913C36.8029 34.2179 36.2677 34.976 35.5101 35.5656C34.7525 36.1552 33.8138 36.45 32.6938 36.45C32.4303 36.45 32.1627 36.429 31.891 36.3869C31.6192 36.3447 31.3351 36.2731 31.0387 36.1721V33.2408V33.2408Z" fill="white"/>
<path d="M56.3844 30.6621H53.074V23.2328C53.074 22.1715 52.8929 21.3966 52.5306 20.908C52.1682 20.4195 51.6659 20.1752 51.0236 20.1752C50.6942 20.1752 50.3566 20.2426 50.0107 20.3774C49.6649 20.5121 49.3396 20.7016 49.0349 20.9459C48.7302 21.1902 48.4544 21.4808 48.2073 21.8177C47.9603 22.1547 47.7791 22.5253 47.6639 22.9296V30.6621H44.3535V17.4208H47.3427V19.8719C47.8203 19.0296 48.512 18.3726 49.4178 17.9009C50.3237 17.4292 51.3448 17.1934 52.4811 17.1934C53.2881 17.1934 53.9469 17.345 54.4575 17.6482C54.968 17.9514 55.3633 18.3473 55.6433 18.8359C55.9232 19.3244 56.1168 19.8804 56.2238 20.5037C56.3309 21.127 56.3844 21.7588 56.3844 22.3989V30.6621Z" fill="white"/>
<path d="M59.2732 15.5777V12.2168H62.5835V15.5777H59.2732ZM59.2732 30.6637V17.4224H62.5835V30.6637H59.2732Z" fill="white"/>
<path d="M77.6031 30.6621H74.2928V23.2328C74.2928 22.1715 74.1116 21.3966 73.7493 20.908C73.387 20.4195 72.8847 20.1752 72.2423 20.1752C71.913 20.1752 71.5753 20.2426 71.2295 20.3774C70.8836 20.5121 70.5584 20.7016 70.2537 20.9459C69.949 21.1902 69.6731 21.4808 69.4261 21.8177C69.179 22.1547 68.9979 22.5253 68.8826 22.9296V30.6621H65.5723V17.4208H68.5614V19.8719C69.0391 19.0296 69.7308 18.3726 70.6366 17.9009C71.5424 17.4292 72.5635 17.1934 73.6999 17.1934C74.5069 17.1934 75.1657 17.345 75.6762 17.6482C76.1868 17.9514 76.582 18.3473 76.862 18.8359C77.142 19.3244 77.3355 19.8804 77.4425 20.5037C77.5496 21.127 77.6031 21.7588 77.6031 22.3989V30.6621Z" fill="white"/>
<path d="M86.496 30.9148C85.4585 30.9148 84.5197 30.7337 83.6798 30.3715C82.8399 30.0093 82.1234 29.5166 81.5305 28.8933C80.9376 28.2699 80.4806 27.5455 80.1595 26.7201C79.8383 25.8946 79.6777 25.027 79.6777 24.1173C79.6777 23.1739 79.8342 22.2852 80.1471 21.4513C80.46 20.6174 80.9129 19.8846 81.5058 19.2528C82.0987 18.6211 82.8193 18.1199 83.6674 17.7493C84.5156 17.3787 85.4667 17.1934 86.5208 17.1934C87.5748 17.1934 88.5177 17.3787 89.3494 17.7493C90.1811 18.1199 90.8893 18.6169 91.4739 19.2402C92.0586 19.8635 92.5033 20.5879 92.8079 21.4134C93.1126 22.2389 93.265 23.0981 93.265 23.9909C93.265 24.2099 93.2608 24.4205 93.2526 24.6227C93.2444 24.8248 93.2238 24.9933 93.1908 25.1281H83.1857C83.2351 25.6503 83.3586 26.1136 83.5563 26.5179C83.7539 26.9222 84.0092 27.2676 84.3221 27.554C84.635 27.8404 84.9891 28.0594 85.3844 28.211C85.7796 28.3626 86.1914 28.4384 86.6196 28.4384C87.2784 28.4384 87.9001 28.2742 88.4847 27.9457C89.0694 27.6171 89.4688 27.1833 89.6829 26.6443L92.5238 27.4529C92.0462 28.4637 91.2845 29.2934 90.2387 29.942C89.1929 30.5906 87.9454 30.9148 86.496 30.9148ZM89.8558 22.9296C89.7735 21.9357 89.4153 21.1396 88.7812 20.5416C88.1471 19.9435 87.3772 19.6445 86.4713 19.6445C86.0267 19.6445 85.6108 19.7245 85.2238 19.8846C84.8368 20.0446 84.495 20.2678 84.1986 20.5542C83.9021 20.8406 83.6592 21.186 83.4698 21.5903C83.2804 21.9946 83.1692 22.441 83.1363 22.9296H89.8558V22.9296Z" fill="white"/>
<path d="M127.824 14.6914C127.824 7.11892 121.823 0.980469 114.42 0.980469C110.718 0.980469 107.369 2.51561 104.942 4.99626C102.516 7.47902 101.016 10.9052 101.016 14.6914C101.016 22.2639 107.017 28.4024 114.42 28.4024H121.123C117.421 28.4024 114.422 31.4706 114.422 35.2568C114.422 39.0431 117.421 42.1112 121.123 42.1112C124.824 42.1112 127.824 39.0431 127.824 35.2568V28.4024V14.6914ZM122.658 21.19C123.78 21.19 124.688 22.1207 124.688 23.2663C124.688 24.4119 123.78 25.3427 122.658 25.3427C121.536 25.3427 120.629 24.4119 120.629 23.2663C120.629 22.1207 121.536 21.19 122.658 21.19Z" fill="white"/>
</svg>
