<svg width="99" height="892" viewBox="0 0 99 892" fill="none" xmlns="http://www.w3.org/2000/svg">
<path d="M51 702.5L52.419 702.986L52.433 702.945L52.4447 702.904L51 702.5ZM93.5001 534L92.0031 533.905L93.5001 534ZM51.0001 305.5L52.405 304.974L51.0001 305.5ZM2.00012 128L0.500115 128L2.00012 128ZM33 813.5L31.5022 813.581L33 813.5ZM45.8511 889.789C46.2867 890.493 47.2111 890.712 47.9157 890.276C48.6204 889.84 48.8385 888.916 48.4029 888.211L45.8511 889.789ZM46.8304 884.949C46.5058 884.187 45.6248 883.832 44.8626 884.157C44.1004 884.481 43.7456 885.362 44.0702 886.125L46.8304 884.949ZM41.3754 878.737C41.6262 879.527 42.4695 879.964 43.2591 879.713C44.0486 879.462 44.4854 878.619 44.2347 877.829L41.3754 878.737ZM42.1458 870.477C41.9412 869.674 41.1246 869.189 40.3218 869.394C39.519 869.598 39.0341 870.415 39.2388 871.218L42.1458 870.477ZM37.4853 863.636C37.6554 864.446 38.4505 864.966 39.2613 864.796C40.0721 864.626 40.5915 863.831 40.4214 863.02L37.4853 863.636ZM38.98 855.486C38.8379 854.67 38.061 854.123 37.2449 854.265C36.4287 854.408 35.8824 855.184 36.0246 856.001L38.98 855.486ZM34.8051 848.335C34.9238 849.155 35.6847 849.724 36.5046 849.605C37.3245 849.486 37.8928 848.725 37.7741 847.905L34.8051 848.335ZM36.7675 840.283C36.6689 839.46 35.9222 838.873 35.0996 838.972C34.2771 839.07 33.6902 839.817 33.7888 840.64L36.7675 840.283ZM32.9489 832.916C33.0298 833.74 33.7637 834.343 34.5882 834.262C35.4126 834.181 36.0155 833.447 35.9346 832.623L32.9489 832.916ZM35.2586 824.966C35.1935 824.14 34.4712 823.523 33.6453 823.588C32.8195 823.653 32.2028 824.376 32.2679 825.201L35.2586 824.966ZM31.7261 817.471C31.7771 818.298 32.4887 818.927 33.3155 818.876C34.1424 818.825 34.7714 818.114 34.7204 817.287L31.7261 817.471ZM34.3866 809.489C34.3814 808.66 33.7056 807.993 32.8772 807.998C32.0488 808.003 31.3814 808.679 31.3866 809.507L34.3866 809.489ZM31.5982 801.342C31.5546 802.17 32.19 802.876 33.0173 802.919C33.8446 802.963 34.5505 802.327 34.594 801.5L31.5982 801.342ZM35.1679 793.53C35.2414 792.705 34.6321 791.977 33.8069 791.903C32.9817 791.83 32.2532 792.439 32.1798 793.264L35.1679 793.53ZM33.0066 785.21C32.912 786.033 33.5024 786.777 34.3254 786.872C35.1484 786.967 35.8923 786.376 35.987 785.553L33.0066 785.21ZM36.9869 777.585C37.0979 776.764 36.5224 776.009 35.7014 775.898C34.8805 775.787 34.125 776.362 34.014 777.183L36.9869 777.585ZM35.1643 769.181C35.04 770 35.6031 770.765 36.4222 770.889C37.2412 771.013 38.006 770.45 38.1303 769.631L35.1643 769.181ZM39.3941 761.692C39.53 760.875 38.9776 760.102 38.1604 759.966C37.3432 759.831 36.5706 760.383 36.4347 761.2L39.3941 761.692ZM37.8108 753.241C37.6645 754.056 38.207 754.836 39.0224 754.982C39.8378 755.128 40.6174 754.586 40.7637 753.77L37.8108 753.241ZM42.2308 745.867C42.3869 745.053 41.8539 744.267 41.0403 744.111C40.2267 743.955 39.4406 744.488 39.2845 745.301L42.2308 745.867ZM40.8537 737.38C40.6878 738.191 41.2113 738.984 42.0229 739.15C42.8345 739.316 43.627 738.792 43.7929 737.981L40.8537 737.38ZM45.4535 730.111C45.6298 729.302 45.1166 728.502 44.3072 728.326C43.4978 728.15 42.6986 728.663 42.5223 729.472L45.4535 730.111ZM44.3024 721.58C44.1138 722.387 44.6148 723.194 45.4215 723.382C46.2281 723.571 47.035 723.07 47.2236 722.263L44.3024 721.58ZM49.1225 714.478C49.3276 713.676 48.8432 712.859 48.0406 712.654C47.2379 712.449 46.421 712.933 46.2159 713.736L49.1225 714.478ZM48.349 705.915C48.1142 706.71 48.5679 707.544 49.3624 707.779C50.1568 708.014 50.9912 707.56 51.226 706.765L48.349 705.915ZM53.5346 699.136C53.7713 698.342 53.3195 697.507 52.5256 697.27C51.7317 697.033 50.8963 697.485 50.6596 698.279L53.5346 699.136ZM53.0195 690.688C52.7661 691.477 53.2001 692.322 53.9889 692.575C54.7776 692.828 55.6224 692.394 55.8757 691.606L53.0195 690.688ZM58.3403 684.087C58.602 683.301 58.1769 682.451 57.3909 682.19C56.6049 681.928 55.7556 682.353 55.4939 683.139L58.3403 684.087ZM58.0203 675.616C57.7552 676.401 58.1765 677.252 58.9614 677.517C59.7462 677.782 60.5974 677.361 60.8625 676.576L58.0203 675.616ZM63.3969 669.084C63.6623 668.299 63.2412 667.448 62.4564 667.183C61.6716 666.917 60.8203 667.338 60.555 668.123L63.3969 669.084ZM63.0856 660.612C62.8223 661.397 63.2456 662.248 64.0311 662.511C64.8165 662.774 65.6667 662.351 65.93 661.565L63.0856 660.612ZM68.4325 654.044C68.692 653.257 68.2645 652.409 67.4778 652.149C66.691 651.89 65.8429 652.317 65.5834 653.104L68.4325 654.044ZM68.039 645.577C67.7848 646.366 68.218 647.211 69.0064 647.465C69.7949 647.72 70.6401 647.286 70.8943 646.498L68.039 645.577ZM73.2976 638.94C73.5452 638.15 73.1052 637.308 72.3146 637.06C71.5241 636.813 70.6825 637.253 70.4348 638.043L73.2976 638.94ZM72.7669 630.474C72.5269 631.267 72.9751 632.105 73.7679 632.345C74.5608 632.585 75.3982 632.137 75.6382 631.344L72.7669 630.474ZM77.8949 623.742C78.1262 622.946 77.6689 622.114 76.8734 621.883C76.078 621.651 75.2456 622.109 75.0142 622.904L77.8949 623.742ZM77.1762 615.3C76.9546 616.098 77.4221 616.925 78.2203 617.146C79.0186 617.368 79.8453 616.901 80.0669 616.102L77.1762 615.3ZM82.1429 608.428C82.3538 607.627 81.8753 606.807 81.0741 606.596C80.273 606.385 79.4526 606.864 79.2417 607.665L82.1429 608.428ZM81.1966 600.015C80.9974 600.819 81.4878 601.633 82.2919 601.832C83.0961 602.031 83.9094 601.541 84.1086 600.737L81.1966 600.015ZM85.9586 593.009C86.1451 592.201 85.6418 591.396 84.8346 591.21C84.0275 591.023 83.222 591.526 83.0356 592.334L85.9586 593.009ZM84.7481 584.622C84.5755 585.432 85.0925 586.229 85.9027 586.401C86.713 586.574 87.5097 586.057 87.6823 585.247L84.7481 584.622ZM89.2677 577.456C89.4253 576.642 88.8938 575.855 88.0805 575.698C87.2672 575.54 86.4801 576.071 86.3225 576.885L89.2677 577.456ZM87.7481 569.123C87.6067 569.939 88.1537 570.716 88.9699 570.857C89.7862 570.999 90.5626 570.452 90.7041 569.635L87.7481 569.123ZM91.9803 561.783C92.1044 560.964 91.541 560.2 90.722 560.076C89.9029 559.951 89.1383 560.515 89.0142 561.334L91.9803 561.783ZM90.1081 553.521C90.0027 554.343 90.5834 555.094 91.4051 555.199C92.2268 555.305 92.9783 554.724 93.0837 553.903L90.1081 553.521ZM94.001 545.996C94.0863 545.172 93.4874 544.435 92.6634 544.35C91.8394 544.264 91.1022 544.863 91.0169 545.687L94.001 545.996ZM91.727 537.836C91.6633 538.662 92.2813 539.383 93.1073 539.447C93.9333 539.511 94.6545 538.893 94.7182 538.067L91.727 537.836ZM95.2338 530.154C95.2808 529.327 94.6484 528.618 93.8213 528.571C92.9942 528.524 92.2856 529.157 92.2386 529.984L95.2338 530.154ZM92.6296 522.195C92.5937 523.022 93.2355 523.723 94.0631 523.758C94.8908 523.794 95.5909 523.153 95.6268 522.325L92.6296 522.195ZM95.9114 514.49C95.9354 513.662 95.2837 512.971 94.4556 512.947C93.6275 512.923 92.9367 513.575 92.9126 514.403L95.9114 514.49ZM93.0803 506.608C93.0689 507.436 93.7311 508.117 94.5595 508.128C95.3878 508.14 96.0686 507.478 96.08 506.649L93.0803 506.608ZM96.1253 498.805C96.1233 497.977 95.4501 497.307 94.6217 497.309C93.7933 497.311 93.1233 497.984 93.1253 498.813L96.1253 498.805ZM93.0404 491.019C93.0565 491.847 93.7411 492.505 94.5694 492.489C95.3977 492.473 96.056 491.788 96.0398 490.96L93.0404 491.019ZM95.8163 483.116C95.7852 482.288 95.0889 481.642 94.261 481.673C93.4332 481.705 92.7873 482.401 92.8184 483.229L95.8163 483.116ZM92.453 475.446C92.4997 476.273 93.2081 476.906 94.0352 476.859C94.8623 476.813 95.495 476.104 95.4483 475.277L92.453 475.446ZM94.93 467.446C94.8672 466.62 94.1467 466.002 93.3206 466.064C92.4946 466.127 91.8758 466.848 91.9387 467.674L94.93 467.446ZM91.2706 459.915C91.35 460.74 92.0828 461.344 92.9075 461.264C93.7321 461.185 94.3362 460.452 94.2568 459.627L91.2706 459.915ZM93.4253 451.824C93.3291 451.001 92.5841 450.412 91.7613 450.508C90.9384 450.605 90.3494 451.35 90.4456 452.172L93.4253 451.824ZM89.4616 444.448C89.5748 445.269 90.3318 445.842 91.1525 445.729C91.9731 445.616 92.5467 444.859 92.4335 444.038L89.4616 444.448ZM91.2805 436.269C91.1505 435.451 90.3818 434.894 89.5637 435.024C88.7455 435.154 88.1877 435.922 88.3177 436.74L91.2805 436.269ZM87.0165 429.059C87.1631 429.875 87.943 430.417 88.7583 430.27C89.5737 430.124 90.1158 429.344 89.9691 428.528L87.0165 429.059ZM88.503 420.817C88.3403 420.005 87.5499 419.478 86.7376 419.641C85.9253 419.804 85.3988 420.594 85.5615 421.406L88.503 420.817ZM83.9577 413.782C84.1359 414.591 84.9362 415.103 85.7452 414.925C86.5543 414.746 87.0657 413.946 86.8875 413.137L83.9577 413.782ZM85.1294 405.489C84.9366 404.683 84.1271 404.186 83.3215 404.379C82.5158 404.572 82.019 405.381 82.2118 406.187L85.1294 405.489ZM80.3317 398.62C80.5382 399.422 81.356 399.905 82.1583 399.699C82.9605 399.492 83.4435 398.674 83.237 397.872L80.3317 398.62ZM81.2209 390.292C81.0018 389.493 80.1765 389.023 79.3776 389.243C78.5786 389.462 78.1087 390.287 78.3278 391.086L81.2209 390.292ZM76.2104 383.584C76.4411 384.379 77.2731 384.837 78.0688 384.606C78.8644 384.376 79.3224 383.544 79.0917 382.748L76.2104 383.584ZM76.8592 375.235C76.6181 374.443 75.7802 373.996 74.9876 374.237C74.195 374.478 73.748 375.316 73.989 376.108L76.8592 375.235ZM71.6743 368.659C71.9247 369.448 72.7678 369.886 73.5575 369.635C74.3472 369.385 74.7844 368.542 74.5341 367.752L71.6743 368.659ZM72.127 360.296C71.8686 359.509 71.021 359.08 70.2339 359.339C69.4468 359.597 69.0183 360.445 69.2768 361.232L72.127 360.296ZM66.8068 353.826C67.0723 354.611 67.9238 355.032 68.7085 354.766C69.4932 354.501 69.914 353.649 69.6484 352.865L66.8068 353.826ZM67.1082 345.456C66.8366 344.673 65.9819 344.259 65.1993 344.531C64.4167 344.802 64.0024 345.657 64.2741 346.44L67.1082 345.456ZM61.688 339.07C61.9648 339.85 62.8222 340.259 63.603 339.982C64.3838 339.706 64.7924 338.848 64.5157 338.067L61.688 339.07ZM61.8794 330.696C61.5983 329.917 60.7388 329.513 59.9595 329.794C59.1802 330.075 58.7762 330.935 59.0573 331.714L61.8794 330.696ZM56.3897 324.371C56.6743 325.149 57.5356 325.549 58.3137 325.264C59.0917 324.98 59.4918 324.118 59.2072 323.34L56.3897 324.371ZM56.5063 315.997C56.219 315.22 55.3562 314.823 54.5792 315.11C53.8021 315.397 53.4052 316.26 53.6924 317.037L56.5063 315.997ZM50.9717 309.711C51.2611 310.487 52.125 310.882 52.9012 310.593C53.6775 310.303 54.0721 309.439 53.7827 308.663L50.9717 309.711ZM51.0326 301.329C50.7392 300.554 49.8732 300.164 49.0985 300.457C48.3238 300.751 47.9337 301.617 48.2271 302.392L51.0326 301.329ZM45.4658 295.186C45.7651 295.958 46.634 296.342 47.4064 296.042C48.1789 295.743 48.5625 294.874 48.2632 294.102L45.4658 295.186ZM45.4449 286.9C45.1406 286.13 44.2692 285.752 43.4987 286.056C42.7282 286.361 42.3504 287.232 42.6548 288.003L45.4449 286.9ZM39.7971 280.827C40.1056 281.596 40.9789 281.969 41.7478 281.661C42.5166 281.352 42.8899 280.479 42.5814 279.71L39.7971 280.827ZM39.6824 272.526C39.371 271.758 38.4963 271.388 37.7286 271.699C36.9609 272.011 36.591 272.886 36.9023 273.653L39.6824 272.526ZM33.9899 266.494C34.3026 267.261 35.178 267.629 35.9452 267.317C36.7123 267.004 37.0807 266.128 36.768 265.361L33.9899 266.494ZM33.8538 258.212C33.5414 257.444 32.6662 257.076 31.8989 257.388C31.1316 257.7 30.7629 258.576 31.0752 259.343L33.8538 258.212ZM28.1644 252.165C28.4744 252.934 29.3484 253.305 30.1167 252.995C30.8849 252.685 31.2565 251.811 30.9465 251.043L28.1644 252.165ZM28.0771 243.873C27.7719 243.103 26.9001 242.726 26.13 243.032C25.3598 243.337 24.983 244.209 25.2882 244.979L28.0771 243.873ZM22.4674 237.769C22.7655 238.542 23.6336 238.927 24.4066 238.629C25.1796 238.331 25.5646 237.463 25.2666 236.69L22.4674 237.769ZM22.535 229.473C22.247 228.696 21.3839 228.3 20.6071 228.588C19.8304 228.876 19.4342 229.739 19.7222 230.516L22.535 229.473ZM17.0848 223.226C17.36 224.008 18.2165 224.418 18.9979 224.143C19.7793 223.868 20.1896 223.011 19.9144 222.23L17.0848 223.226ZM17.4257 214.939C17.1661 214.152 16.318 213.724 15.5313 213.984C14.7445 214.244 14.3172 215.092 14.5767 215.878L17.4257 214.939ZM12.2274 208.476C12.4686 209.269 13.3067 209.716 14.0992 209.474C14.8917 209.233 15.3386 208.395 15.0974 207.602L12.2274 208.476ZM12.9521 200.217C12.7316 199.418 11.9055 198.95 11.1069 199.17C10.3084 199.391 9.83985 200.217 10.0604 201.015L12.9521 200.217ZM8.0952 193.492C8.29312 194.297 9.10569 194.789 9.91013 194.591C10.7146 194.393 11.2062 193.58 11.0083 192.776L8.0952 193.492ZM9.28285 185.287C9.10894 184.477 8.31136 183.962 7.50139 184.136C6.69142 184.309 6.17579 185.107 6.34969 185.917L9.28285 185.287ZM4.8334 178.29C4.98246 179.105 5.76391 179.645 6.57881 179.495C7.39372 179.346 7.93349 178.565 7.78443 177.75L4.8334 178.29ZM6.51693 170.163C6.39299 169.344 5.6285 168.78 4.80939 168.904C3.99029 169.028 3.42676 169.793 3.5507 170.612L6.51693 170.163ZM2.50523 162.916C2.60439 163.739 3.35153 164.325 4.174 164.226C4.99647 164.127 5.58282 163.379 5.48366 162.557L2.50523 162.916ZM4.67573 154.909C4.60068 154.084 3.87103 153.476 3.04601 153.551C2.22099 153.626 1.61302 154.356 1.68807 155.181L4.67573 154.909ZM1.09204 147.415C1.14397 148.242 1.85632 148.87 2.68312 148.818C3.50992 148.766 4.13807 148.054 4.08614 147.227L1.09204 147.415ZM3.7068 139.559C3.67664 138.731 2.98106 138.085 2.15319 138.115C1.32531 138.145 0.678627 138.841 0.708785 139.668L3.7068 139.559ZM0.522962 131.909C0.532704 132.737 1.21213 133.401 2.0405 133.391C2.86887 133.381 3.5325 132.702 3.52275 131.873L0.522962 131.909ZM3.51163 123.871C3.5163 123.043 2.84853 122.367 2.02012 122.363C1.1917 122.358 0.516351 123.026 0.511675 123.854L3.51163 123.871ZM0.607764 115.645C0.592809 116.473 1.25215 117.157 2.08044 117.172C2.90873 117.186 3.59232 116.527 3.60728 115.699L0.607764 115.645ZM3.81208 107.525C3.83891 106.697 3.18945 106.004 2.36146 105.977C1.53346 105.95 0.840488 106.599 0.813653 107.427L3.81208 107.525ZM1.14811 99.1854C1.10741 100.013 1.74518 100.717 2.5726 100.757C3.40003 100.798 4.10379 100.16 4.14449 99.3328L1.14811 99.1854ZM4.62246 91.1937C4.67933 90.3672 4.05544 89.6512 3.22897 89.5943C2.40249 89.5374 1.6864 90.1613 1.62954 90.9878L4.62246 91.1937ZM2.28952 82.7542C2.21347 83.5791 2.82055 84.3095 3.64548 84.3856C4.47041 84.4616 5.2008 83.8546 5.27685 83.0296L2.28952 82.7542ZM6.13338 74.9261C6.23215 74.1036 5.64543 73.3568 4.82291 73.258C4.00039 73.1592 3.25355 73.746 3.15478 74.5685L6.13338 74.9261ZM4.26976 66.3931C4.14384 67.2119 4.70552 67.9777 5.52432 68.1037C6.34312 68.2296 7.10897 67.6679 7.2349 66.8491L4.26976 66.3931ZM8.629 58.8196C8.78746 58.0065 8.25675 57.2188 7.44362 57.0604C6.63048 56.9019 5.84286 57.4326 5.6844 58.2457L8.629 58.8196ZM7.45459 50.1658C7.25742 50.9704 7.74985 51.7825 8.55447 51.9797C9.35909 52.1769 10.1712 51.6844 10.3684 50.8798L7.45459 50.1658ZM12.5187 43.0494C12.7614 42.2573 12.316 41.4185 11.5239 41.1758C10.7318 40.9332 9.89295 41.3786 9.65029 42.1707L12.5187 43.0494ZM12.3391 34.3103C12.0447 35.0847 12.4338 35.9511 13.2081 36.2455C13.9825 36.5399 14.8489 36.1509 15.1433 35.3765L12.3391 34.3103ZM18.2885 27.9255C18.6387 27.1747 18.3139 26.2822 17.5631 25.9321C16.8123 25.5819 15.9198 25.9067 15.5697 26.6575L18.2885 27.9255ZM19.3653 19.26C18.9598 19.9824 19.2167 20.8967 19.9391 21.3023C20.6614 21.7078 21.5758 21.4509 21.9813 20.7285L19.3653 19.26ZM26.1951 13.812C26.65 13.1196 26.4574 12.1895 25.765 11.7347C25.0726 11.2798 24.1426 11.4724 23.6877 12.1648L26.1951 13.812ZM28.4409 5.37647C27.9476 6.042 28.0872 6.98139 28.7528 7.47473C29.4183 7.96802 30.3578 7.82837 30.8511 7.16278L28.4409 5.37647ZM47.127 889C48.4029 888.211 48.403 888.211 48.4031 888.212C48.4031 888.212 48.4032 888.212 48.4033 888.212C48.4035 888.212 48.4036 888.212 48.4037 888.213C48.404 888.213 48.4042 888.213 48.4043 888.214C48.4047 888.214 48.4049 888.215 48.4049 888.215C48.4049 888.215 48.4043 888.214 48.4031 888.212C48.4007 888.208 48.3957 888.199 48.3884 888.187C48.3736 888.162 48.3492 888.12 48.3155 888.06C48.2482 887.941 48.144 887.751 48.0073 887.486C47.7339 886.956 47.3302 886.123 46.8304 884.949L44.0702 886.125C44.5978 887.364 45.0325 888.263 45.3406 888.86C45.4946 889.159 45.617 889.383 45.7035 889.536C45.7467 889.613 45.781 889.672 45.8058 889.713C45.8182 889.734 45.8282 889.751 45.8357 889.764C45.8395 889.77 45.8427 889.775 45.8453 889.779C45.8465 889.781 45.8477 889.783 45.8486 889.785C45.8491 889.786 45.8496 889.786 45.85 889.787C45.8502 889.787 45.8504 889.788 45.8506 889.788C45.8507 889.788 45.8508 889.788 45.8508 889.788C45.851 889.789 45.8511 889.789 47.127 889ZM44.2347 877.829C43.5716 875.742 42.8659 873.302 42.1458 870.477L39.2388 871.218C39.9726 874.097 40.6942 876.592 41.3754 878.737L44.2347 877.829ZM40.4214 863.02C39.9343 860.697 39.451 858.189 38.98 855.486L36.0246 856.001C36.5012 858.737 36.991 861.279 37.4853 863.636L40.4214 863.02ZM37.7741 847.905C37.4247 845.493 37.0877 842.954 36.7675 840.283L33.7888 840.64C34.1119 843.335 34.4521 845.899 34.8051 848.335L37.7741 847.905ZM35.9346 832.623C35.6938 830.168 35.4677 827.617 35.2586 824.966L32.2679 825.201C32.4784 827.871 32.7063 830.442 32.9489 832.916L35.9346 832.623ZM34.7204 817.287C34.6423 816.019 34.568 814.73 34.4979 813.42L31.5022 813.581C31.5728 814.898 31.6475 816.195 31.7261 817.471L34.7204 817.287ZM34.4979 813.42C34.4318 812.186 34.3952 810.874 34.3866 809.489L31.3866 809.507C31.3955 810.933 31.4332 812.293 31.5022 813.581L34.4979 813.42ZM34.594 801.5C34.7271 798.97 34.921 796.304 35.1679 793.53L32.1798 793.264C31.9301 796.068 31.7334 798.771 31.5982 801.342L34.594 801.5ZM35.987 785.553C36.2864 782.951 36.6215 780.288 36.9869 777.585L34.014 777.183C33.6462 779.903 33.3085 782.586 33.0066 785.21L35.987 785.553ZM38.1303 769.631C38.5305 766.996 38.9533 764.343 39.3941 761.692L36.4347 761.2C35.9918 763.864 35.5667 766.53 35.1643 769.181L38.1303 769.631ZM40.7637 753.77C41.241 751.109 41.7317 748.468 42.2308 745.867L39.2845 745.301C38.7832 747.914 38.2903 750.567 37.8108 753.241L40.7637 753.77ZM43.7929 737.981C44.3448 735.28 44.9004 732.649 45.4535 730.111L42.5223 729.472C41.9664 732.024 41.4081 734.667 40.8537 737.38L43.7929 737.981ZM47.2236 722.263C47.874 719.482 48.5106 716.873 49.1225 714.478L46.2159 713.736C45.5983 716.152 44.9568 718.781 44.3024 721.58L47.2236 722.263ZM51.226 706.765C51.6518 705.325 52.0513 704.059 52.419 702.986L49.5811 702.014C49.1958 703.137 48.7832 704.446 48.349 705.915L51.226 706.765ZM52.4447 702.904C52.7836 701.691 53.1475 700.434 53.5346 699.136L50.6596 698.279C50.2683 699.592 49.8995 700.865 49.5554 702.096L52.4447 702.904ZM55.8757 691.606C56.6472 689.204 57.4717 686.696 58.3403 684.087L55.4939 683.139C54.6232 685.755 53.7952 688.273 53.0195 690.688L55.8757 691.606ZM60.8625 676.576C61.6831 674.147 62.5292 671.65 63.3969 669.084L60.555 668.123C59.6884 670.686 58.8408 673.187 58.0203 675.616L60.8625 676.576ZM65.93 661.565C66.7536 659.109 67.5893 656.6 68.4325 654.044L65.5834 653.104C64.7421 655.655 63.9079 658.159 63.0856 660.612L65.93 661.565ZM70.8943 646.498C71.6941 644.017 72.4965 641.497 73.2976 638.94L70.4348 638.043C69.6364 640.591 68.8366 643.104 68.039 645.577L70.8943 646.498ZM75.6382 631.344C76.3962 628.84 77.1495 626.305 77.8949 623.742L75.0142 622.904C74.2721 625.456 73.5219 627.98 72.7669 630.474L75.6382 631.344ZM80.0669 616.102C80.7705 613.568 81.4635 611.009 82.1429 608.428L79.2417 607.665C78.5659 610.232 77.8764 612.778 77.1762 615.3L80.0669 616.102ZM84.1086 600.737C84.7421 598.179 85.3597 595.602 85.9586 593.009L83.0356 592.334C82.4403 594.911 81.8264 597.472 81.1966 600.015L84.1086 600.737ZM87.6823 585.247C88.2325 582.663 88.7618 580.066 89.2677 577.456L86.3225 576.885C85.8203 579.476 85.2946 582.056 84.7481 584.622L87.6823 585.247ZM90.7041 569.635C91.1561 567.028 91.5823 564.41 91.9803 561.783L89.0142 561.334C88.6195 563.939 88.1966 566.536 87.7481 569.123L90.7041 569.635ZM93.0837 553.903C93.421 551.273 93.7277 548.637 94.001 545.996L91.0169 545.687C90.7462 548.303 90.4424 550.915 90.1081 553.521L93.0837 553.903ZM94.7182 538.067C94.8202 536.743 94.9133 535.419 94.9971 534.095L92.0031 533.905C91.9201 535.216 91.828 536.526 91.727 537.836L94.7182 538.067ZM94.9971 534.095C95.0807 532.773 95.1596 531.46 95.2338 530.154L92.2386 529.984C92.1648 531.283 92.0863 532.59 92.0031 533.905L94.9971 534.095ZM95.6268 522.325C95.7415 519.683 95.8363 517.071 95.9114 514.49L92.9126 514.403C92.838 516.97 92.7437 519.566 92.6296 522.195L95.6268 522.325ZM96.08 506.649C96.1165 504.005 96.1316 501.391 96.1253 498.805L93.1253 498.813C93.1315 501.382 93.1166 503.98 93.0803 506.608L96.08 506.649ZM96.0398 490.96C95.9881 488.318 95.9136 485.704 95.8163 483.116L92.8184 483.229C92.915 485.799 92.9891 488.395 93.0404 491.019L96.0398 490.96ZM95.4483 475.277C95.2996 472.643 95.1268 470.034 94.93 467.446L91.9387 467.674C92.1339 470.241 92.3055 472.831 92.453 475.446L95.4483 475.277ZM94.2568 459.627C94.0046 457.007 93.7273 454.407 93.4253 451.824L90.4456 452.172C90.7453 454.735 91.0204 457.315 91.2706 459.915L94.2568 459.627ZM92.4335 444.038C92.0745 441.435 91.6901 438.846 91.2805 436.269L88.3177 436.74C88.7241 439.297 89.1055 441.865 89.4616 444.448L92.4335 444.038ZM89.9691 428.528C89.5055 425.95 89.0167 423.381 88.503 420.817L85.5615 421.406C86.0714 423.951 86.5565 426.501 87.0165 429.059L89.9691 428.528ZM86.8875 413.137C86.3258 410.587 85.7396 408.038 85.1294 405.489L82.2118 406.187C82.8179 408.719 83.4 411.25 83.9577 413.782L86.8875 413.137ZM83.237 397.872C82.5879 395.351 81.9158 392.825 81.2209 390.292L78.3278 391.086C79.0187 393.604 79.6867 396.115 80.3317 398.62L83.237 397.872ZM79.0917 382.748C78.3689 380.255 77.6246 377.752 76.8592 375.235L73.989 376.108C74.7508 378.613 75.4914 381.104 76.2104 383.584L79.0917 382.748ZM74.5341 367.752C73.7513 365.283 72.9488 362.798 72.127 360.296L69.2768 361.232C70.0956 363.725 70.8948 366.2 71.6743 368.659L74.5341 367.752ZM69.6484 352.865C68.8194 350.415 67.9726 347.946 67.1082 345.456L64.2741 346.44C65.1361 348.923 65.9804 351.385 66.8068 353.826L69.6484 352.865ZM64.5157 338.067C63.6528 335.633 62.7739 333.177 61.8794 330.696L59.0573 331.714C59.9502 334.19 60.8271 336.641 61.688 339.07L64.5157 338.067ZM59.2072 323.34C58.3211 320.917 57.4207 318.47 56.5063 315.997L53.6924 317.037C54.6058 319.508 55.5049 321.951 56.3897 324.371L59.2072 323.34ZM53.7827 308.663C53.3267 307.44 52.8675 306.211 52.405 304.974L49.5952 306.026C50.0573 307.261 50.5161 308.489 50.9717 309.711L53.7827 308.663ZM52.405 304.974C51.9466 303.749 51.4891 302.534 51.0326 301.329L48.2271 302.392C48.6822 303.593 49.1382 304.804 49.5952 306.026L52.405 304.974ZM48.2632 294.102C47.3178 291.662 46.378 289.263 45.4449 286.9L42.6548 288.003C43.5857 290.359 44.523 292.752 45.4658 295.186L48.2632 294.102ZM42.5814 279.71C41.606 277.279 40.6392 274.885 39.6824 272.526L36.9023 273.653C37.8581 276.01 38.8234 278.4 39.7971 280.827L42.5814 279.71ZM36.768 265.361C35.7836 262.947 34.812 260.566 33.8538 258.212L31.0752 259.343C32.0338 261.698 33.0061 264.08 33.9899 266.494L36.768 265.361ZM30.9465 251.043C29.9728 248.629 29.0158 246.241 28.0771 243.873L25.2882 244.979C26.2297 247.354 27.189 249.748 28.1644 252.165L30.9465 251.043ZM25.2666 236.69C24.334 234.271 23.4229 231.868 22.535 229.473L19.7222 230.516C20.6151 232.924 21.5308 235.34 22.4674 237.769L25.2666 236.69ZM19.9144 222.23C19.0582 219.799 18.228 217.37 17.4257 214.939L14.5767 215.878C15.3858 218.331 16.2225 220.778 17.0848 223.226L19.9144 222.23ZM15.0974 207.602C14.3519 205.153 13.6362 202.694 12.9521 200.217L10.0604 201.015C10.7518 203.519 11.4748 206.003 12.2274 208.476L15.0974 207.602ZM11.0083 192.776C10.4004 190.305 9.82463 187.811 9.28285 185.287L6.34969 185.917C6.89788 188.47 7.48034 190.993 8.0952 193.492L11.0083 192.776ZM7.78443 177.75C7.32826 175.256 6.90522 172.729 6.51693 170.163L3.5507 170.612C3.94362 173.208 4.37173 175.766 4.8334 178.29L7.78443 177.75ZM5.48366 162.557C5.18132 160.049 4.91154 157.502 4.67573 154.909L1.68807 155.181C1.92652 157.802 2.19936 160.379 2.50523 162.916L5.48366 162.557ZM4.08614 147.227C3.92841 144.716 3.80158 142.161 3.7068 139.559L0.708785 139.668C0.804511 142.296 0.932635 144.877 1.09204 147.415L4.08614 147.227ZM3.52275 131.873C3.50771 130.594 3.50012 129.303 3.50012 128L0.500115 128C0.500118 129.315 0.507773 130.617 0.522962 131.909L3.52275 131.873ZM3.50012 128C3.50011 126.607 3.50396 125.231 3.51163 123.871L0.511675 123.854C0.503972 125.219 0.500112 126.601 0.500115 128L3.50012 128ZM3.60728 115.699C3.65784 112.899 3.72618 110.175 3.81208 107.525L0.813653 107.427C0.727267 110.093 0.658571 112.831 0.607764 115.645L3.60728 115.699ZM4.14449 99.3328C4.28219 96.5334 4.44162 93.8218 4.62246 91.1937L1.62954 90.9878C1.44729 93.6364 1.28672 96.3674 1.14811 99.1854L4.14449 99.3328ZM5.27685 83.0296C5.53513 80.2282 5.82081 77.5293 6.13338 74.9261L3.15478 74.5685C2.83874 77.2005 2.55019 79.9268 2.28952 82.7542L5.27685 83.0296ZM7.2349 66.8491C7.66437 64.0565 8.12935 61.3835 8.629 58.8196L5.6844 58.2457C5.1767 60.851 4.70496 63.5633 4.26976 66.3931L7.2349 66.8491ZM10.3684 50.8798C11.0393 48.1418 11.7565 45.5374 12.5187 43.0494L9.65029 42.1707C8.87072 44.7154 8.1385 47.3749 7.45459 50.1658L10.3684 50.8798ZM15.1433 35.3765C16.1337 32.7718 17.1827 30.2967 18.2885 27.9255L15.5697 26.6575C14.4328 29.0952 13.3554 31.6376 12.3391 34.3103L15.1433 35.3765ZM21.9813 20.7285C23.3192 18.3452 24.7243 16.0509 26.1951 13.812L23.6877 12.1648C22.1818 14.4573 20.74 16.8112 19.3653 19.26L21.9813 20.7285ZM30.8511 7.16278C31.6553 6.07776 32.4757 4.99805 33.3123 3.91925L30.9417 2.08075C30.0931 3.17499 29.2594 4.27216 28.4409 5.37647L30.8511 7.16278Z" fill="white"/>
<rect x="40.127" width="14" height="14" rx="7" transform="rotate(90 40.127 0)" fill="#FFBE03"/>
<rect x="31.127" y="228" width="14" height="14" rx="7" transform="rotate(90 31.127 228)" fill="#FFBE03"/>
<rect x="81.127" y="621" width="14" height="14" rx="7" transform="rotate(90 81.127 621)" fill="#FFBE03"/>
<rect x="53.127" y="878" width="14" height="14" rx="7" transform="rotate(90 53.127 878)" fill="#FFBE03"/>
<rect x="98.127" y="430" width="14" height="14" rx="7" transform="rotate(90 98.127 430)" fill="#FFBE03"/>
</svg>
