<svg width="892" height="98" viewBox="0 0 892 98" fill="none" xmlns="http://www.w3.org/2000/svg">
<path d="M702.5 47.1269L702.986 45.708L702.945 45.6939L702.904 45.6823L702.5 47.1269ZM534 4.62692L533.905 6.12393L534 4.62692ZM305.5 47.1269L304.974 45.722L305.5 47.1269ZM128 96.1269L128 97.6269L128 96.1269ZM813.5 65.1269L813.581 66.6248L813.5 65.1269ZM889.789 52.2759C890.493 51.8403 890.712 50.9159 890.276 50.2113C889.84 49.5066 888.916 49.2885 888.211 49.7241L889.789 52.2759ZM884.949 51.2966C884.187 51.6212 883.832 52.5022 884.157 53.2644C884.481 54.0266 885.362 54.3813 886.125 54.0568L884.949 51.2966ZM878.737 56.7516C879.527 56.5008 879.964 55.6575 879.713 54.8679C879.462 54.0783 878.619 53.6416 877.829 53.8923L878.737 56.7516ZM870.477 55.9812C869.674 56.1858 869.189 57.0024 869.394 57.8052C869.598 58.6079 870.415 59.0928 871.218 58.8882L870.477 55.9812ZM863.636 60.6417C864.446 60.4716 864.966 59.6765 864.796 58.8657C864.626 58.0549 863.831 57.5355 863.02 57.7055L863.636 60.6417ZM855.486 59.1469C854.67 59.2891 854.123 60.0659 854.265 60.8821C854.408 61.6982 855.184 62.2446 856.001 62.1024L855.486 59.1469ZM848.335 63.3219C849.155 63.2031 849.724 62.4422 849.605 61.6224C849.486 60.8025 848.725 60.2341 847.905 60.3529L848.335 63.3219ZM840.283 61.3595C839.46 61.4581 838.873 62.2048 838.972 63.0273C839.07 63.8499 839.817 64.4367 840.64 64.3382L840.283 61.3595ZM832.916 65.1781C833.74 65.0972 834.343 64.3633 834.262 63.5388C834.181 62.7143 833.447 62.1115 832.623 62.1924L832.916 65.1781ZM824.966 62.8684C824.14 62.9335 823.523 63.6558 823.588 64.4817C823.653 65.3075 824.376 65.9242 825.201 65.8591L824.966 62.8684ZM817.471 66.4009C818.298 66.3499 818.927 65.6383 818.876 64.8115C818.825 63.9846 818.114 63.3556 817.287 63.4065L817.471 66.4009ZM809.489 63.7404C808.66 63.7456 807.993 64.4213 807.998 65.2498C808.003 66.0782 808.679 66.7455 809.507 66.7404L809.489 63.7404ZM801.342 66.5288C802.17 66.5723 802.876 65.937 802.919 65.1097C802.963 64.2824 802.327 63.5765 801.5 63.5329L801.342 66.5288ZM793.53 62.959C792.705 62.8856 791.977 63.4949 791.903 64.3201C791.83 65.1452 792.439 65.8737 793.264 65.9472L793.53 62.959ZM785.21 65.1203C786.033 65.215 786.777 64.6246 786.872 63.8016C786.967 62.9786 786.376 62.2347 785.553 62.14L785.21 65.1203ZM777.585 61.1401C776.764 61.0291 776.009 61.6046 775.898 62.4256C775.787 63.2465 776.362 64.002 777.183 64.113L777.585 61.1401ZM769.181 62.9626C770 63.087 770.764 62.5239 770.889 61.7048C771.013 60.8858 770.45 60.121 769.631 59.9966L769.181 62.9626ZM761.692 58.7329C760.875 58.597 760.102 59.1494 759.966 59.9666C759.831 60.7838 760.383 61.5564 761.2 61.6923L761.692 58.7329ZM753.241 60.3162C754.056 60.4624 754.836 59.92 754.982 59.1046C755.128 58.2891 754.586 57.5096 753.77 57.3633L753.241 60.3162ZM745.867 55.8962C745.053 55.7401 744.267 56.2731 744.111 57.0867C743.955 57.9003 744.488 58.6864 745.301 58.8424L745.867 55.8962ZM737.38 57.2733C738.191 57.4392 738.984 56.9157 739.15 56.1041C739.316 55.2924 738.792 54.5 737.981 54.3341L737.38 57.2733ZM730.111 52.6735C729.302 52.4971 728.502 53.0103 728.326 53.8198C728.15 54.6292 728.663 55.4284 729.472 55.6047L730.111 52.6735ZM721.58 53.8246C722.387 54.0132 723.194 53.5122 723.382 52.7055C723.571 51.8988 723.07 51.092 722.263 50.9034L721.58 53.8246ZM714.478 49.0045C713.676 48.7994 712.859 49.2838 712.654 50.0864C712.449 50.889 712.933 51.706 713.736 51.9111L714.478 49.0045ZM705.915 49.778C706.71 50.0128 707.544 49.5591 707.779 48.7646C708.014 47.9701 707.56 47.1358 706.765 46.901L705.915 49.778ZM699.136 44.5924C698.342 44.3557 697.507 44.8075 697.27 45.6014C697.033 46.3953 697.485 47.2307 698.279 47.4674L699.136 44.5924ZM690.688 45.1075C691.477 45.3608 692.322 44.9268 692.575 44.1381C692.828 43.3494 692.394 42.5046 691.606 42.2512L690.688 45.1075ZM684.087 39.7867C683.301 39.525 682.451 39.9501 682.19 40.7361C681.928 41.5221 682.353 42.3714 683.139 42.6331L684.087 39.7867ZM675.616 40.1067C676.401 40.3718 677.252 39.9505 677.517 39.1656C677.782 38.3808 677.361 37.5296 676.576 37.2645L675.616 40.1067ZM669.084 34.7301C668.299 34.4647 667.448 34.8858 667.183 35.6706C666.917 36.4553 667.338 37.3066 668.123 37.572L669.084 34.7301ZM660.612 35.0414C661.397 35.3047 662.248 34.8814 662.511 34.0959C662.774 33.3104 662.351 32.4602 661.565 32.1969L660.612 35.0414ZM654.044 29.6945C653.257 29.435 652.409 29.8625 652.149 30.6492C651.89 31.4359 652.317 32.2841 653.104 32.5435L654.044 29.6945ZM645.577 30.0879C646.366 30.3421 647.211 29.909 647.465 29.1206C647.72 28.3321 647.286 27.4869 646.498 27.2327L645.577 30.0879ZM638.94 24.8294C638.15 24.5817 637.308 25.0218 637.06 25.8123C636.813 26.6029 637.253 27.4445 638.043 27.6922L638.94 24.8294ZM630.474 25.3601C631.267 25.6001 632.105 25.1519 632.345 24.359C632.585 23.5661 632.137 22.7288 631.344 22.4888L630.474 25.3601ZM623.742 20.2321C622.946 20.0007 622.114 20.4581 621.883 21.2535C621.651 22.049 622.109 22.8814 622.904 23.1127L623.742 20.2321ZM615.3 20.9507C616.098 21.1723 616.925 20.7049 617.146 19.9067C617.368 19.1084 616.901 18.2817 616.102 18.0601L615.3 20.9507ZM608.428 15.9841C607.627 15.7732 606.807 16.2517 606.596 17.0528C606.385 17.854 606.864 18.6744 607.665 18.8853L608.428 15.9841ZM600.015 16.9304C600.819 17.1296 601.633 16.6392 601.832 15.835C602.031 15.0309 601.541 14.2176 600.737 14.0184L600.015 16.9304ZM593.009 12.1683C592.201 11.9819 591.396 12.4852 591.21 13.2923C591.023 14.0995 591.526 14.905 592.334 15.0914L593.009 12.1683ZM584.622 13.3789C585.432 13.5515 586.229 13.0345 586.401 12.2243C586.574 11.414 586.057 10.6173 585.246 10.4447L584.622 13.3789ZM577.456 8.8593C576.642 8.70169 575.855 9.23321 575.698 10.0465C575.54 10.8598 576.071 11.6469 576.885 11.8045L577.456 8.8593ZM569.123 10.3788C569.939 10.5203 570.716 9.97332 570.857 9.15706C570.999 8.34081 570.452 7.5644 569.635 7.42292L569.123 10.3788ZM561.783 6.14667C560.964 6.02256 560.2 6.58595 560.076 7.40502C559.951 8.2241 560.515 8.9887 561.334 9.11282L561.783 6.14667ZM553.521 8.01885C554.343 8.12426 555.094 7.54359 555.199 6.72189C555.305 5.9002 554.724 5.14864 553.903 5.04324L553.521 8.01885ZM545.996 4.12599C545.172 4.0407 544.435 4.63956 544.35 5.46359C544.264 6.28761 544.863 7.02476 545.687 7.11005L545.996 4.12599ZM537.836 6.39995C538.662 6.46364 539.383 5.84569 539.447 5.01971C539.511 4.19373 538.893 3.47252 538.067 3.40883L537.836 6.39995ZM530.154 2.8932C529.327 2.84619 528.618 3.47858 528.571 4.30567C528.524 5.13276 529.157 5.84136 529.984 5.88837L530.154 2.8932ZM522.195 5.49737C523.022 5.5333 523.723 4.89149 523.758 4.06384C523.794 3.2362 523.153 2.53612 522.325 2.5002L522.195 5.49737ZM514.49 2.21563C513.662 2.19155 512.971 2.84332 512.947 3.6714C512.923 4.49948 513.575 5.19028 514.403 5.21436L514.49 2.21563ZM506.608 5.04665C507.436 5.05809 508.117 4.39584 508.128 3.56749C508.14 2.73915 507.478 2.05837 506.649 2.04694L506.608 5.04665ZM498.805 2.00165C497.977 2.00365 497.307 2.67685 497.309 3.50527C497.311 4.33369 497.984 5.00364 498.813 5.00164L498.805 2.00165ZM491.019 5.08664C491.847 5.07044 492.505 4.38587 492.489 3.5576C492.473 2.72933 491.788 2.07101 490.96 2.08721L491.019 5.08664ZM483.116 2.3107C482.288 2.34181 481.642 3.03813 481.673 3.86598C481.705 4.69382 482.401 5.3397 483.229 5.30859L483.116 2.3107ZM475.446 5.67394C476.273 5.62725 476.906 4.91891 476.859 4.0918C476.813 3.26468 476.104 2.63202 475.277 2.67871L475.446 5.67394ZM467.446 3.19696C466.62 3.25977 466.002 3.98033 466.064 4.80637C466.127 5.63242 466.848 6.25114 467.674 6.18833L467.446 3.19696ZM459.915 6.85635C460.74 6.77698 461.344 6.04415 461.264 5.21954C461.185 4.39492 460.452 3.79078 459.627 3.87015L459.915 6.85635ZM451.824 4.70167C451.001 4.79788 450.412 5.5429 450.508 6.36572C450.604 7.18855 451.35 7.77758 452.172 7.68137L451.824 4.70167ZM444.448 8.66534C445.269 8.55218 445.842 7.79517 445.729 6.9745C445.616 6.15385 444.859 5.5803 444.038 5.69346L444.448 8.66534ZM436.269 6.84647C435.451 6.97651 434.894 7.74517 435.024 8.56333C435.154 9.38149 435.922 9.93932 436.74 9.80928L436.269 6.84647ZM429.059 11.1105C429.875 10.9638 430.417 10.184 430.27 9.36867C430.124 8.55332 429.344 8.01121 428.528 8.15784L429.059 11.1105ZM420.817 9.62396C420.005 9.78669 419.478 10.5771 419.641 11.3894C419.804 12.2017 420.594 12.7282 421.406 12.5655L420.817 9.62396ZM413.782 14.1693C414.591 13.9911 415.103 13.1908 414.925 12.3817C414.746 11.5727 413.946 11.0613 413.137 11.2395L413.782 14.1693ZM405.489 12.9976C404.683 13.1904 404.186 13.9999 404.379 14.8055C404.572 15.6112 405.381 16.108 406.187 15.9152L405.489 12.9976ZM398.62 17.7953C399.422 17.5888 399.905 16.771 399.699 15.9687C399.492 15.1665 398.674 14.6835 397.872 14.89L398.62 17.7953ZM390.292 16.906C389.493 17.1252 389.023 17.9505 389.242 18.7494C389.462 19.5483 390.287 20.0183 391.086 19.7992L390.292 16.906ZM383.584 21.9166C384.379 21.6859 384.837 20.8539 384.606 20.0582C384.376 19.2626 383.544 18.8046 382.748 19.0353L383.584 21.9166ZM375.235 21.2678C374.443 21.5089 373.996 22.3468 374.237 23.1394C374.478 23.932 375.316 24.379 376.108 24.138L375.235 21.2678ZM368.659 26.4527C369.448 26.2023 369.886 25.3592 369.635 24.5695C369.385 23.7798 368.542 23.3426 367.752 23.5929L368.659 26.4527ZM360.296 25.9999C359.509 26.2584 359.08 27.106 359.339 27.8931C359.597 28.6802 360.445 29.1087 361.232 28.8502L360.296 25.9999ZM353.826 31.3202C354.611 31.0546 355.032 30.2032 354.766 29.4185C354.501 28.6338 353.649 28.213 352.865 28.4785L353.826 31.3202ZM345.456 31.0188C344.673 31.2904 344.259 32.1451 344.531 32.9277C344.802 33.7103 345.657 34.1246 346.44 33.8529L345.456 31.0188ZM339.07 36.439C339.85 36.1622 340.259 35.3048 339.982 34.524C339.706 33.7432 338.848 33.3346 338.067 33.6113L339.07 36.439ZM330.696 36.2476C329.917 36.5287 329.513 37.3882 329.794 38.1675C330.075 38.9468 330.935 39.3507 331.714 39.0697L330.696 36.2476ZM324.371 41.7373C325.149 41.4527 325.549 40.5914 325.264 39.8133C324.98 39.0353 324.118 38.6352 323.34 38.9198L324.371 41.7373ZM315.997 41.6207C315.22 41.908 314.823 42.7708 315.11 43.5478C315.397 44.3248 316.26 44.7218 317.037 44.4345L315.997 41.6207ZM309.711 47.1553C310.487 46.8659 310.882 46.002 310.593 45.2258C310.303 44.4495 309.439 44.0549 308.663 44.3443L309.711 47.1553ZM301.329 47.0944C300.554 47.3878 300.164 48.2538 300.457 49.0285C300.751 49.8032 301.617 50.1933 302.392 49.8999L301.329 47.0944ZM295.186 52.6612C295.958 52.3619 296.342 51.493 296.042 50.7206C295.743 49.9481 294.874 49.5645 294.102 49.8638L295.186 52.6612ZM286.9 52.6821C286.13 52.9864 285.752 53.8578 286.056 54.6283C286.361 55.3987 287.232 55.7766 288.003 55.4722L286.9 52.6821ZM280.827 58.3299C281.596 58.0214 281.969 57.1481 281.661 56.3792C281.352 55.6104 280.479 55.2371 279.71 55.5456L280.827 58.3299ZM272.526 58.4446C271.758 58.7559 271.388 59.6307 271.699 60.3984C272.011 61.1661 272.886 61.536 273.653 61.2247L272.526 58.4446ZM266.494 64.1371C267.261 63.8244 267.629 62.949 267.317 62.1818C267.004 61.4147 266.128 61.0463 265.361 61.359L266.494 64.1371ZM258.212 64.2732C257.444 64.5856 257.076 65.4608 257.388 66.2281C257.7 66.9954 258.576 67.3641 259.343 67.0518L258.212 64.2732ZM252.165 69.9626C252.934 69.6526 253.305 68.7786 252.995 68.0103C252.685 67.2421 251.811 66.8705 251.043 67.1805L252.165 69.9626ZM243.873 70.0498C243.103 70.3551 242.726 71.2269 243.032 71.997C243.337 72.7672 244.209 73.144 244.979 72.8388L243.873 70.0498ZM237.769 75.6596C238.542 75.3615 238.927 74.4933 238.629 73.7204C238.331 72.9474 237.463 72.5624 236.69 72.8604L237.769 75.6596ZM229.473 75.592C228.696 75.88 228.3 76.7431 228.588 77.5199C228.876 78.2966 229.739 78.6928 230.516 78.4048L229.473 75.592ZM223.226 81.0422C224.008 80.767 224.418 79.9105 224.143 79.1291C223.868 78.3477 223.011 77.9374 222.23 78.2126L223.226 81.0422ZM214.939 80.7013C214.152 80.9609 213.724 81.809 213.984 82.5957C214.244 83.3825 215.092 83.8098 215.878 83.5503L214.939 80.7013ZM208.476 85.8996C209.269 85.6584 209.716 84.8203 209.474 84.0278C209.233 83.2353 208.395 82.7884 207.602 83.0296L208.476 85.8996ZM200.217 85.1749C199.418 85.3954 198.95 86.2215 199.17 87.0201C199.391 87.8186 200.217 88.2871 201.015 88.0666L200.217 85.1749ZM193.492 90.0318C194.297 89.8339 194.789 89.0213 194.591 88.2169C194.393 87.4124 193.58 86.9208 192.776 87.1187L193.492 90.0318ZM185.287 88.8442C184.477 89.0181 183.962 89.8156 184.136 90.6256C184.309 91.4356 185.107 91.9512 185.917 91.7773L185.287 88.8442ZM178.29 93.2936C179.105 93.1445 179.645 92.3631 179.495 91.5482C179.346 90.7333 178.565 90.1935 177.75 90.3426L178.29 93.2936ZM170.163 91.6101C169.344 91.734 168.78 92.4985 168.904 93.3176C169.028 94.1367 169.793 94.7002 170.612 94.5763L170.163 91.6101ZM162.916 95.6218C163.739 95.5226 164.325 94.7755 164.226 93.953C164.127 93.1305 163.379 92.5442 162.557 92.6433L162.916 95.6218ZM154.909 93.4513C154.084 93.5263 153.476 94.256 153.551 95.081C153.626 95.906 154.356 96.514 155.181 96.4389L154.909 93.4513ZM147.415 97.035C148.242 96.983 148.87 96.2707 148.818 95.4439C148.766 94.6171 148.054 93.9889 147.227 94.0409L147.415 97.035ZM139.559 94.4202C138.731 94.4504 138.085 95.1459 138.115 95.9738C138.145 96.8017 138.841 97.4484 139.668 97.4182L139.559 94.4202ZM131.909 97.604C132.737 97.5943 133.401 96.9149 133.391 96.0865C133.381 95.2581 132.702 94.5945 131.873 94.6042L131.909 97.604ZM123.871 94.6154C123.043 94.6107 122.367 95.2785 122.363 96.1069C122.358 96.9353 123.026 97.6107 123.854 97.6153L123.871 94.6154ZM115.645 97.5192C116.473 97.5342 117.157 96.8749 117.172 96.0466C117.186 95.2183 116.527 94.5347 115.699 94.5197L115.645 97.5192ZM107.525 94.3149C106.697 94.2881 106.004 94.9376 105.977 95.7655C105.95 96.5935 106.599 97.2865 107.427 97.3133L107.525 94.3149ZM99.1854 96.9789C100.013 97.0196 100.717 96.3818 100.757 95.5544C100.798 94.727 100.16 94.0232 99.3328 93.9825L99.1854 96.9789ZM91.1937 93.5045C90.3672 93.4477 89.6512 94.0716 89.5943 94.898C89.5374 95.7245 90.1613 96.4406 90.9878 96.4975L91.1937 93.5045ZM82.7542 95.8375C83.5791 95.9135 84.3095 95.3065 84.3856 94.4815C84.4616 93.6566 83.8546 92.9262 83.0296 92.8502L82.7542 95.8375ZM74.9261 91.9936C74.1036 91.8949 73.3568 92.4816 73.258 93.3041C73.1592 94.1266 73.746 94.8735 74.5685 94.9722L74.9261 91.9936ZM66.3931 93.8572C67.2119 93.9832 67.9777 93.4215 68.1037 92.6027C68.2296 91.7839 67.6679 91.018 66.8491 90.8921L66.3931 93.8572ZM58.8196 89.498C58.0065 89.3395 57.2188 89.8703 57.0604 90.6834C56.9019 91.4965 57.4326 92.2841 58.2457 92.4426L58.8196 89.498ZM50.1658 90.6724C50.9704 90.8696 51.7825 90.3772 51.9797 89.5725C52.1769 88.7679 51.6844 87.9558 50.8798 87.7586L50.1658 90.6724ZM43.0494 85.6083C42.2573 85.3656 41.4185 85.811 41.1758 86.6031C40.9332 87.3952 41.3786 88.2341 42.1707 88.4767L43.0494 85.6083ZM34.3103 85.7879C35.0847 86.0823 35.9511 85.6932 36.2455 84.9189C36.5399 84.1445 36.1509 83.2781 35.3765 82.9837L34.3103 85.7879ZM27.9255 79.8385C27.1747 79.4883 26.2822 79.8131 25.9321 80.5639C25.5819 81.3147 25.9067 82.2072 26.6575 82.5573L27.9255 79.8385ZM19.26 78.7617C19.9824 79.1672 20.8967 78.9103 21.3023 78.1879C21.7078 77.4656 21.4509 76.5512 20.7285 76.1457L19.26 78.7617ZM13.812 71.9319C13.1196 71.4771 12.1895 71.6696 11.7347 72.362C11.2798 73.0544 11.4724 73.9844 12.1648 74.4393L13.812 71.9319ZM5.37647 69.6861C6.04199 70.1794 6.98139 70.0398 7.47473 69.3742C7.96802 68.7087 7.82837 67.7692 7.16278 67.276L5.37647 69.6861ZM889 51C888.211 49.7241 888.211 49.724 888.212 49.7239C888.212 49.7238 888.212 49.7237 888.212 49.7237C888.212 49.7235 888.212 49.7234 888.213 49.7232C888.213 49.723 888.213 49.7228 888.214 49.7226C888.214 49.7223 888.215 49.7221 888.215 49.7221C888.215 49.722 888.214 49.7226 888.212 49.7239C888.208 49.7263 888.199 49.7312 888.187 49.7386C888.162 49.7533 888.12 49.7778 888.06 49.8115C887.941 49.8788 887.751 49.983 887.486 50.1197C886.956 50.3931 886.123 50.7967 884.949 51.2966L886.125 54.0568C887.364 53.5291 888.263 53.0944 888.86 52.7864C889.159 52.6324 889.383 52.51 889.536 52.4235C889.613 52.3802 889.671 52.346 889.713 52.3212C889.734 52.3088 889.751 52.2988 889.764 52.2912C889.77 52.2874 889.775 52.2843 889.779 52.2817C889.781 52.2804 889.783 52.2793 889.785 52.2783C889.786 52.2778 889.786 52.2774 889.787 52.277C889.787 52.2768 889.788 52.2766 889.788 52.2764C889.788 52.2763 889.788 52.2762 889.788 52.2761C889.789 52.276 889.789 52.2759 889 51ZM877.829 53.8923C875.742 54.5553 873.302 55.2611 870.477 55.9812L871.218 58.8882C874.097 58.1544 876.592 57.4328 878.737 56.7516L877.829 53.8923ZM863.02 57.7055C860.697 58.1926 858.189 58.676 855.486 59.1469L856.001 62.1024C858.737 61.6257 861.279 61.136 863.636 60.6417L863.02 57.7055ZM847.905 60.3529C845.493 60.7023 842.954 61.0392 840.283 61.3595L840.64 64.3382C843.335 64.0151 845.899 63.6749 848.335 63.3219L847.905 60.3529ZM832.623 62.1924C830.168 62.4331 827.617 62.6593 824.966 62.8684L825.201 65.8591C827.871 65.6486 830.442 65.4207 832.916 65.1781L832.623 62.1924ZM817.287 63.4065C816.019 63.4847 814.73 63.5589 813.42 63.6291L813.581 66.6248C814.898 66.5542 816.195 66.4795 817.471 66.4009L817.287 63.4065ZM813.42 63.6291C812.186 63.6952 810.874 63.7318 809.489 63.7404L809.507 66.7404C810.933 66.7315 812.293 66.6938 813.581 66.6248L813.42 63.6291ZM801.5 63.5329C798.97 63.3999 796.304 63.206 793.53 62.959L793.264 65.9472C796.068 66.1969 798.771 66.3935 801.342 66.5288L801.5 63.5329ZM785.553 62.14C782.951 61.8406 780.288 61.5054 777.585 61.1401L777.183 64.113C779.903 64.4808 782.586 64.8184 785.21 65.1203L785.553 62.14ZM769.631 59.9966C766.996 59.5965 764.343 59.1736 761.692 58.7329L761.2 61.6923C763.864 62.1352 766.53 62.5603 769.181 62.9626L769.631 59.9966ZM753.77 57.3633C751.109 56.886 748.468 56.3953 745.867 55.8962L745.301 58.8424C747.914 59.3438 750.567 59.8367 753.241 60.3162L753.77 57.3633ZM737.981 54.3341C735.28 53.7822 732.649 53.2266 730.111 52.6735L729.472 55.6047C732.024 56.1606 734.667 56.7189 737.38 57.2733L737.981 54.3341ZM722.263 50.9034C719.482 50.253 716.873 49.6163 714.478 49.0045L713.736 51.9111C716.152 52.5287 718.781 53.1701 721.58 53.8246L722.263 50.9034ZM706.765 46.901C705.325 46.4752 704.059 46.0757 702.986 45.708L702.014 48.5459C703.137 48.9312 704.446 49.3437 705.915 49.778L706.765 46.901ZM702.904 45.6823C701.691 45.3434 700.434 44.9794 699.136 44.5924L698.279 47.4674C699.592 47.8586 700.865 48.2274 702.096 48.5716L702.904 45.6823ZM691.606 42.2512C689.204 41.4798 686.696 40.6553 684.087 39.7867L683.139 42.6331C685.755 43.5038 688.273 44.3318 690.688 45.1075L691.606 42.2512ZM676.576 37.2645C674.147 36.4439 671.65 35.5978 669.084 34.7301L668.123 37.572C670.686 38.4385 673.187 39.2862 675.616 40.1067L676.576 37.2645ZM661.565 32.1969C659.109 31.3734 656.6 30.5377 654.044 29.6945L653.104 32.5435C655.655 33.3849 658.159 34.219 660.612 35.0414L661.565 32.1969ZM646.498 27.2327C644.017 26.4329 641.497 25.6305 638.94 24.8294L638.043 27.6922C640.591 28.4906 643.104 29.2904 645.577 30.0879L646.498 27.2327ZM631.344 22.4888C628.84 21.7308 626.305 20.9774 623.742 20.2321L622.904 23.1127C625.456 23.8549 627.98 24.6051 630.474 25.3601L631.344 22.4888ZM616.102 18.0601C613.568 17.3565 611.009 16.6635 608.428 15.9841L607.665 18.8853C610.232 19.561 612.778 20.2505 615.3 20.9507L616.102 18.0601ZM600.737 14.0184C598.179 13.3849 595.602 12.7673 593.009 12.1683L592.334 15.0914C594.911 15.6866 597.472 16.3006 600.015 16.9304L600.737 14.0184ZM585.246 10.4447C582.663 9.89453 580.066 9.36516 577.456 8.8593L576.885 11.8045C579.476 12.3067 582.056 12.8324 584.622 13.3789L585.246 10.4447ZM569.635 7.42292C567.028 6.97093 564.41 6.54463 561.783 6.14667L561.334 9.11282C563.939 9.50748 566.536 9.93035 569.123 10.3788L569.635 7.42292ZM553.903 5.04324C551.273 4.70595 548.637 4.39933 545.996 4.12599L545.687 7.11005C548.303 7.38078 550.915 7.68456 553.521 8.01885L553.903 5.04324ZM538.067 3.40883C536.743 3.30679 535.419 3.21371 534.095 3.12991L533.905 6.12393C535.216 6.20684 536.526 6.29895 537.836 6.39995L538.067 3.40883ZM534.095 3.12991C532.773 3.04632 531.46 2.96742 530.154 2.8932L529.984 5.88837C531.283 5.96222 532.59 6.04073 533.905 6.12393L534.095 3.12991ZM522.325 2.5002C519.683 2.38548 517.071 2.29069 514.49 2.21563L514.403 5.21436C516.97 5.28899 519.566 5.38327 522.195 5.49737L522.325 2.5002ZM506.649 2.04694C504.005 2.01044 501.391 1.99542 498.805 2.00165L498.813 5.00164C501.382 4.99545 503.98 5.01038 506.608 5.04665L506.649 2.04694ZM490.96 2.08721C488.318 2.13886 485.704 2.21344 483.116 2.3107L483.229 5.30859C485.799 5.212 488.395 5.13793 491.019 5.08664L490.96 2.08721ZM475.277 2.67871C472.643 2.82738 470.034 3.00022 467.446 3.19696L467.674 6.18833C470.241 5.99307 472.831 5.82152 475.446 5.67394L475.277 2.67871ZM459.627 3.87015C457.007 4.12239 454.407 4.39966 451.824 4.70167L452.172 7.68137C454.735 7.38174 457.315 7.10663 459.915 6.85635L459.627 3.87015ZM444.038 5.69346C441.435 6.05246 438.846 6.4369 436.269 6.84647L436.74 9.80928C439.297 9.40292 441.865 9.02151 444.448 8.66534L444.038 5.69346ZM428.528 8.15784C425.95 8.62145 423.381 9.11027 420.817 9.62396L421.406 12.5655C423.951 12.0556 426.501 11.5705 429.059 11.1105L428.528 8.15784ZM413.137 11.2395C410.587 11.8012 408.038 12.3874 405.489 12.9976L406.187 15.9152C408.719 15.3091 411.25 14.727 413.782 14.1693L413.137 11.2395ZM397.872 14.89C395.351 15.539 392.825 16.2112 390.292 16.906L391.086 19.7992C393.604 19.1083 396.115 18.4402 398.62 17.7953L397.872 14.89ZM382.748 19.0353C380.255 19.7581 377.752 20.5024 375.235 21.2678L376.108 24.138C378.613 23.3762 381.104 22.6356 383.584 21.9166L382.748 19.0353ZM367.752 23.5929C365.283 24.3757 362.798 25.1782 360.296 25.9999L361.232 28.8502C363.725 28.0314 366.2 27.2322 368.659 26.4527L367.752 23.5929ZM352.865 28.4785C350.415 29.3076 347.946 30.1544 345.456 31.0188L346.44 33.8529C348.923 32.9909 351.385 32.1466 353.826 31.3202L352.865 28.4785ZM338.067 33.6113C335.633 34.4742 333.177 35.3531 330.696 36.2476L331.714 39.0697C334.19 38.1768 336.641 37.2999 339.07 36.439L338.067 33.6113ZM323.34 38.9198C320.917 39.8059 318.47 40.7063 315.997 41.6207L317.037 44.4345C319.508 43.5212 321.951 42.622 324.371 41.7373L323.34 38.9198ZM308.663 44.3443C307.44 44.8003 306.211 45.2595 304.974 45.722L306.026 48.5318C307.261 48.0697 308.489 47.6109 309.711 47.1553L308.663 44.3443ZM304.974 45.722C303.749 46.1804 302.534 46.6379 301.329 47.0944L302.392 49.8999C303.593 49.4448 304.804 48.9888 306.026 48.5318L304.974 45.722ZM294.102 49.8638C291.662 50.8092 289.263 51.749 286.9 52.6821L288.003 55.4722C290.359 54.5413 292.752 53.604 295.186 52.6612L294.102 49.8638ZM279.71 55.5456C277.279 56.521 274.885 57.4878 272.526 58.4446L273.653 61.2247C276.01 60.2689 278.4 59.3036 280.827 58.3299L279.71 55.5456ZM265.361 61.359C262.947 62.3434 260.566 63.315 258.212 64.2732L259.343 67.0518C261.698 66.0932 264.08 65.1209 266.494 64.1371L265.361 61.359ZM251.043 67.1805C248.629 68.1542 246.241 69.1112 243.873 70.0498L244.979 72.8388C247.354 71.8973 249.748 70.938 252.165 69.9626L251.043 67.1805ZM236.69 72.8604C234.271 73.793 231.868 74.7041 229.473 75.592L230.516 78.4048C232.924 77.5119 235.34 76.5962 237.769 75.6596L236.69 72.8604ZM222.23 78.2126C219.799 79.0688 217.37 79.899 214.939 80.7013L215.878 83.5503C218.331 82.7412 220.778 81.9045 223.226 81.0422L222.23 78.2126ZM207.602 83.0296C205.153 83.7751 202.694 84.4908 200.217 85.1749L201.015 88.0666C203.519 87.3752 206.003 86.6522 208.476 85.8996L207.602 83.0296ZM192.776 87.1187C190.305 87.7266 187.811 88.3024 185.287 88.8442L185.917 91.7773C188.47 91.2291 190.993 90.6467 193.492 90.0318L192.776 87.1187ZM177.75 90.3426C175.256 90.7987 172.729 91.2218 170.163 91.6101L170.612 94.5763C173.208 94.1834 175.766 93.7553 178.29 93.2936L177.75 90.3426ZM162.557 92.6433C160.049 92.9457 157.502 93.2155 154.909 93.4513L155.181 96.4389C157.802 96.2005 160.379 95.9276 162.916 95.6218L162.557 92.6433ZM147.227 94.0409C144.716 94.1986 142.161 94.3254 139.559 94.4202L139.668 97.4182C142.296 97.3225 144.877 97.1944 147.415 97.035L147.227 94.0409ZM131.873 94.6042C130.594 94.6193 129.303 94.6269 128 94.6269L128 97.6269C129.315 97.6269 130.617 97.6192 131.909 97.604L131.873 94.6042ZM128 94.6269C126.607 94.6269 125.231 94.623 123.871 94.6154L123.854 97.6153C125.219 97.623 126.601 97.6269 128 97.6269L128 94.6269ZM115.699 94.5197C112.899 94.4692 110.175 94.4008 107.525 94.3149L107.427 97.3133C110.093 97.3997 112.831 97.4684 115.645 97.5192L115.699 94.5197ZM99.3328 93.9825C96.5334 93.8448 93.8218 93.6854 91.1937 93.5045L90.9878 96.4975C93.6364 96.6797 96.3674 96.8403 99.1854 96.9789L99.3328 93.9825ZM83.0296 92.8502C80.2282 92.5919 77.5293 92.3062 74.9261 91.9936L74.5685 94.9722C77.2005 95.2883 79.9268 95.5768 82.7542 95.8375L83.0296 92.8502ZM66.8491 90.8921C64.0565 90.4626 61.3835 89.9977 58.8196 89.498L58.2457 92.4426C60.851 92.9503 63.5633 93.422 66.3931 93.8572L66.8491 90.8921ZM50.8798 87.7586C48.1418 87.0877 45.5374 86.3705 43.0494 85.6083L42.1707 88.4767C44.7154 89.2563 47.3749 89.9885 50.1658 90.6724L50.8798 87.7586ZM35.3765 82.9837C32.7718 81.9933 30.2967 80.9443 27.9255 79.8385L26.6575 82.5573C29.0952 83.6942 31.6376 84.7716 34.3103 85.7879L35.3765 82.9837ZM20.7285 76.1457C18.3452 74.8078 16.0509 73.4027 13.812 71.9319L12.1648 74.4393C14.4573 75.9452 16.8112 77.387 19.26 78.7617L20.7285 76.1457ZM7.16278 67.276C6.07776 66.4717 4.99805 65.6513 3.91925 64.8147L2.08075 67.1853C3.17499 68.0339 4.27216 68.8676 5.37647 69.6861L7.16278 67.276Z" fill="white"/>
<rect y="58" width="14" height="14" rx="7" fill="#FFBE03"/>
<rect x="228" y="67" width="14" height="14" rx="7" fill="#FFBE03"/>
<rect x="621" y="17" width="14" height="14" rx="7" fill="#FFBE03"/>
<rect x="878" y="45" width="14" height="14" rx="7" fill="#FFBE03"/>
<rect x="430" width="14" height="14" rx="7" fill="#FFBE03"/>
</svg>
